<?xml version="1.0" encoding="utf-8" standalone="no"?>
<!DOCTYPE svg PUBLIC "-//W3C//DTD SVG 1.1//EN"
  "http://www.w3.org/Graphics/SVG/1.1/DTD/svg11.dtd">
<svg xmlns:xlink="http://www.w3.org/1999/xlink" width="720pt" height="432pt" viewBox="0 0 720 432" xmlns="http://www.w3.org/2000/svg" version="1.1">
 <metadata>
  <rdf:RDF xmlns:dc="http://purl.org/dc/elements/1.1/" xmlns:cc="http://creativecommons.org/ns#" xmlns:rdf="http://www.w3.org/1999/02/22-rdf-syntax-ns#">
   <cc:Work>
    <dc:type rdf:resource="http://purl.org/dc/dcmitype/StillImage"/>
    <dc:date>2025-04-08T00:18:57.210426</dc:date>
    <dc:format>image/svg+xml</dc:format>
    <dc:creator>
     <cc:Agent>
      <dc:title>Matplotlib v3.10.1, https://matplotlib.org/</dc:title>
     </cc:Agent>
    </dc:creator>
   </cc:Work>
  </rdf:RDF>
 </metadata>
 <defs>
  <style type="text/css">*{stroke-linejoin: round; stroke-linecap: butt}</style>
 </defs>
 <g id="figure_1">
  <g id="patch_1">
   <path d="M 0 432 
L 720 432 
L 720 0 
L 0 0 
z
" style="fill: #ffffff"/>
  </g>
  <g id="axes_1">
   <g id="patch_2">
    <path d="M 90 384.48 
L 648 384.48 
L 648 51.84 
L 90 51.84 
z
" style="fill: #ffffff"/>
   </g>
   <g id="matplotlib.axis_1">
    <g id="xtick_1">
     <g id="line2d_1">
      <path d="M 171.727273 384.48 
L 171.727273 51.84 
" clip-path="url(#p66523d7111)" style="fill: none; stroke-dasharray: 0.8,1.32; stroke-dashoffset: 0; stroke: #b0b0b0; stroke-width: 0.8"/>
     </g>
     <g id="line2d_2">
      <defs>
       <path id="m966e0be1ff" d="M 0 0 
L 0 3.5 
" style="stroke: #000000; stroke-width: 0.8"/>
      </defs>
      <g>
       <use xlink:href="#m966e0be1ff" x="171.727273" y="384.48" style="stroke: #000000; stroke-width: 0.8"/>
      </g>
     </g>
     <g id="text_1">
      <!-- 2 -->
      <g transform="translate(168.546023 399.078438) scale(0.1 -0.1)">
       <defs>
        <path id="DejaVuSans-32" d="M 1228 531 
L 3431 531 
L 3431 0 
L 469 0 
L 469 531 
Q 828 903 1448 1529 
Q 2069 2156 2228 2338 
Q 2531 2678 2651 2914 
Q 2772 3150 2772 3378 
Q 2772 3750 2511 3984 
Q 2250 4219 1831 4219 
Q 1534 4219 1204 4116 
Q 875 4013 500 3803 
L 500 4441 
Q 881 4594 1212 4672 
Q 1544 4750 1819 4750 
Q 2544 4750 2975 4387 
Q 3406 4025 3406 3419 
Q 3406 3131 3298 2873 
Q 3191 2616 2906 2266 
Q 2828 2175 2409 1742 
Q 1991 1309 1228 531 
z
" transform="scale(0.015625)"/>
       </defs>
       <use xlink:href="#DejaVuSans-32"/>
      </g>
     </g>
    </g>
    <g id="xtick_2">
     <g id="line2d_3">
      <path d="M 284.454545 384.48 
L 284.454545 51.84 
" clip-path="url(#p66523d7111)" style="fill: none; stroke-dasharray: 0.8,1.32; stroke-dashoffset: 0; stroke: #b0b0b0; stroke-width: 0.8"/>
     </g>
     <g id="line2d_4">
      <g>
       <use xlink:href="#m966e0be1ff" x="284.454545" y="384.48" style="stroke: #000000; stroke-width: 0.8"/>
      </g>
     </g>
     <g id="text_2">
      <!-- 4 -->
      <g transform="translate(281.273295 399.078438) scale(0.1 -0.1)">
       <defs>
        <path id="DejaVuSans-34" d="M 2419 4116 
L 825 1625 
L 2419 1625 
L 2419 4116 
z
M 2253 4666 
L 3047 4666 
L 3047 1625 
L 3713 1625 
L 3713 1100 
L 3047 1100 
L 3047 0 
L 2419 0 
L 2419 1100 
L 313 1100 
L 313 1709 
L 2253 4666 
z
" transform="scale(0.015625)"/>
       </defs>
       <use xlink:href="#DejaVuSans-34"/>
      </g>
     </g>
    </g>
    <g id="xtick_3">
     <g id="line2d_5">
      <path d="M 397.181818 384.48 
L 397.181818 51.84 
" clip-path="url(#p66523d7111)" style="fill: none; stroke-dasharray: 0.8,1.32; stroke-dashoffset: 0; stroke: #b0b0b0; stroke-width: 0.8"/>
     </g>
     <g id="line2d_6">
      <g>
       <use xlink:href="#m966e0be1ff" x="397.181818" y="384.48" style="stroke: #000000; stroke-width: 0.8"/>
      </g>
     </g>
     <g id="text_3">
      <!-- 6 -->
      <g transform="translate(394.000568 399.078438) scale(0.1 -0.1)">
       <defs>
        <path id="DejaVuSans-36" d="M 2113 2584 
Q 1688 2584 1439 2293 
Q 1191 2003 1191 1497 
Q 1191 994 1439 701 
Q 1688 409 2113 409 
Q 2538 409 2786 701 
Q 3034 994 3034 1497 
Q 3034 2003 2786 2293 
Q 2538 2584 2113 2584 
z
M 3366 4563 
L 3366 3988 
Q 3128 4100 2886 4159 
Q 2644 4219 2406 4219 
Q 1781 4219 1451 3797 
Q 1122 3375 1075 2522 
Q 1259 2794 1537 2939 
Q 1816 3084 2150 3084 
Q 2853 3084 3261 2657 
Q 3669 2231 3669 1497 
Q 3669 778 3244 343 
Q 2819 -91 2113 -91 
Q 1303 -91 875 529 
Q 447 1150 447 2328 
Q 447 3434 972 4092 
Q 1497 4750 2381 4750 
Q 2619 4750 2861 4703 
Q 3103 4656 3366 4563 
z
" transform="scale(0.015625)"/>
       </defs>
       <use xlink:href="#DejaVuSans-36"/>
      </g>
     </g>
    </g>
    <g id="xtick_4">
     <g id="line2d_7">
      <path d="M 509.909091 384.48 
L 509.909091 51.84 
" clip-path="url(#p66523d7111)" style="fill: none; stroke-dasharray: 0.8,1.32; stroke-dashoffset: 0; stroke: #b0b0b0; stroke-width: 0.8"/>
     </g>
     <g id="line2d_8">
      <g>
       <use xlink:href="#m966e0be1ff" x="509.909091" y="384.48" style="stroke: #000000; stroke-width: 0.8"/>
      </g>
     </g>
     <g id="text_4">
      <!-- 8 -->
      <g transform="translate(506.727841 399.078438) scale(0.1 -0.1)">
       <defs>
        <path id="DejaVuSans-38" d="M 2034 2216 
Q 1584 2216 1326 1975 
Q 1069 1734 1069 1313 
Q 1069 891 1326 650 
Q 1584 409 2034 409 
Q 2484 409 2743 651 
Q 3003 894 3003 1313 
Q 3003 1734 2745 1975 
Q 2488 2216 2034 2216 
z
M 1403 2484 
Q 997 2584 770 2862 
Q 544 3141 544 3541 
Q 544 4100 942 4425 
Q 1341 4750 2034 4750 
Q 2731 4750 3128 4425 
Q 3525 4100 3525 3541 
Q 3525 3141 3298 2862 
Q 3072 2584 2669 2484 
Q 3125 2378 3379 2068 
Q 3634 1759 3634 1313 
Q 3634 634 3220 271 
Q 2806 -91 2034 -91 
Q 1263 -91 848 271 
Q 434 634 434 1313 
Q 434 1759 690 2068 
Q 947 2378 1403 2484 
z
M 1172 3481 
Q 1172 3119 1398 2916 
Q 1625 2713 2034 2713 
Q 2441 2713 2670 2916 
Q 2900 3119 2900 3481 
Q 2900 3844 2670 4047 
Q 2441 4250 2034 4250 
Q 1625 4250 1398 4047 
Q 1172 3844 1172 3481 
z
" transform="scale(0.015625)"/>
       </defs>
       <use xlink:href="#DejaVuSans-38"/>
      </g>
     </g>
    </g>
    <g id="xtick_5">
     <g id="line2d_9">
      <path d="M 622.636364 384.48 
L 622.636364 51.84 
" clip-path="url(#p66523d7111)" style="fill: none; stroke-dasharray: 0.8,1.32; stroke-dashoffset: 0; stroke: #b0b0b0; stroke-width: 0.8"/>
     </g>
     <g id="line2d_10">
      <g>
       <use xlink:href="#m966e0be1ff" x="622.636364" y="384.48" style="stroke: #000000; stroke-width: 0.8"/>
      </g>
     </g>
     <g id="text_5">
      <!-- 10 -->
      <g transform="translate(616.273864 399.078438) scale(0.1 -0.1)">
       <defs>
        <path id="DejaVuSans-31" d="M 794 531 
L 1825 531 
L 1825 4091 
L 703 3866 
L 703 4441 
L 1819 4666 
L 2450 4666 
L 2450 531 
L 3481 531 
L 3481 0 
L 794 0 
L 794 531 
z
" transform="scale(0.015625)"/>
        <path id="DejaVuSans-30" d="M 2034 4250 
Q 1547 4250 1301 3770 
Q 1056 3291 1056 2328 
Q 1056 1369 1301 889 
Q 1547 409 2034 409 
Q 2525 409 2770 889 
Q 3016 1369 3016 2328 
Q 3016 3291 2770 3770 
Q 2525 4250 2034 4250 
z
M 2034 4750 
Q 2819 4750 3233 4129 
Q 3647 3509 3647 2328 
Q 3647 1150 3233 529 
Q 2819 -91 2034 -91 
Q 1250 -91 836 529 
Q 422 1150 422 2328 
Q 422 3509 836 4129 
Q 1250 4750 2034 4750 
z
" transform="scale(0.015625)"/>
       </defs>
       <use xlink:href="#DejaVuSans-31"/>
       <use xlink:href="#DejaVuSans-30" transform="translate(63.623047 0)"/>
      </g>
     </g>
    </g>
    <g id="text_6">
     <!-- Purification Iteration -->
     <g transform="translate(318.121875 412.756563) scale(0.1 -0.1)">
      <defs>
       <path id="DejaVuSans-50" d="M 1259 4147 
L 1259 2394 
L 2053 2394 
Q 2494 2394 2734 2622 
Q 2975 2850 2975 3272 
Q 2975 3691 2734 3919 
Q 2494 4147 2053 4147 
L 1259 4147 
z
M 628 4666 
L 2053 4666 
Q 2838 4666 3239 4311 
Q 3641 3956 3641 3272 
Q 3641 2581 3239 2228 
Q 2838 1875 2053 1875 
L 1259 1875 
L 1259 0 
L 628 0 
L 628 4666 
z
" transform="scale(0.015625)"/>
       <path id="DejaVuSans-75" d="M 544 1381 
L 544 3500 
L 1119 3500 
L 1119 1403 
Q 1119 906 1312 657 
Q 1506 409 1894 409 
Q 2359 409 2629 706 
Q 2900 1003 2900 1516 
L 2900 3500 
L 3475 3500 
L 3475 0 
L 2900 0 
L 2900 538 
Q 2691 219 2414 64 
Q 2138 -91 1772 -91 
Q 1169 -91 856 284 
Q 544 659 544 1381 
z
M 1991 3584 
L 1991 3584 
z
" transform="scale(0.015625)"/>
       <path id="DejaVuSans-72" d="M 2631 2963 
Q 2534 3019 2420 3045 
Q 2306 3072 2169 3072 
Q 1681 3072 1420 2755 
Q 1159 2438 1159 1844 
L 1159 0 
L 581 0 
L 581 3500 
L 1159 3500 
L 1159 2956 
Q 1341 3275 1631 3429 
Q 1922 3584 2338 3584 
Q 2397 3584 2469 3576 
Q 2541 3569 2628 3553 
L 2631 2963 
z
" transform="scale(0.015625)"/>
       <path id="DejaVuSans-69" d="M 603 3500 
L 1178 3500 
L 1178 0 
L 603 0 
L 603 3500 
z
M 603 4863 
L 1178 4863 
L 1178 4134 
L 603 4134 
L 603 4863 
z
" transform="scale(0.015625)"/>
       <path id="DejaVuSans-66" d="M 2375 4863 
L 2375 4384 
L 1825 4384 
Q 1516 4384 1395 4259 
Q 1275 4134 1275 3809 
L 1275 3500 
L 2222 3500 
L 2222 3053 
L 1275 3053 
L 1275 0 
L 697 0 
L 697 3053 
L 147 3053 
L 147 3500 
L 697 3500 
L 697 3744 
Q 697 4328 969 4595 
Q 1241 4863 1831 4863 
L 2375 4863 
z
" transform="scale(0.015625)"/>
       <path id="DejaVuSans-63" d="M 3122 3366 
L 3122 2828 
Q 2878 2963 2633 3030 
Q 2388 3097 2138 3097 
Q 1578 3097 1268 2742 
Q 959 2388 959 1747 
Q 959 1106 1268 751 
Q 1578 397 2138 397 
Q 2388 397 2633 464 
Q 2878 531 3122 666 
L 3122 134 
Q 2881 22 2623 -34 
Q 2366 -91 2075 -91 
Q 1284 -91 818 406 
Q 353 903 353 1747 
Q 353 2603 823 3093 
Q 1294 3584 2113 3584 
Q 2378 3584 2631 3529 
Q 2884 3475 3122 3366 
z
" transform="scale(0.015625)"/>
       <path id="DejaVuSans-61" d="M 2194 1759 
Q 1497 1759 1228 1600 
Q 959 1441 959 1056 
Q 959 750 1161 570 
Q 1363 391 1709 391 
Q 2188 391 2477 730 
Q 2766 1069 2766 1631 
L 2766 1759 
L 2194 1759 
z
M 3341 1997 
L 3341 0 
L 2766 0 
L 2766 531 
Q 2569 213 2275 61 
Q 1981 -91 1556 -91 
Q 1019 -91 701 211 
Q 384 513 384 1019 
Q 384 1609 779 1909 
Q 1175 2209 1959 2209 
L 2766 2209 
L 2766 2266 
Q 2766 2663 2505 2880 
Q 2244 3097 1772 3097 
Q 1472 3097 1187 3025 
Q 903 2953 641 2809 
L 641 3341 
Q 956 3463 1253 3523 
Q 1550 3584 1831 3584 
Q 2591 3584 2966 3190 
Q 3341 2797 3341 1997 
z
" transform="scale(0.015625)"/>
       <path id="DejaVuSans-74" d="M 1172 4494 
L 1172 3500 
L 2356 3500 
L 2356 3053 
L 1172 3053 
L 1172 1153 
Q 1172 725 1289 603 
Q 1406 481 1766 481 
L 2356 481 
L 2356 0 
L 1766 0 
Q 1100 0 847 248 
Q 594 497 594 1153 
L 594 3053 
L 172 3053 
L 172 3500 
L 594 3500 
L 594 4494 
L 1172 4494 
z
" transform="scale(0.015625)"/>
       <path id="DejaVuSans-6f" d="M 1959 3097 
Q 1497 3097 1228 2736 
Q 959 2375 959 1747 
Q 959 1119 1226 758 
Q 1494 397 1959 397 
Q 2419 397 2687 759 
Q 2956 1122 2956 1747 
Q 2956 2369 2687 2733 
Q 2419 3097 1959 3097 
z
M 1959 3584 
Q 2709 3584 3137 3096 
Q 3566 2609 3566 1747 
Q 3566 888 3137 398 
Q 2709 -91 1959 -91 
Q 1206 -91 779 398 
Q 353 888 353 1747 
Q 353 2609 779 3096 
Q 1206 3584 1959 3584 
z
" transform="scale(0.015625)"/>
       <path id="DejaVuSans-6e" d="M 3513 2113 
L 3513 0 
L 2938 0 
L 2938 2094 
Q 2938 2591 2744 2837 
Q 2550 3084 2163 3084 
Q 1697 3084 1428 2787 
Q 1159 2491 1159 1978 
L 1159 0 
L 581 0 
L 581 3500 
L 1159 3500 
L 1159 2956 
Q 1366 3272 1645 3428 
Q 1925 3584 2291 3584 
Q 2894 3584 3203 3211 
Q 3513 2838 3513 2113 
z
" transform="scale(0.015625)"/>
       <path id="DejaVuSans-20" transform="scale(0.015625)"/>
       <path id="DejaVuSans-49" d="M 628 4666 
L 1259 4666 
L 1259 0 
L 628 0 
L 628 4666 
z
" transform="scale(0.015625)"/>
       <path id="DejaVuSans-65" d="M 3597 1894 
L 3597 1613 
L 953 1613 
Q 991 1019 1311 708 
Q 1631 397 2203 397 
Q 2534 397 2845 478 
Q 3156 559 3463 722 
L 3463 178 
Q 3153 47 2828 -22 
Q 2503 -91 2169 -91 
Q 1331 -91 842 396 
Q 353 884 353 1716 
Q 353 2575 817 3079 
Q 1281 3584 2069 3584 
Q 2775 3584 3186 3129 
Q 3597 2675 3597 1894 
z
M 3022 2063 
Q 3016 2534 2758 2815 
Q 2500 3097 2075 3097 
Q 1594 3097 1305 2825 
Q 1016 2553 972 2059 
L 3022 2063 
z
" transform="scale(0.015625)"/>
      </defs>
      <use xlink:href="#DejaVuSans-50"/>
      <use xlink:href="#DejaVuSans-75" transform="translate(58.552734 0)"/>
      <use xlink:href="#DejaVuSans-72" transform="translate(121.931641 0)"/>
      <use xlink:href="#DejaVuSans-69" transform="translate(163.044922 0)"/>
      <use xlink:href="#DejaVuSans-66" transform="translate(190.828125 0)"/>
      <use xlink:href="#DejaVuSans-69" transform="translate(226.033203 0)"/>
      <use xlink:href="#DejaVuSans-63" transform="translate(253.816406 0)"/>
      <use xlink:href="#DejaVuSans-61" transform="translate(308.796875 0)"/>
      <use xlink:href="#DejaVuSans-74" transform="translate(370.076172 0)"/>
      <use xlink:href="#DejaVuSans-69" transform="translate(409.285156 0)"/>
      <use xlink:href="#DejaVuSans-6f" transform="translate(437.068359 0)"/>
      <use xlink:href="#DejaVuSans-6e" transform="translate(498.25 0)"/>
      <use xlink:href="#DejaVuSans-20" transform="translate(561.628906 0)"/>
      <use xlink:href="#DejaVuSans-49" transform="translate(593.416016 0)"/>
      <use xlink:href="#DejaVuSans-74" transform="translate(622.908203 0)"/>
      <use xlink:href="#DejaVuSans-65" transform="translate(662.117188 0)"/>
      <use xlink:href="#DejaVuSans-72" transform="translate(723.640625 0)"/>
      <use xlink:href="#DejaVuSans-61" transform="translate(764.753906 0)"/>
      <use xlink:href="#DejaVuSans-74" transform="translate(826.033203 0)"/>
      <use xlink:href="#DejaVuSans-69" transform="translate(865.242188 0)"/>
      <use xlink:href="#DejaVuSans-6f" transform="translate(893.025391 0)"/>
      <use xlink:href="#DejaVuSans-6e" transform="translate(954.207031 0)"/>
     </g>
    </g>
   </g>
   <g id="matplotlib.axis_2">
    <g id="ytick_1">
     <g id="line2d_11">
      <path d="M 90 379.02212 
L 648 379.02212 
" clip-path="url(#p66523d7111)" style="fill: none; stroke-dasharray: 0.8,1.32; stroke-dashoffset: 0; stroke: #b0b0b0; stroke-width: 0.8"/>
     </g>
     <g id="line2d_12">
      <defs>
       <path id="mca100cfcc4" d="M 0 0 
L -3.5 0 
" style="stroke: #000000; stroke-width: 0.8"/>
      </defs>
      <g>
       <use xlink:href="#mca100cfcc4" x="90" y="379.02212" style="stroke: #000000; stroke-width: 0.8"/>
      </g>
     </g>
     <g id="text_7">
      <!-- 0.2 -->
      <g transform="translate(67.096875 382.821338) scale(0.1 -0.1)">
       <defs>
        <path id="DejaVuSans-2e" d="M 684 794 
L 1344 794 
L 1344 0 
L 684 0 
L 684 794 
z
" transform="scale(0.015625)"/>
       </defs>
       <use xlink:href="#DejaVuSans-30"/>
       <use xlink:href="#DejaVuSans-2e" transform="translate(63.623047 0)"/>
       <use xlink:href="#DejaVuSans-32" transform="translate(95.410156 0)"/>
      </g>
     </g>
    </g>
    <g id="ytick_2">
     <g id="line2d_13">
      <path d="M 90 339.297408 
L 648 339.297408 
" clip-path="url(#p66523d7111)" style="fill: none; stroke-dasharray: 0.8,1.32; stroke-dashoffset: 0; stroke: #b0b0b0; stroke-width: 0.8"/>
     </g>
     <g id="line2d_14">
      <g>
       <use xlink:href="#mca100cfcc4" x="90" y="339.297408" style="stroke: #000000; stroke-width: 0.8"/>
      </g>
     </g>
     <g id="text_8">
      <!-- 0.3 -->
      <g transform="translate(67.096875 343.096627) scale(0.1 -0.1)">
       <defs>
        <path id="DejaVuSans-33" d="M 2597 2516 
Q 3050 2419 3304 2112 
Q 3559 1806 3559 1356 
Q 3559 666 3084 287 
Q 2609 -91 1734 -91 
Q 1441 -91 1130 -33 
Q 819 25 488 141 
L 488 750 
Q 750 597 1062 519 
Q 1375 441 1716 441 
Q 2309 441 2620 675 
Q 2931 909 2931 1356 
Q 2931 1769 2642 2001 
Q 2353 2234 1838 2234 
L 1294 2234 
L 1294 2753 
L 1863 2753 
Q 2328 2753 2575 2939 
Q 2822 3125 2822 3475 
Q 2822 3834 2567 4026 
Q 2313 4219 1838 4219 
Q 1578 4219 1281 4162 
Q 984 4106 628 3988 
L 628 4550 
Q 988 4650 1302 4700 
Q 1616 4750 1894 4750 
Q 2613 4750 3031 4423 
Q 3450 4097 3450 3541 
Q 3450 3153 3228 2886 
Q 3006 2619 2597 2516 
z
" transform="scale(0.015625)"/>
       </defs>
       <use xlink:href="#DejaVuSans-30"/>
       <use xlink:href="#DejaVuSans-2e" transform="translate(63.623047 0)"/>
       <use xlink:href="#DejaVuSans-33" transform="translate(95.410156 0)"/>
      </g>
     </g>
    </g>
    <g id="ytick_3">
     <g id="line2d_15">
      <path d="M 90 299.572697 
L 648 299.572697 
" clip-path="url(#p66523d7111)" style="fill: none; stroke-dasharray: 0.8,1.32; stroke-dashoffset: 0; stroke: #b0b0b0; stroke-width: 0.8"/>
     </g>
     <g id="line2d_16">
      <g>
       <use xlink:href="#mca100cfcc4" x="90" y="299.572697" style="stroke: #000000; stroke-width: 0.8"/>
      </g>
     </g>
     <g id="text_9">
      <!-- 0.4 -->
      <g transform="translate(67.096875 303.371916) scale(0.1 -0.1)">
       <use xlink:href="#DejaVuSans-30"/>
       <use xlink:href="#DejaVuSans-2e" transform="translate(63.623047 0)"/>
       <use xlink:href="#DejaVuSans-34" transform="translate(95.410156 0)"/>
      </g>
     </g>
    </g>
    <g id="ytick_4">
     <g id="line2d_17">
      <path d="M 90 259.847986 
L 648 259.847986 
" clip-path="url(#p66523d7111)" style="fill: none; stroke-dasharray: 0.8,1.32; stroke-dashoffset: 0; stroke: #b0b0b0; stroke-width: 0.8"/>
     </g>
     <g id="line2d_18">
      <g>
       <use xlink:href="#mca100cfcc4" x="90" y="259.847986" style="stroke: #000000; stroke-width: 0.8"/>
      </g>
     </g>
     <g id="text_10">
      <!-- 0.5 -->
      <g transform="translate(67.096875 263.647205) scale(0.1 -0.1)">
       <defs>
        <path id="DejaVuSans-35" d="M 691 4666 
L 3169 4666 
L 3169 4134 
L 1269 4134 
L 1269 2991 
Q 1406 3038 1543 3061 
Q 1681 3084 1819 3084 
Q 2600 3084 3056 2656 
Q 3513 2228 3513 1497 
Q 3513 744 3044 326 
Q 2575 -91 1722 -91 
Q 1428 -91 1123 -41 
Q 819 9 494 109 
L 494 744 
Q 775 591 1075 516 
Q 1375 441 1709 441 
Q 2250 441 2565 725 
Q 2881 1009 2881 1497 
Q 2881 1984 2565 2268 
Q 2250 2553 1709 2553 
Q 1456 2553 1204 2497 
Q 953 2441 691 2322 
L 691 4666 
z
" transform="scale(0.015625)"/>
       </defs>
       <use xlink:href="#DejaVuSans-30"/>
       <use xlink:href="#DejaVuSans-2e" transform="translate(63.623047 0)"/>
       <use xlink:href="#DejaVuSans-35" transform="translate(95.410156 0)"/>
      </g>
     </g>
    </g>
    <g id="ytick_5">
     <g id="line2d_19">
      <path d="M 90 220.123275 
L 648 220.123275 
" clip-path="url(#p66523d7111)" style="fill: none; stroke-dasharray: 0.8,1.32; stroke-dashoffset: 0; stroke: #b0b0b0; stroke-width: 0.8"/>
     </g>
     <g id="line2d_20">
      <g>
       <use xlink:href="#mca100cfcc4" x="90" y="220.123275" style="stroke: #000000; stroke-width: 0.8"/>
      </g>
     </g>
     <g id="text_11">
      <!-- 0.6 -->
      <g transform="translate(67.096875 223.922493) scale(0.1 -0.1)">
       <use xlink:href="#DejaVuSans-30"/>
       <use xlink:href="#DejaVuSans-2e" transform="translate(63.623047 0)"/>
       <use xlink:href="#DejaVuSans-36" transform="translate(95.410156 0)"/>
      </g>
     </g>
    </g>
    <g id="ytick_6">
     <g id="line2d_21">
      <path d="M 90 180.398563 
L 648 180.398563 
" clip-path="url(#p66523d7111)" style="fill: none; stroke-dasharray: 0.8,1.32; stroke-dashoffset: 0; stroke: #b0b0b0; stroke-width: 0.8"/>
     </g>
     <g id="line2d_22">
      <g>
       <use xlink:href="#mca100cfcc4" x="90" y="180.398563" style="stroke: #000000; stroke-width: 0.8"/>
      </g>
     </g>
     <g id="text_12">
      <!-- 0.7 -->
      <g transform="translate(67.096875 184.197782) scale(0.1 -0.1)">
       <defs>
        <path id="DejaVuSans-37" d="M 525 4666 
L 3525 4666 
L 3525 4397 
L 1831 0 
L 1172 0 
L 2766 4134 
L 525 4134 
L 525 4666 
z
" transform="scale(0.015625)"/>
       </defs>
       <use xlink:href="#DejaVuSans-30"/>
       <use xlink:href="#DejaVuSans-2e" transform="translate(63.623047 0)"/>
       <use xlink:href="#DejaVuSans-37" transform="translate(95.410156 0)"/>
      </g>
     </g>
    </g>
    <g id="ytick_7">
     <g id="line2d_23">
      <path d="M 90 140.673852 
L 648 140.673852 
" clip-path="url(#p66523d7111)" style="fill: none; stroke-dasharray: 0.8,1.32; stroke-dashoffset: 0; stroke: #b0b0b0; stroke-width: 0.8"/>
     </g>
     <g id="line2d_24">
      <g>
       <use xlink:href="#mca100cfcc4" x="90" y="140.673852" style="stroke: #000000; stroke-width: 0.8"/>
      </g>
     </g>
     <g id="text_13">
      <!-- 0.8 -->
      <g transform="translate(67.096875 144.473071) scale(0.1 -0.1)">
       <use xlink:href="#DejaVuSans-30"/>
       <use xlink:href="#DejaVuSans-2e" transform="translate(63.623047 0)"/>
       <use xlink:href="#DejaVuSans-38" transform="translate(95.410156 0)"/>
      </g>
     </g>
    </g>
    <g id="ytick_8">
     <g id="line2d_25">
      <path d="M 90 100.949141 
L 648 100.949141 
" clip-path="url(#p66523d7111)" style="fill: none; stroke-dasharray: 0.8,1.32; stroke-dashoffset: 0; stroke: #b0b0b0; stroke-width: 0.8"/>
     </g>
     <g id="line2d_26">
      <g>
       <use xlink:href="#mca100cfcc4" x="90" y="100.949141" style="stroke: #000000; stroke-width: 0.8"/>
      </g>
     </g>
     <g id="text_14">
      <!-- 0.9 -->
      <g transform="translate(67.096875 104.74836) scale(0.1 -0.1)">
       <defs>
        <path id="DejaVuSans-39" d="M 703 97 
L 703 672 
Q 941 559 1184 500 
Q 1428 441 1663 441 
Q 2288 441 2617 861 
Q 2947 1281 2994 2138 
Q 2813 1869 2534 1725 
Q 2256 1581 1919 1581 
Q 1219 1581 811 2004 
Q 403 2428 403 3163 
Q 403 3881 828 4315 
Q 1253 4750 1959 4750 
Q 2769 4750 3195 4129 
Q 3622 3509 3622 2328 
Q 3622 1225 3098 567 
Q 2575 -91 1691 -91 
Q 1453 -91 1209 -44 
Q 966 3 703 97 
z
M 1959 2075 
Q 2384 2075 2632 2365 
Q 2881 2656 2881 3163 
Q 2881 3666 2632 3958 
Q 2384 4250 1959 4250 
Q 1534 4250 1286 3958 
Q 1038 3666 1038 3163 
Q 1038 2656 1286 2365 
Q 1534 2075 1959 2075 
z
" transform="scale(0.015625)"/>
       </defs>
       <use xlink:href="#DejaVuSans-30"/>
       <use xlink:href="#DejaVuSans-2e" transform="translate(63.623047 0)"/>
       <use xlink:href="#DejaVuSans-39" transform="translate(95.410156 0)"/>
      </g>
     </g>
    </g>
    <g id="ytick_9">
     <g id="line2d_27">
      <path d="M 90 61.22443 
L 648 61.22443 
" clip-path="url(#p66523d7111)" style="fill: none; stroke-dasharray: 0.8,1.32; stroke-dashoffset: 0; stroke: #b0b0b0; stroke-width: 0.8"/>
     </g>
     <g id="line2d_28">
      <g>
       <use xlink:href="#mca100cfcc4" x="90" y="61.22443" style="stroke: #000000; stroke-width: 0.8"/>
      </g>
     </g>
     <g id="text_15">
      <!-- 1.0 -->
      <g transform="translate(67.096875 65.023648) scale(0.1 -0.1)">
       <use xlink:href="#DejaVuSans-31"/>
       <use xlink:href="#DejaVuSans-2e" transform="translate(63.623047 0)"/>
       <use xlink:href="#DejaVuSans-30" transform="translate(95.410156 0)"/>
      </g>
     </g>
    </g>
    <g id="text_16">
     <!-- Fidelity -->
     <g transform="translate(61.017187 236.010781) rotate(-90) scale(0.1 -0.1)">
      <defs>
       <path id="DejaVuSans-46" d="M 628 4666 
L 3309 4666 
L 3309 4134 
L 1259 4134 
L 1259 2759 
L 3109 2759 
L 3109 2228 
L 1259 2228 
L 1259 0 
L 628 0 
L 628 4666 
z
" transform="scale(0.015625)"/>
       <path id="DejaVuSans-64" d="M 2906 2969 
L 2906 4863 
L 3481 4863 
L 3481 0 
L 2906 0 
L 2906 525 
Q 2725 213 2448 61 
Q 2172 -91 1784 -91 
Q 1150 -91 751 415 
Q 353 922 353 1747 
Q 353 2572 751 3078 
Q 1150 3584 1784 3584 
Q 2172 3584 2448 3432 
Q 2725 3281 2906 2969 
z
M 947 1747 
Q 947 1113 1208 752 
Q 1469 391 1925 391 
Q 2381 391 2643 752 
Q 2906 1113 2906 1747 
Q 2906 2381 2643 2742 
Q 2381 3103 1925 3103 
Q 1469 3103 1208 2742 
Q 947 2381 947 1747 
z
" transform="scale(0.015625)"/>
       <path id="DejaVuSans-6c" d="M 603 4863 
L 1178 4863 
L 1178 0 
L 603 0 
L 603 4863 
z
" transform="scale(0.015625)"/>
       <path id="DejaVuSans-79" d="M 2059 -325 
Q 1816 -950 1584 -1140 
Q 1353 -1331 966 -1331 
L 506 -1331 
L 506 -850 
L 844 -850 
Q 1081 -850 1212 -737 
Q 1344 -625 1503 -206 
L 1606 56 
L 191 3500 
L 800 3500 
L 1894 763 
L 2988 3500 
L 3597 3500 
L 2059 -325 
z
" transform="scale(0.015625)"/>
      </defs>
      <use xlink:href="#DejaVuSans-46"/>
      <use xlink:href="#DejaVuSans-69" transform="translate(50.269531 0)"/>
      <use xlink:href="#DejaVuSans-64" transform="translate(78.052734 0)"/>
      <use xlink:href="#DejaVuSans-65" transform="translate(141.529297 0)"/>
      <use xlink:href="#DejaVuSans-6c" transform="translate(203.052734 0)"/>
      <use xlink:href="#DejaVuSans-69" transform="translate(230.835938 0)"/>
      <use xlink:href="#DejaVuSans-74" transform="translate(258.619141 0)"/>
      <use xlink:href="#DejaVuSans-79" transform="translate(297.828125 0)"/>
     </g>
    </g>
   </g>
   <g id="line2d_29">
    <path d="M 115.363636 145.440817 
L 171.727273 117.349749 
L 228.090909 83.224388 
L 284.454545 66.96 
" clip-path="url(#p66523d7111)" style="fill: none; stroke: #1f77b4; stroke-width: 1.5; stroke-linecap: square"/>
    <defs>
     <path id="m3c776d6396" d="M 0 3 
C 0.795609 3 1.55874 2.683901 2.12132 2.12132 
C 2.683901 1.55874 3 0.795609 3 0 
C 3 -0.795609 2.683901 -1.55874 2.12132 -2.12132 
C 1.55874 -2.683901 0.795609 -3 0 -3 
C -0.795609 -3 -1.55874 -2.683901 -2.12132 -2.12132 
C -2.683901 -1.55874 -3 -0.795609 -3 0 
C -3 0.795609 -2.683901 1.55874 -2.12132 2.12132 
C -1.55874 2.683901 -0.795609 3 0 3 
z
" style="stroke: #1f77b4"/>
    </defs>
    <g clip-path="url(#p66523d7111)">
     <use xlink:href="#m3c776d6396" x="115.363636" y="145.440817" style="fill: #1f77b4; stroke: #1f77b4"/>
     <use xlink:href="#m3c776d6396" x="171.727273" y="117.349749" style="fill: #1f77b4; stroke: #1f77b4"/>
     <use xlink:href="#m3c776d6396" x="228.090909" y="83.224388" style="fill: #1f77b4; stroke: #1f77b4"/>
     <use xlink:href="#m3c776d6396" x="284.454545" y="66.96" style="fill: #1f77b4; stroke: #1f77b4"/>
    </g>
   </g>
   <g id="line2d_30">
    <path d="M 115.363636 173.682686 
L 171.727273 173.94794 
L 228.090909 168.401059 
L 284.454545 164.661658 
L 340.818182 161.666513 
L 397.181818 157.80332 
L 453.545455 154.80533 
L 509.909091 152.031718 
L 566.272727 149.517551 
L 622.636364 147.462056 
" clip-path="url(#p66523d7111)" style="fill: none; stroke: #ff7f0e; stroke-width: 1.5; stroke-linecap: square"/>
    <defs>
     <path id="m3cac2b0c68" d="M 0 3 
C 0.795609 3 1.55874 2.683901 2.12132 2.12132 
C 2.683901 1.55874 3 0.795609 3 0 
C 3 -0.795609 2.683901 -1.55874 2.12132 -2.12132 
C 1.55874 -2.683901 0.795609 -3 0 -3 
C -0.795609 -3 -1.55874 -2.683901 -2.12132 -2.12132 
C -2.683901 -1.55874 -3 -0.795609 -3 0 
C -3 0.795609 -2.683901 1.55874 -2.12132 2.12132 
C -1.55874 2.683901 -0.795609 3 0 3 
z
" style="stroke: #ff7f0e"/>
    </defs>
    <g clip-path="url(#p66523d7111)">
     <use xlink:href="#m3cac2b0c68" x="115.363636" y="173.682686" style="fill: #ff7f0e; stroke: #ff7f0e"/>
     <use xlink:href="#m3cac2b0c68" x="171.727273" y="173.94794" style="fill: #ff7f0e; stroke: #ff7f0e"/>
     <use xlink:href="#m3cac2b0c68" x="228.090909" y="168.401059" style="fill: #ff7f0e; stroke: #ff7f0e"/>
     <use xlink:href="#m3cac2b0c68" x="284.454545" y="164.661658" style="fill: #ff7f0e; stroke: #ff7f0e"/>
     <use xlink:href="#m3cac2b0c68" x="340.818182" y="161.666513" style="fill: #ff7f0e; stroke: #ff7f0e"/>
     <use xlink:href="#m3cac2b0c68" x="397.181818" y="157.80332" style="fill: #ff7f0e; stroke: #ff7f0e"/>
     <use xlink:href="#m3cac2b0c68" x="453.545455" y="154.80533" style="fill: #ff7f0e; stroke: #ff7f0e"/>
     <use xlink:href="#m3cac2b0c68" x="509.909091" y="152.031718" style="fill: #ff7f0e; stroke: #ff7f0e"/>
     <use xlink:href="#m3cac2b0c68" x="566.272727" y="149.517551" style="fill: #ff7f0e; stroke: #ff7f0e"/>
     <use xlink:href="#m3cac2b0c68" x="622.636364" y="147.462056" style="fill: #ff7f0e; stroke: #ff7f0e"/>
    </g>
   </g>
   <g id="line2d_31">
    <path d="M 115.363636 198.274726 
L 171.727273 220.081391 
L 228.090909 239.930036 
L 284.454545 261.91086 
L 340.818182 285.63794 
L 397.181818 310.335257 
L 453.545455 332.536877 
L 509.909091 348.685757 
L 566.272727 356.970272 
L 622.636364 359.46885 
" clip-path="url(#p66523d7111)" style="fill: none; stroke: #2ca02c; stroke-width: 1.5; stroke-linecap: square"/>
    <defs>
     <path id="m3a4eeec573" d="M 0 3 
C 0.795609 3 1.55874 2.683901 2.12132 2.12132 
C 2.683901 1.55874 3 0.795609 3 0 
C 3 -0.795609 2.683901 -1.55874 2.12132 -2.12132 
C 1.55874 -2.683901 0.795609 -3 0 -3 
C -0.795609 -3 -1.55874 -2.683901 -2.12132 -2.12132 
C -2.683901 -1.55874 -3 -0.795609 -3 0 
C -3 0.795609 -2.683901 1.55874 -2.12132 2.12132 
C -1.55874 2.683901 -0.795609 3 0 3 
z
" style="stroke: #2ca02c"/>
    </defs>
    <g clip-path="url(#p66523d7111)">
     <use xlink:href="#m3a4eeec573" x="115.363636" y="198.274726" style="fill: #2ca02c; stroke: #2ca02c"/>
     <use xlink:href="#m3a4eeec573" x="171.727273" y="220.081391" style="fill: #2ca02c; stroke: #2ca02c"/>
     <use xlink:href="#m3a4eeec573" x="228.090909" y="239.930036" style="fill: #2ca02c; stroke: #2ca02c"/>
     <use xlink:href="#m3a4eeec573" x="284.454545" y="261.91086" style="fill: #2ca02c; stroke: #2ca02c"/>
     <use xlink:href="#m3a4eeec573" x="340.818182" y="285.63794" style="fill: #2ca02c; stroke: #2ca02c"/>
     <use xlink:href="#m3a4eeec573" x="397.181818" y="310.335257" style="fill: #2ca02c; stroke: #2ca02c"/>
     <use xlink:href="#m3a4eeec573" x="453.545455" y="332.536877" style="fill: #2ca02c; stroke: #2ca02c"/>
     <use xlink:href="#m3a4eeec573" x="509.909091" y="348.685757" style="fill: #2ca02c; stroke: #2ca02c"/>
     <use xlink:href="#m3a4eeec573" x="566.272727" y="356.970272" style="fill: #2ca02c; stroke: #2ca02c"/>
     <use xlink:href="#m3a4eeec573" x="622.636364" y="359.46885" style="fill: #2ca02c; stroke: #2ca02c"/>
    </g>
   </g>
   <g id="line2d_32">
    <path d="M 115.363636 219.768564 
L 171.727273 256.650524 
L 228.090909 290.740171 
L 284.454545 321.100555 
L 340.818182 343.596101 
L 397.181818 356.056603 
L 453.545455 359.996491 
L 509.909091 360.61071 
L 566.272727 360.627958 
L 622.636364 360.627327 
" clip-path="url(#p66523d7111)" style="fill: none; stroke: #d62728; stroke-width: 1.5; stroke-linecap: square"/>
    <defs>
     <path id="m8b78862d96" d="M 0 3 
C 0.795609 3 1.55874 2.683901 2.12132 2.12132 
C 2.683901 1.55874 3 0.795609 3 0 
C 3 -0.795609 2.683901 -1.55874 2.12132 -2.12132 
C 1.55874 -2.683901 0.795609 -3 0 -3 
C -0.795609 -3 -1.55874 -2.683901 -2.12132 -2.12132 
C -2.683901 -1.55874 -3 -0.795609 -3 0 
C -3 0.795609 -2.683901 1.55874 -2.12132 2.12132 
C -1.55874 2.683901 -0.795609 3 0 3 
z
" style="stroke: #d62728"/>
    </defs>
    <g clip-path="url(#p66523d7111)">
     <use xlink:href="#m8b78862d96" x="115.363636" y="219.768564" style="fill: #d62728; stroke: #d62728"/>
     <use xlink:href="#m8b78862d96" x="171.727273" y="256.650524" style="fill: #d62728; stroke: #d62728"/>
     <use xlink:href="#m8b78862d96" x="228.090909" y="290.740171" style="fill: #d62728; stroke: #d62728"/>
     <use xlink:href="#m8b78862d96" x="284.454545" y="321.100555" style="fill: #d62728; stroke: #d62728"/>
     <use xlink:href="#m8b78862d96" x="340.818182" y="343.596101" style="fill: #d62728; stroke: #d62728"/>
     <use xlink:href="#m8b78862d96" x="397.181818" y="356.056603" style="fill: #d62728; stroke: #d62728"/>
     <use xlink:href="#m8b78862d96" x="453.545455" y="359.996491" style="fill: #d62728; stroke: #d62728"/>
     <use xlink:href="#m8b78862d96" x="509.909091" y="360.61071" style="fill: #d62728; stroke: #d62728"/>
     <use xlink:href="#m8b78862d96" x="566.272727" y="360.627958" style="fill: #d62728; stroke: #d62728"/>
     <use xlink:href="#m8b78862d96" x="622.636364" y="360.627327" style="fill: #d62728; stroke: #d62728"/>
    </g>
   </g>
   <g id="line2d_33">
    <path d="M 115.363636 238.628678 
L 171.727273 285.053697 
L 228.090909 322.933779 
L 284.454545 347.548366 
L 340.818182 358.590779 
L 397.181818 361.43054 
L 453.545455 361.656106 
L 509.909091 361.65112 
L 566.272727 361.652172 
L 622.636364 361.652365 
" clip-path="url(#p66523d7111)" style="fill: none; stroke: #9467bd; stroke-width: 1.5; stroke-linecap: square"/>
    <defs>
     <path id="m5243040be2" d="M 0 3 
C 0.795609 3 1.55874 2.683901 2.12132 2.12132 
C 2.683901 1.55874 3 0.795609 3 0 
C 3 -0.795609 2.683901 -1.55874 2.12132 -2.12132 
C 1.55874 -2.683901 0.795609 -3 0 -3 
C -0.795609 -3 -1.55874 -2.683901 -2.12132 -2.12132 
C -2.683901 -1.55874 -3 -0.795609 -3 0 
C -3 0.795609 -2.683901 1.55874 -2.12132 2.12132 
C -1.55874 2.683901 -0.795609 3 0 3 
z
" style="stroke: #9467bd"/>
    </defs>
    <g clip-path="url(#p66523d7111)">
     <use xlink:href="#m5243040be2" x="115.363636" y="238.628678" style="fill: #9467bd; stroke: #9467bd"/>
     <use xlink:href="#m5243040be2" x="171.727273" y="285.053697" style="fill: #9467bd; stroke: #9467bd"/>
     <use xlink:href="#m5243040be2" x="228.090909" y="322.933779" style="fill: #9467bd; stroke: #9467bd"/>
     <use xlink:href="#m5243040be2" x="284.454545" y="347.548366" style="fill: #9467bd; stroke: #9467bd"/>
     <use xlink:href="#m5243040be2" x="340.818182" y="358.590779" style="fill: #9467bd; stroke: #9467bd"/>
     <use xlink:href="#m5243040be2" x="397.181818" y="361.43054" style="fill: #9467bd; stroke: #9467bd"/>
     <use xlink:href="#m5243040be2" x="453.545455" y="361.656106" style="fill: #9467bd; stroke: #9467bd"/>
     <use xlink:href="#m5243040be2" x="509.909091" y="361.65112" style="fill: #9467bd; stroke: #9467bd"/>
     <use xlink:href="#m5243040be2" x="566.272727" y="361.652172" style="fill: #9467bd; stroke: #9467bd"/>
     <use xlink:href="#m5243040be2" x="622.636364" y="361.652365" style="fill: #9467bd; stroke: #9467bd"/>
    </g>
   </g>
   <g id="line2d_34">
    <path d="M 115.363636 255.246235 
L 171.727273 306.839715 
L 228.090909 342.158906 
L 284.454545 358.251394 
L 340.818182 362.481896 
L 397.181818 362.892287 
L 453.545455 362.880544 
L 509.909091 362.882846 
L 566.272727 362.883352 
L 622.636364 362.883338 
" clip-path="url(#p66523d7111)" style="fill: none; stroke: #8c564b; stroke-width: 1.5; stroke-linecap: square"/>
    <defs>
     <path id="ma767f886ce" d="M 0 3 
C 0.795609 3 1.55874 2.683901 2.12132 2.12132 
C 2.683901 1.55874 3 0.795609 3 0 
C 3 -0.795609 2.683901 -1.55874 2.12132 -2.12132 
C 1.55874 -2.683901 0.795609 -3 0 -3 
C -0.795609 -3 -1.55874 -2.683901 -2.12132 -2.12132 
C -2.683901 -1.55874 -3 -0.795609 -3 0 
C -3 0.795609 -2.683901 1.55874 -2.12132 2.12132 
C -1.55874 2.683901 -0.795609 3 0 3 
z
" style="stroke: #8c564b"/>
    </defs>
    <g clip-path="url(#p66523d7111)">
     <use xlink:href="#ma767f886ce" x="115.363636" y="255.246235" style="fill: #8c564b; stroke: #8c564b"/>
     <use xlink:href="#ma767f886ce" x="171.727273" y="306.839715" style="fill: #8c564b; stroke: #8c564b"/>
     <use xlink:href="#ma767f886ce" x="228.090909" y="342.158906" style="fill: #8c564b; stroke: #8c564b"/>
     <use xlink:href="#ma767f886ce" x="284.454545" y="358.251394" style="fill: #8c564b; stroke: #8c564b"/>
     <use xlink:href="#ma767f886ce" x="340.818182" y="362.481896" style="fill: #8c564b; stroke: #8c564b"/>
     <use xlink:href="#ma767f886ce" x="397.181818" y="362.892287" style="fill: #8c564b; stroke: #8c564b"/>
     <use xlink:href="#ma767f886ce" x="453.545455" y="362.880544" style="fill: #8c564b; stroke: #8c564b"/>
     <use xlink:href="#ma767f886ce" x="509.909091" y="362.882846" style="fill: #8c564b; stroke: #8c564b"/>
     <use xlink:href="#ma767f886ce" x="566.272727" y="362.883352" style="fill: #8c564b; stroke: #8c564b"/>
     <use xlink:href="#ma767f886ce" x="622.636364" y="362.883338" style="fill: #8c564b; stroke: #8c564b"/>
    </g>
   </g>
   <g id="line2d_35">
    <path d="M 115.363636 269.950838 
L 171.727273 323.469286 
L 228.090909 353.50159 
L 284.454545 362.922823 
L 340.818182 364.288188 
L 397.181818 364.288103 
L 453.545455 364.289211 
L 509.909091 364.291135 
L 566.272727 364.291137 
L 622.636364 364.29114 
" clip-path="url(#p66523d7111)" style="fill: none; stroke: #e377c2; stroke-width: 1.5; stroke-linecap: square"/>
    <defs>
     <path id="m238059a09c" d="M 0 3 
C 0.795609 3 1.55874 2.683901 2.12132 2.12132 
C 2.683901 1.55874 3 0.795609 3 0 
C 3 -0.795609 2.683901 -1.55874 2.12132 -2.12132 
C 1.55874 -2.683901 0.795609 -3 0 -3 
C -0.795609 -3 -1.55874 -2.683901 -2.12132 -2.12132 
C -2.683901 -1.55874 -3 -0.795609 -3 0 
C -3 0.795609 -2.683901 1.55874 -2.12132 2.12132 
C -1.55874 2.683901 -0.795609 3 0 3 
z
" style="stroke: #e377c2"/>
    </defs>
    <g clip-path="url(#p66523d7111)">
     <use xlink:href="#m238059a09c" x="115.363636" y="269.950838" style="fill: #e377c2; stroke: #e377c2"/>
     <use xlink:href="#m238059a09c" x="171.727273" y="323.469286" style="fill: #e377c2; stroke: #e377c2"/>
     <use xlink:href="#m238059a09c" x="228.090909" y="353.50159" style="fill: #e377c2; stroke: #e377c2"/>
     <use xlink:href="#m238059a09c" x="284.454545" y="362.922823" style="fill: #e377c2; stroke: #e377c2"/>
     <use xlink:href="#m238059a09c" x="340.818182" y="364.288188" style="fill: #e377c2; stroke: #e377c2"/>
     <use xlink:href="#m238059a09c" x="397.181818" y="364.288103" style="fill: #e377c2; stroke: #e377c2"/>
     <use xlink:href="#m238059a09c" x="453.545455" y="364.289211" style="fill: #e377c2; stroke: #e377c2"/>
     <use xlink:href="#m238059a09c" x="509.909091" y="364.291135" style="fill: #e377c2; stroke: #e377c2"/>
     <use xlink:href="#m238059a09c" x="566.272727" y="364.291137" style="fill: #e377c2; stroke: #e377c2"/>
     <use xlink:href="#m238059a09c" x="622.636364" y="364.29114" style="fill: #e377c2; stroke: #e377c2"/>
    </g>
   </g>
   <g id="line2d_36">
    <path d="M 115.363636 283.02029 
L 171.727273 336.193949 
L 228.090909 360.396576 
L 284.454545 365.525727 
L 340.818182 365.86647 
L 397.181818 365.844071 
L 453.545455 365.849792 
L 509.909091 365.850375 
L 566.272727 365.85034 
L 622.636364 365.850351 
" clip-path="url(#p66523d7111)" style="fill: none; stroke: #7f7f7f; stroke-width: 1.5; stroke-linecap: square"/>
    <defs>
     <path id="m15bc82e0bc" d="M 0 3 
C 0.795609 3 1.55874 2.683901 2.12132 2.12132 
C 2.683901 1.55874 3 0.795609 3 0 
C 3 -0.795609 2.683901 -1.55874 2.12132 -2.12132 
C 1.55874 -2.683901 0.795609 -3 0 -3 
C -0.795609 -3 -1.55874 -2.683901 -2.12132 -2.12132 
C -2.683901 -1.55874 -3 -0.795609 -3 0 
C -3 0.795609 -2.683901 1.55874 -2.12132 2.12132 
C -1.55874 2.683901 -0.795609 3 0 3 
z
" style="stroke: #7f7f7f"/>
    </defs>
    <g clip-path="url(#p66523d7111)">
     <use xlink:href="#m15bc82e0bc" x="115.363636" y="283.02029" style="fill: #7f7f7f; stroke: #7f7f7f"/>
     <use xlink:href="#m15bc82e0bc" x="171.727273" y="336.193949" style="fill: #7f7f7f; stroke: #7f7f7f"/>
     <use xlink:href="#m15bc82e0bc" x="228.090909" y="360.396576" style="fill: #7f7f7f; stroke: #7f7f7f"/>
     <use xlink:href="#m15bc82e0bc" x="284.454545" y="365.525727" style="fill: #7f7f7f; stroke: #7f7f7f"/>
     <use xlink:href="#m15bc82e0bc" x="340.818182" y="365.86647" style="fill: #7f7f7f; stroke: #7f7f7f"/>
     <use xlink:href="#m15bc82e0bc" x="397.181818" y="365.844071" style="fill: #7f7f7f; stroke: #7f7f7f"/>
     <use xlink:href="#m15bc82e0bc" x="453.545455" y="365.849792" style="fill: #7f7f7f; stroke: #7f7f7f"/>
     <use xlink:href="#m15bc82e0bc" x="509.909091" y="365.850375" style="fill: #7f7f7f; stroke: #7f7f7f"/>
     <use xlink:href="#m15bc82e0bc" x="566.272727" y="365.85034" style="fill: #7f7f7f; stroke: #7f7f7f"/>
     <use xlink:href="#m15bc82e0bc" x="622.636364" y="365.850351" style="fill: #7f7f7f; stroke: #7f7f7f"/>
    </g>
   </g>
   <g id="line2d_37">
    <path d="M 115.363636 294.688879 
L 171.727273 346.021374 
L 228.090909 364.890362 
L 284.454545 367.50589 
L 340.818182 367.537061 
L 397.181818 367.534539 
L 453.545455 367.538589 
L 509.909091 367.538647 
L 566.272727 367.538646 
L 622.636364 367.538653 
" clip-path="url(#p66523d7111)" style="fill: none; stroke: #bcbd22; stroke-width: 1.5; stroke-linecap: square"/>
    <defs>
     <path id="m89ee7bcfef" d="M 0 3 
C 0.795609 3 1.55874 2.683901 2.12132 2.12132 
C 2.683901 1.55874 3 0.795609 3 0 
C 3 -0.795609 2.683901 -1.55874 2.12132 -2.12132 
C 1.55874 -2.683901 0.795609 -3 0 -3 
C -0.795609 -3 -1.55874 -2.683901 -2.12132 -2.12132 
C -2.683901 -1.55874 -3 -0.795609 -3 0 
C -3 0.795609 -2.683901 1.55874 -2.12132 2.12132 
C -1.55874 2.683901 -0.795609 3 0 3 
z
" style="stroke: #bcbd22"/>
    </defs>
    <g clip-path="url(#p66523d7111)">
     <use xlink:href="#m89ee7bcfef" x="115.363636" y="294.688879" style="fill: #bcbd22; stroke: #bcbd22"/>
     <use xlink:href="#m89ee7bcfef" x="171.727273" y="346.021374" style="fill: #bcbd22; stroke: #bcbd22"/>
     <use xlink:href="#m89ee7bcfef" x="228.090909" y="364.890362" style="fill: #bcbd22; stroke: #bcbd22"/>
     <use xlink:href="#m89ee7bcfef" x="284.454545" y="367.50589" style="fill: #bcbd22; stroke: #bcbd22"/>
     <use xlink:href="#m89ee7bcfef" x="340.818182" y="367.537061" style="fill: #bcbd22; stroke: #bcbd22"/>
     <use xlink:href="#m89ee7bcfef" x="397.181818" y="367.534539" style="fill: #bcbd22; stroke: #bcbd22"/>
     <use xlink:href="#m89ee7bcfef" x="453.545455" y="367.538589" style="fill: #bcbd22; stroke: #bcbd22"/>
     <use xlink:href="#m89ee7bcfef" x="509.909091" y="367.538647" style="fill: #bcbd22; stroke: #bcbd22"/>
     <use xlink:href="#m89ee7bcfef" x="566.272727" y="367.538646" style="fill: #bcbd22; stroke: #bcbd22"/>
     <use xlink:href="#m89ee7bcfef" x="622.636364" y="367.538653" style="fill: #bcbd22; stroke: #bcbd22"/>
    </g>
   </g>
   <g id="line2d_38">
    <path d="M 115.363636 305.154326 
L 171.727273 353.729661 
L 228.090909 368.130506 
L 284.454545 369.36 
L 340.818182 369.32636 
L 397.181818 369.334322 
L 453.545455 369.336322 
L 509.909091 369.336272 
L 566.272727 369.336287 
L 622.636364 369.336291 
" clip-path="url(#p66523d7111)" style="fill: none; stroke: #17becf; stroke-width: 1.5; stroke-linecap: square"/>
    <defs>
     <path id="m4a6d38c427" d="M 0 3 
C 0.795609 3 1.55874 2.683901 2.12132 2.12132 
C 2.683901 1.55874 3 0.795609 3 0 
C 3 -0.795609 2.683901 -1.55874 2.12132 -2.12132 
C 1.55874 -2.683901 0.795609 -3 0 -3 
C -0.795609 -3 -1.55874 -2.683901 -2.12132 -2.12132 
C -2.683901 -1.55874 -3 -0.795609 -3 0 
C -3 0.795609 -2.683901 1.55874 -2.12132 2.12132 
C -1.55874 2.683901 -0.795609 3 0 3 
z
" style="stroke: #17becf"/>
    </defs>
    <g clip-path="url(#p66523d7111)">
     <use xlink:href="#m4a6d38c427" x="115.363636" y="305.154326" style="fill: #17becf; stroke: #17becf"/>
     <use xlink:href="#m4a6d38c427" x="171.727273" y="353.729661" style="fill: #17becf; stroke: #17becf"/>
     <use xlink:href="#m4a6d38c427" x="228.090909" y="368.130506" style="fill: #17becf; stroke: #17becf"/>
     <use xlink:href="#m4a6d38c427" x="284.454545" y="369.36" style="fill: #17becf; stroke: #17becf"/>
     <use xlink:href="#m4a6d38c427" x="340.818182" y="369.32636" style="fill: #17becf; stroke: #17becf"/>
     <use xlink:href="#m4a6d38c427" x="397.181818" y="369.334322" style="fill: #17becf; stroke: #17becf"/>
     <use xlink:href="#m4a6d38c427" x="453.545455" y="369.336322" style="fill: #17becf; stroke: #17becf"/>
     <use xlink:href="#m4a6d38c427" x="509.909091" y="369.336272" style="fill: #17becf; stroke: #17becf"/>
     <use xlink:href="#m4a6d38c427" x="566.272727" y="369.336287" style="fill: #17becf; stroke: #17becf"/>
     <use xlink:href="#m4a6d38c427" x="622.636364" y="369.336291" style="fill: #17becf; stroke: #17becf"/>
    </g>
   </g>
   <g id="line2d_39">
    <path d="M 90 81.086785 
L 648 81.086785 
" clip-path="url(#p66523d7111)" style="fill: none; stroke-dasharray: 5.55,2.4; stroke-dashoffset: 0; stroke: #ff0000; stroke-width: 1.5"/>
   </g>
   <g id="line2d_40">
    <path d="M 115.363636 384.48 
L 115.363636 51.84 
" clip-path="url(#p66523d7111)" style="fill: none; stroke-dasharray: 1.5,2.475; stroke-dashoffset: 0; stroke: #808080; stroke-opacity: 0.6; stroke-width: 1.5"/>
   </g>
   <g id="line2d_41">
    <path d="M 171.727273 384.48 
L 171.727273 51.84 
" clip-path="url(#p66523d7111)" style="fill: none; stroke-dasharray: 1.5,2.475; stroke-dashoffset: 0; stroke: #808080; stroke-opacity: 0.6; stroke-width: 1.5"/>
   </g>
   <g id="line2d_42">
    <path d="M 228.090909 384.48 
L 228.090909 51.84 
" clip-path="url(#p66523d7111)" style="fill: none; stroke-dasharray: 1.5,2.475; stroke-dashoffset: 0; stroke: #808080; stroke-opacity: 0.6; stroke-width: 1.5"/>
   </g>
   <g id="line2d_43">
    <path d="M 284.454545 384.48 
L 284.454545 51.84 
" clip-path="url(#p66523d7111)" style="fill: none; stroke-dasharray: 1.5,2.475; stroke-dashoffset: 0; stroke: #808080; stroke-opacity: 0.6; stroke-width: 1.5"/>
   </g>
   <g id="line2d_44">
    <path d="M 340.818182 384.48 
L 340.818182 51.84 
" clip-path="url(#p66523d7111)" style="fill: none; stroke-dasharray: 1.5,2.475; stroke-dashoffset: 0; stroke: #808080; stroke-opacity: 0.6; stroke-width: 1.5"/>
   </g>
   <g id="line2d_45">
    <path d="M 397.181818 384.48 
L 397.181818 51.84 
" clip-path="url(#p66523d7111)" style="fill: none; stroke-dasharray: 1.5,2.475; stroke-dashoffset: 0; stroke: #808080; stroke-opacity: 0.6; stroke-width: 1.5"/>
   </g>
   <g id="line2d_46">
    <path d="M 453.545455 384.48 
L 453.545455 51.84 
" clip-path="url(#p66523d7111)" style="fill: none; stroke-dasharray: 1.5,2.475; stroke-dashoffset: 0; stroke: #808080; stroke-opacity: 0.6; stroke-width: 1.5"/>
   </g>
   <g id="line2d_47">
    <path d="M 509.909091 384.48 
L 509.909091 51.84 
" clip-path="url(#p66523d7111)" style="fill: none; stroke-dasharray: 1.5,2.475; stroke-dashoffset: 0; stroke: #808080; stroke-opacity: 0.6; stroke-width: 1.5"/>
   </g>
   <g id="line2d_48">
    <path d="M 566.272727 384.48 
L 566.272727 51.84 
" clip-path="url(#p66523d7111)" style="fill: none; stroke-dasharray: 1.5,2.475; stroke-dashoffset: 0; stroke: #808080; stroke-opacity: 0.6; stroke-width: 1.5"/>
   </g>
   <g id="line2d_49">
    <path d="M 622.636364 384.48 
L 622.636364 51.84 
" clip-path="url(#p66523d7111)" style="fill: none; stroke-dasharray: 1.5,2.475; stroke-dashoffset: 0; stroke: #808080; stroke-opacity: 0.6; stroke-width: 1.5"/>
   </g>
   <g id="patch_3">
    <path d="M 90 384.48 
L 90 51.84 
" style="fill: none; stroke: #000000; stroke-width: 0.8; stroke-linejoin: miter; stroke-linecap: square"/>
   </g>
   <g id="patch_4">
    <path d="M 648 384.48 
L 648 51.84 
" style="fill: none; stroke: #000000; stroke-width: 0.8; stroke-linejoin: miter; stroke-linecap: square"/>
   </g>
   <g id="patch_5">
    <path d="M 90 384.48 
L 648 384.48 
" style="fill: none; stroke: #000000; stroke-width: 0.8; stroke-linejoin: miter; stroke-linecap: square"/>
   </g>
   <g id="patch_6">
    <path d="M 90 51.84 
L 648 51.84 
" style="fill: none; stroke: #000000; stroke-width: 0.8; stroke-linejoin: miter; stroke-linecap: square"/>
   </g>
   <g id="text_17">
    <!-- Deutsch Protocol: Fidelity vs Purification Iterations (T1=0.0256 s, T2=0.034 s) -->
    <g transform="translate(134.545313 45.84) scale(0.12 -0.12)">
     <defs>
      <path id="DejaVuSans-44" d="M 1259 4147 
L 1259 519 
L 2022 519 
Q 2988 519 3436 956 
Q 3884 1394 3884 2338 
Q 3884 3275 3436 3711 
Q 2988 4147 2022 4147 
L 1259 4147 
z
M 628 4666 
L 1925 4666 
Q 3281 4666 3915 4102 
Q 4550 3538 4550 2338 
Q 4550 1131 3912 565 
Q 3275 0 1925 0 
L 628 0 
L 628 4666 
z
" transform="scale(0.015625)"/>
      <path id="DejaVuSans-73" d="M 2834 3397 
L 2834 2853 
Q 2591 2978 2328 3040 
Q 2066 3103 1784 3103 
Q 1356 3103 1142 2972 
Q 928 2841 928 2578 
Q 928 2378 1081 2264 
Q 1234 2150 1697 2047 
L 1894 2003 
Q 2506 1872 2764 1633 
Q 3022 1394 3022 966 
Q 3022 478 2636 193 
Q 2250 -91 1575 -91 
Q 1294 -91 989 -36 
Q 684 19 347 128 
L 347 722 
Q 666 556 975 473 
Q 1284 391 1588 391 
Q 1994 391 2212 530 
Q 2431 669 2431 922 
Q 2431 1156 2273 1281 
Q 2116 1406 1581 1522 
L 1381 1569 
Q 847 1681 609 1914 
Q 372 2147 372 2553 
Q 372 3047 722 3315 
Q 1072 3584 1716 3584 
Q 2034 3584 2315 3537 
Q 2597 3491 2834 3397 
z
" transform="scale(0.015625)"/>
      <path id="DejaVuSans-68" d="M 3513 2113 
L 3513 0 
L 2938 0 
L 2938 2094 
Q 2938 2591 2744 2837 
Q 2550 3084 2163 3084 
Q 1697 3084 1428 2787 
Q 1159 2491 1159 1978 
L 1159 0 
L 581 0 
L 581 4863 
L 1159 4863 
L 1159 2956 
Q 1366 3272 1645 3428 
Q 1925 3584 2291 3584 
Q 2894 3584 3203 3211 
Q 3513 2838 3513 2113 
z
" transform="scale(0.015625)"/>
      <path id="DejaVuSans-3a" d="M 750 794 
L 1409 794 
L 1409 0 
L 750 0 
L 750 794 
z
M 750 3309 
L 1409 3309 
L 1409 2516 
L 750 2516 
L 750 3309 
z
" transform="scale(0.015625)"/>
      <path id="DejaVuSans-76" d="M 191 3500 
L 800 3500 
L 1894 563 
L 2988 3500 
L 3597 3500 
L 2284 0 
L 1503 0 
L 191 3500 
z
" transform="scale(0.015625)"/>
      <path id="DejaVuSans-28" d="M 1984 4856 
Q 1566 4138 1362 3434 
Q 1159 2731 1159 2009 
Q 1159 1288 1364 580 
Q 1569 -128 1984 -844 
L 1484 -844 
Q 1016 -109 783 600 
Q 550 1309 550 2009 
Q 550 2706 781 3412 
Q 1013 4119 1484 4856 
L 1984 4856 
z
" transform="scale(0.015625)"/>
      <path id="DejaVuSans-54" d="M -19 4666 
L 3928 4666 
L 3928 4134 
L 2272 4134 
L 2272 0 
L 1638 0 
L 1638 4134 
L -19 4134 
L -19 4666 
z
" transform="scale(0.015625)"/>
      <path id="DejaVuSans-3d" d="M 678 2906 
L 4684 2906 
L 4684 2381 
L 678 2381 
L 678 2906 
z
M 678 1631 
L 4684 1631 
L 4684 1100 
L 678 1100 
L 678 1631 
z
" transform="scale(0.015625)"/>
      <path id="DejaVuSans-2c" d="M 750 794 
L 1409 794 
L 1409 256 
L 897 -744 
L 494 -744 
L 750 256 
L 750 794 
z
" transform="scale(0.015625)"/>
      <path id="DejaVuSans-29" d="M 513 4856 
L 1013 4856 
Q 1481 4119 1714 3412 
Q 1947 2706 1947 2009 
Q 1947 1309 1714 600 
Q 1481 -109 1013 -844 
L 513 -844 
Q 928 -128 1133 580 
Q 1338 1288 1338 2009 
Q 1338 2731 1133 3434 
Q 928 4138 513 4856 
z
" transform="scale(0.015625)"/>
     </defs>
     <use xlink:href="#DejaVuSans-44"/>
     <use xlink:href="#DejaVuSans-65" transform="translate(77.001953 0)"/>
     <use xlink:href="#DejaVuSans-75" transform="translate(138.525391 0)"/>
     <use xlink:href="#DejaVuSans-74" transform="translate(201.904297 0)"/>
     <use xlink:href="#DejaVuSans-73" transform="translate(241.113281 0)"/>
     <use xlink:href="#DejaVuSans-63" transform="translate(293.212891 0)"/>
     <use xlink:href="#DejaVuSans-68" transform="translate(348.193359 0)"/>
     <use xlink:href="#DejaVuSans-20" transform="translate(411.572266 0)"/>
     <use xlink:href="#DejaVuSans-50" transform="translate(443.359375 0)"/>
     <use xlink:href="#DejaVuSans-72" transform="translate(501.912109 0)"/>
     <use xlink:href="#DejaVuSans-6f" transform="translate(540.775391 0)"/>
     <use xlink:href="#DejaVuSans-74" transform="translate(601.957031 0)"/>
     <use xlink:href="#DejaVuSans-6f" transform="translate(641.166016 0)"/>
     <use xlink:href="#DejaVuSans-63" transform="translate(702.347656 0)"/>
     <use xlink:href="#DejaVuSans-6f" transform="translate(757.328125 0)"/>
     <use xlink:href="#DejaVuSans-6c" transform="translate(818.509766 0)"/>
     <use xlink:href="#DejaVuSans-3a" transform="translate(846.292969 0)"/>
     <use xlink:href="#DejaVuSans-20" transform="translate(879.984375 0)"/>
     <use xlink:href="#DejaVuSans-46" transform="translate(911.771484 0)"/>
     <use xlink:href="#DejaVuSans-69" transform="translate(962.041016 0)"/>
     <use xlink:href="#DejaVuSans-64" transform="translate(989.824219 0)"/>
     <use xlink:href="#DejaVuSans-65" transform="translate(1053.300781 0)"/>
     <use xlink:href="#DejaVuSans-6c" transform="translate(1114.824219 0)"/>
     <use xlink:href="#DejaVuSans-69" transform="translate(1142.607422 0)"/>
     <use xlink:href="#DejaVuSans-74" transform="translate(1170.390625 0)"/>
     <use xlink:href="#DejaVuSans-79" transform="translate(1209.599609 0)"/>
     <use xlink:href="#DejaVuSans-20" transform="translate(1268.779297 0)"/>
     <use xlink:href="#DejaVuSans-76" transform="translate(1300.566406 0)"/>
     <use xlink:href="#DejaVuSans-73" transform="translate(1359.746094 0)"/>
     <use xlink:href="#DejaVuSans-20" transform="translate(1411.845703 0)"/>
     <use xlink:href="#DejaVuSans-50" transform="translate(1443.632812 0)"/>
     <use xlink:href="#DejaVuSans-75" transform="translate(1502.185547 0)"/>
     <use xlink:href="#DejaVuSans-72" transform="translate(1565.564453 0)"/>
     <use xlink:href="#DejaVuSans-69" transform="translate(1606.677734 0)"/>
     <use xlink:href="#DejaVuSans-66" transform="translate(1634.460938 0)"/>
     <use xlink:href="#DejaVuSans-69" transform="translate(1669.666016 0)"/>
     <use xlink:href="#DejaVuSans-63" transform="translate(1697.449219 0)"/>
     <use xlink:href="#DejaVuSans-61" transform="translate(1752.429688 0)"/>
     <use xlink:href="#DejaVuSans-74" transform="translate(1813.708984 0)"/>
     <use xlink:href="#DejaVuSans-69" transform="translate(1852.917969 0)"/>
     <use xlink:href="#DejaVuSans-6f" transform="translate(1880.701172 0)"/>
     <use xlink:href="#DejaVuSans-6e" transform="translate(1941.882812 0)"/>
     <use xlink:href="#DejaVuSans-20" transform="translate(2005.261719 0)"/>
     <use xlink:href="#DejaVuSans-49" transform="translate(2037.048828 0)"/>
     <use xlink:href="#DejaVuSans-74" transform="translate(2066.541016 0)"/>
     <use xlink:href="#DejaVuSans-65" transform="translate(2105.75 0)"/>
     <use xlink:href="#DejaVuSans-72" transform="translate(2167.273438 0)"/>
     <use xlink:href="#DejaVuSans-61" transform="translate(2208.386719 0)"/>
     <use xlink:href="#DejaVuSans-74" transform="translate(2269.666016 0)"/>
     <use xlink:href="#DejaVuSans-69" transform="translate(2308.875 0)"/>
     <use xlink:href="#DejaVuSans-6f" transform="translate(2336.658203 0)"/>
     <use xlink:href="#DejaVuSans-6e" transform="translate(2397.839844 0)"/>
     <use xlink:href="#DejaVuSans-73" transform="translate(2461.21875 0)"/>
     <use xlink:href="#DejaVuSans-20" transform="translate(2513.318359 0)"/>
     <use xlink:href="#DejaVuSans-28" transform="translate(2545.105469 0)"/>
     <use xlink:href="#DejaVuSans-54" transform="translate(2584.119141 0)"/>
     <use xlink:href="#DejaVuSans-31" transform="translate(2645.203125 0)"/>
     <use xlink:href="#DejaVuSans-3d" transform="translate(2708.826172 0)"/>
     <use xlink:href="#DejaVuSans-30" transform="translate(2792.615234 0)"/>
     <use xlink:href="#DejaVuSans-2e" transform="translate(2856.238281 0)"/>
     <use xlink:href="#DejaVuSans-30" transform="translate(2888.025391 0)"/>
     <use xlink:href="#DejaVuSans-32" transform="translate(2951.648438 0)"/>
     <use xlink:href="#DejaVuSans-35" transform="translate(3015.271484 0)"/>
     <use xlink:href="#DejaVuSans-36" transform="translate(3078.894531 0)"/>
     <use xlink:href="#DejaVuSans-20" transform="translate(3142.517578 0)"/>
     <use xlink:href="#DejaVuSans-73" transform="translate(3174.304688 0)"/>
     <use xlink:href="#DejaVuSans-2c" transform="translate(3226.404297 0)"/>
     <use xlink:href="#DejaVuSans-20" transform="translate(3258.191406 0)"/>
     <use xlink:href="#DejaVuSans-54" transform="translate(3289.978516 0)"/>
     <use xlink:href="#DejaVuSans-32" transform="translate(3351.0625 0)"/>
     <use xlink:href="#DejaVuSans-3d" transform="translate(3414.685547 0)"/>
     <use xlink:href="#DejaVuSans-30" transform="translate(3498.474609 0)"/>
     <use xlink:href="#DejaVuSans-2e" transform="translate(3562.097656 0)"/>
     <use xlink:href="#DejaVuSans-30" transform="translate(3593.884766 0)"/>
     <use xlink:href="#DejaVuSans-33" transform="translate(3657.507812 0)"/>
     <use xlink:href="#DejaVuSans-34" transform="translate(3721.130859 0)"/>
     <use xlink:href="#DejaVuSans-20" transform="translate(3784.753906 0)"/>
     <use xlink:href="#DejaVuSans-73" transform="translate(3816.541016 0)"/>
     <use xlink:href="#DejaVuSans-29" transform="translate(3868.640625 0)"/>
    </g>
   </g>
   <g id="legend_1">
    <g id="patch_7">
     <path d="M 520.84375 300.389687 
L 641 300.389687 
Q 643 300.389687 643 298.389687 
L 643 137.930313 
Q 643 135.930313 641 135.930313 
L 520.84375 135.930313 
Q 518.84375 135.930313 518.84375 137.930313 
L 518.84375 298.389687 
Q 518.84375 300.389687 520.84375 300.389687 
z
" style="fill: #ffffff; opacity: 0.8; stroke: #cccccc; stroke-linejoin: miter"/>
    </g>
    <g id="line2d_50">
     <path d="M 522.84375 144.02875 
L 532.84375 144.02875 
L 542.84375 144.02875 
" style="fill: none; stroke: #1f77b4; stroke-width: 1.5; stroke-linecap: square"/>
     <g>
      <use xlink:href="#m3c776d6396" x="532.84375" y="144.02875" style="fill: #1f77b4; stroke: #1f77b4"/>
     </g>
    </g>
    <g id="text_18">
     <!-- Delay 0.000 ms -->
     <g transform="translate(550.84375 147.52875) scale(0.1 -0.1)">
      <defs>
       <path id="DejaVuSans-6d" d="M 3328 2828 
Q 3544 3216 3844 3400 
Q 4144 3584 4550 3584 
Q 5097 3584 5394 3201 
Q 5691 2819 5691 2113 
L 5691 0 
L 5113 0 
L 5113 2094 
Q 5113 2597 4934 2840 
Q 4756 3084 4391 3084 
Q 3944 3084 3684 2787 
Q 3425 2491 3425 1978 
L 3425 0 
L 2847 0 
L 2847 2094 
Q 2847 2600 2669 2842 
Q 2491 3084 2119 3084 
Q 1678 3084 1418 2786 
Q 1159 2488 1159 1978 
L 1159 0 
L 581 0 
L 581 3500 
L 1159 3500 
L 1159 2956 
Q 1356 3278 1631 3431 
Q 1906 3584 2284 3584 
Q 2666 3584 2933 3390 
Q 3200 3197 3328 2828 
z
" transform="scale(0.015625)"/>
      </defs>
      <use xlink:href="#DejaVuSans-44"/>
      <use xlink:href="#DejaVuSans-65" transform="translate(77.001953 0)"/>
      <use xlink:href="#DejaVuSans-6c" transform="translate(138.525391 0)"/>
      <use xlink:href="#DejaVuSans-61" transform="translate(166.308594 0)"/>
      <use xlink:href="#DejaVuSans-79" transform="translate(227.587891 0)"/>
      <use xlink:href="#DejaVuSans-20" transform="translate(286.767578 0)"/>
      <use xlink:href="#DejaVuSans-30" transform="translate(318.554688 0)"/>
      <use xlink:href="#DejaVuSans-2e" transform="translate(382.177734 0)"/>
      <use xlink:href="#DejaVuSans-30" transform="translate(413.964844 0)"/>
      <use xlink:href="#DejaVuSans-30" transform="translate(477.587891 0)"/>
      <use xlink:href="#DejaVuSans-30" transform="translate(541.210938 0)"/>
      <use xlink:href="#DejaVuSans-20" transform="translate(604.833984 0)"/>
      <use xlink:href="#DejaVuSans-6d" transform="translate(636.621094 0)"/>
      <use xlink:href="#DejaVuSans-73" transform="translate(734.033203 0)"/>
     </g>
    </g>
    <g id="line2d_51">
     <path d="M 522.84375 158.706875 
L 532.84375 158.706875 
L 542.84375 158.706875 
" style="fill: none; stroke: #ff7f0e; stroke-width: 1.5; stroke-linecap: square"/>
     <g>
      <use xlink:href="#m3cac2b0c68" x="532.84375" y="158.706875" style="fill: #ff7f0e; stroke: #ff7f0e"/>
     </g>
    </g>
    <g id="text_19">
     <!-- Delay 1.111 ms -->
     <g transform="translate(550.84375 162.206875) scale(0.1 -0.1)">
      <use xlink:href="#DejaVuSans-44"/>
      <use xlink:href="#DejaVuSans-65" transform="translate(77.001953 0)"/>
      <use xlink:href="#DejaVuSans-6c" transform="translate(138.525391 0)"/>
      <use xlink:href="#DejaVuSans-61" transform="translate(166.308594 0)"/>
      <use xlink:href="#DejaVuSans-79" transform="translate(227.587891 0)"/>
      <use xlink:href="#DejaVuSans-20" transform="translate(286.767578 0)"/>
      <use xlink:href="#DejaVuSans-31" transform="translate(318.554688 0)"/>
      <use xlink:href="#DejaVuSans-2e" transform="translate(382.177734 0)"/>
      <use xlink:href="#DejaVuSans-31" transform="translate(413.964844 0)"/>
      <use xlink:href="#DejaVuSans-31" transform="translate(477.587891 0)"/>
      <use xlink:href="#DejaVuSans-31" transform="translate(541.210938 0)"/>
      <use xlink:href="#DejaVuSans-20" transform="translate(604.833984 0)"/>
      <use xlink:href="#DejaVuSans-6d" transform="translate(636.621094 0)"/>
      <use xlink:href="#DejaVuSans-73" transform="translate(734.033203 0)"/>
     </g>
    </g>
    <g id="line2d_52">
     <path d="M 522.84375 173.385 
L 532.84375 173.385 
L 542.84375 173.385 
" style="fill: none; stroke: #2ca02c; stroke-width: 1.5; stroke-linecap: square"/>
     <g>
      <use xlink:href="#m3a4eeec573" x="532.84375" y="173.385" style="fill: #2ca02c; stroke: #2ca02c"/>
     </g>
    </g>
    <g id="text_20">
     <!-- Delay 2.222 ms -->
     <g transform="translate(550.84375 176.885) scale(0.1 -0.1)">
      <use xlink:href="#DejaVuSans-44"/>
      <use xlink:href="#DejaVuSans-65" transform="translate(77.001953 0)"/>
      <use xlink:href="#DejaVuSans-6c" transform="translate(138.525391 0)"/>
      <use xlink:href="#DejaVuSans-61" transform="translate(166.308594 0)"/>
      <use xlink:href="#DejaVuSans-79" transform="translate(227.587891 0)"/>
      <use xlink:href="#DejaVuSans-20" transform="translate(286.767578 0)"/>
      <use xlink:href="#DejaVuSans-32" transform="translate(318.554688 0)"/>
      <use xlink:href="#DejaVuSans-2e" transform="translate(382.177734 0)"/>
      <use xlink:href="#DejaVuSans-32" transform="translate(413.964844 0)"/>
      <use xlink:href="#DejaVuSans-32" transform="translate(477.587891 0)"/>
      <use xlink:href="#DejaVuSans-32" transform="translate(541.210938 0)"/>
      <use xlink:href="#DejaVuSans-20" transform="translate(604.833984 0)"/>
      <use xlink:href="#DejaVuSans-6d" transform="translate(636.621094 0)"/>
      <use xlink:href="#DejaVuSans-73" transform="translate(734.033203 0)"/>
     </g>
    </g>
    <g id="line2d_53">
     <path d="M 522.84375 188.063125 
L 532.84375 188.063125 
L 542.84375 188.063125 
" style="fill: none; stroke: #d62728; stroke-width: 1.5; stroke-linecap: square"/>
     <g>
      <use xlink:href="#m8b78862d96" x="532.84375" y="188.063125" style="fill: #d62728; stroke: #d62728"/>
     </g>
    </g>
    <g id="text_21">
     <!-- Delay 3.333 ms -->
     <g transform="translate(550.84375 191.563125) scale(0.1 -0.1)">
      <use xlink:href="#DejaVuSans-44"/>
      <use xlink:href="#DejaVuSans-65" transform="translate(77.001953 0)"/>
      <use xlink:href="#DejaVuSans-6c" transform="translate(138.525391 0)"/>
      <use xlink:href="#DejaVuSans-61" transform="translate(166.308594 0)"/>
      <use xlink:href="#DejaVuSans-79" transform="translate(227.587891 0)"/>
      <use xlink:href="#DejaVuSans-20" transform="translate(286.767578 0)"/>
      <use xlink:href="#DejaVuSans-33" transform="translate(318.554688 0)"/>
      <use xlink:href="#DejaVuSans-2e" transform="translate(382.177734 0)"/>
      <use xlink:href="#DejaVuSans-33" transform="translate(413.964844 0)"/>
      <use xlink:href="#DejaVuSans-33" transform="translate(477.587891 0)"/>
      <use xlink:href="#DejaVuSans-33" transform="translate(541.210938 0)"/>
      <use xlink:href="#DejaVuSans-20" transform="translate(604.833984 0)"/>
      <use xlink:href="#DejaVuSans-6d" transform="translate(636.621094 0)"/>
      <use xlink:href="#DejaVuSans-73" transform="translate(734.033203 0)"/>
     </g>
    </g>
    <g id="line2d_54">
     <path d="M 522.84375 202.74125 
L 532.84375 202.74125 
L 542.84375 202.74125 
" style="fill: none; stroke: #9467bd; stroke-width: 1.5; stroke-linecap: square"/>
     <g>
      <use xlink:href="#m5243040be2" x="532.84375" y="202.74125" style="fill: #9467bd; stroke: #9467bd"/>
     </g>
    </g>
    <g id="text_22">
     <!-- Delay 4.444 ms -->
     <g transform="translate(550.84375 206.24125) scale(0.1 -0.1)">
      <use xlink:href="#DejaVuSans-44"/>
      <use xlink:href="#DejaVuSans-65" transform="translate(77.001953 0)"/>
      <use xlink:href="#DejaVuSans-6c" transform="translate(138.525391 0)"/>
      <use xlink:href="#DejaVuSans-61" transform="translate(166.308594 0)"/>
      <use xlink:href="#DejaVuSans-79" transform="translate(227.587891 0)"/>
      <use xlink:href="#DejaVuSans-20" transform="translate(286.767578 0)"/>
      <use xlink:href="#DejaVuSans-34" transform="translate(318.554688 0)"/>
      <use xlink:href="#DejaVuSans-2e" transform="translate(382.177734 0)"/>
      <use xlink:href="#DejaVuSans-34" transform="translate(413.964844 0)"/>
      <use xlink:href="#DejaVuSans-34" transform="translate(477.587891 0)"/>
      <use xlink:href="#DejaVuSans-34" transform="translate(541.210938 0)"/>
      <use xlink:href="#DejaVuSans-20" transform="translate(604.833984 0)"/>
      <use xlink:href="#DejaVuSans-6d" transform="translate(636.621094 0)"/>
      <use xlink:href="#DejaVuSans-73" transform="translate(734.033203 0)"/>
     </g>
    </g>
    <g id="line2d_55">
     <path d="M 522.84375 217.419375 
L 532.84375 217.419375 
L 542.84375 217.419375 
" style="fill: none; stroke: #8c564b; stroke-width: 1.5; stroke-linecap: square"/>
     <g>
      <use xlink:href="#ma767f886ce" x="532.84375" y="217.419375" style="fill: #8c564b; stroke: #8c564b"/>
     </g>
    </g>
    <g id="text_23">
     <!-- Delay 5.556 ms -->
     <g transform="translate(550.84375 220.919375) scale(0.1 -0.1)">
      <use xlink:href="#DejaVuSans-44"/>
      <use xlink:href="#DejaVuSans-65" transform="translate(77.001953 0)"/>
      <use xlink:href="#DejaVuSans-6c" transform="translate(138.525391 0)"/>
      <use xlink:href="#DejaVuSans-61" transform="translate(166.308594 0)"/>
      <use xlink:href="#DejaVuSans-79" transform="translate(227.587891 0)"/>
      <use xlink:href="#DejaVuSans-20" transform="translate(286.767578 0)"/>
      <use xlink:href="#DejaVuSans-35" transform="translate(318.554688 0)"/>
      <use xlink:href="#DejaVuSans-2e" transform="translate(382.177734 0)"/>
      <use xlink:href="#DejaVuSans-35" transform="translate(413.964844 0)"/>
      <use xlink:href="#DejaVuSans-35" transform="translate(477.587891 0)"/>
      <use xlink:href="#DejaVuSans-36" transform="translate(541.210938 0)"/>
      <use xlink:href="#DejaVuSans-20" transform="translate(604.833984 0)"/>
      <use xlink:href="#DejaVuSans-6d" transform="translate(636.621094 0)"/>
      <use xlink:href="#DejaVuSans-73" transform="translate(734.033203 0)"/>
     </g>
    </g>
    <g id="line2d_56">
     <path d="M 522.84375 232.0975 
L 532.84375 232.0975 
L 542.84375 232.0975 
" style="fill: none; stroke: #e377c2; stroke-width: 1.5; stroke-linecap: square"/>
     <g>
      <use xlink:href="#m238059a09c" x="532.84375" y="232.0975" style="fill: #e377c2; stroke: #e377c2"/>
     </g>
    </g>
    <g id="text_24">
     <!-- Delay 6.667 ms -->
     <g transform="translate(550.84375 235.5975) scale(0.1 -0.1)">
      <use xlink:href="#DejaVuSans-44"/>
      <use xlink:href="#DejaVuSans-65" transform="translate(77.001953 0)"/>
      <use xlink:href="#DejaVuSans-6c" transform="translate(138.525391 0)"/>
      <use xlink:href="#DejaVuSans-61" transform="translate(166.308594 0)"/>
      <use xlink:href="#DejaVuSans-79" transform="translate(227.587891 0)"/>
      <use xlink:href="#DejaVuSans-20" transform="translate(286.767578 0)"/>
      <use xlink:href="#DejaVuSans-36" transform="translate(318.554688 0)"/>
      <use xlink:href="#DejaVuSans-2e" transform="translate(382.177734 0)"/>
      <use xlink:href="#DejaVuSans-36" transform="translate(413.964844 0)"/>
      <use xlink:href="#DejaVuSans-36" transform="translate(477.587891 0)"/>
      <use xlink:href="#DejaVuSans-37" transform="translate(541.210938 0)"/>
      <use xlink:href="#DejaVuSans-20" transform="translate(604.833984 0)"/>
      <use xlink:href="#DejaVuSans-6d" transform="translate(636.621094 0)"/>
      <use xlink:href="#DejaVuSans-73" transform="translate(734.033203 0)"/>
     </g>
    </g>
    <g id="line2d_57">
     <path d="M 522.84375 246.775625 
L 532.84375 246.775625 
L 542.84375 246.775625 
" style="fill: none; stroke: #7f7f7f; stroke-width: 1.5; stroke-linecap: square"/>
     <g>
      <use xlink:href="#m15bc82e0bc" x="532.84375" y="246.775625" style="fill: #7f7f7f; stroke: #7f7f7f"/>
     </g>
    </g>
    <g id="text_25">
     <!-- Delay 7.778 ms -->
     <g transform="translate(550.84375 250.275625) scale(0.1 -0.1)">
      <use xlink:href="#DejaVuSans-44"/>
      <use xlink:href="#DejaVuSans-65" transform="translate(77.001953 0)"/>
      <use xlink:href="#DejaVuSans-6c" transform="translate(138.525391 0)"/>
      <use xlink:href="#DejaVuSans-61" transform="translate(166.308594 0)"/>
      <use xlink:href="#DejaVuSans-79" transform="translate(227.587891 0)"/>
      <use xlink:href="#DejaVuSans-20" transform="translate(286.767578 0)"/>
      <use xlink:href="#DejaVuSans-37" transform="translate(318.554688 0)"/>
      <use xlink:href="#DejaVuSans-2e" transform="translate(382.177734 0)"/>
      <use xlink:href="#DejaVuSans-37" transform="translate(413.964844 0)"/>
      <use xlink:href="#DejaVuSans-37" transform="translate(477.587891 0)"/>
      <use xlink:href="#DejaVuSans-38" transform="translate(541.210938 0)"/>
      <use xlink:href="#DejaVuSans-20" transform="translate(604.833984 0)"/>
      <use xlink:href="#DejaVuSans-6d" transform="translate(636.621094 0)"/>
      <use xlink:href="#DejaVuSans-73" transform="translate(734.033203 0)"/>
     </g>
    </g>
    <g id="line2d_58">
     <path d="M 522.84375 261.45375 
L 532.84375 261.45375 
L 542.84375 261.45375 
" style="fill: none; stroke: #bcbd22; stroke-width: 1.5; stroke-linecap: square"/>
     <g>
      <use xlink:href="#m89ee7bcfef" x="532.84375" y="261.45375" style="fill: #bcbd22; stroke: #bcbd22"/>
     </g>
    </g>
    <g id="text_26">
     <!-- Delay 8.889 ms -->
     <g transform="translate(550.84375 264.95375) scale(0.1 -0.1)">
      <use xlink:href="#DejaVuSans-44"/>
      <use xlink:href="#DejaVuSans-65" transform="translate(77.001953 0)"/>
      <use xlink:href="#DejaVuSans-6c" transform="translate(138.525391 0)"/>
      <use xlink:href="#DejaVuSans-61" transform="translate(166.308594 0)"/>
      <use xlink:href="#DejaVuSans-79" transform="translate(227.587891 0)"/>
      <use xlink:href="#DejaVuSans-20" transform="translate(286.767578 0)"/>
      <use xlink:href="#DejaVuSans-38" transform="translate(318.554688 0)"/>
      <use xlink:href="#DejaVuSans-2e" transform="translate(382.177734 0)"/>
      <use xlink:href="#DejaVuSans-38" transform="translate(413.964844 0)"/>
      <use xlink:href="#DejaVuSans-38" transform="translate(477.587891 0)"/>
      <use xlink:href="#DejaVuSans-39" transform="translate(541.210938 0)"/>
      <use xlink:href="#DejaVuSans-20" transform="translate(604.833984 0)"/>
      <use xlink:href="#DejaVuSans-6d" transform="translate(636.621094 0)"/>
      <use xlink:href="#DejaVuSans-73" transform="translate(734.033203 0)"/>
     </g>
    </g>
    <g id="line2d_59">
     <path d="M 522.84375 276.131875 
L 532.84375 276.131875 
L 542.84375 276.131875 
" style="fill: none; stroke: #17becf; stroke-width: 1.5; stroke-linecap: square"/>
     <g>
      <use xlink:href="#m4a6d38c427" x="532.84375" y="276.131875" style="fill: #17becf; stroke: #17becf"/>
     </g>
    </g>
    <g id="text_27">
     <!-- Delay 10.000 ms -->
     <g transform="translate(550.84375 279.631875) scale(0.1 -0.1)">
      <use xlink:href="#DejaVuSans-44"/>
      <use xlink:href="#DejaVuSans-65" transform="translate(77.001953 0)"/>
      <use xlink:href="#DejaVuSans-6c" transform="translate(138.525391 0)"/>
      <use xlink:href="#DejaVuSans-61" transform="translate(166.308594 0)"/>
      <use xlink:href="#DejaVuSans-79" transform="translate(227.587891 0)"/>
      <use xlink:href="#DejaVuSans-20" transform="translate(286.767578 0)"/>
      <use xlink:href="#DejaVuSans-31" transform="translate(318.554688 0)"/>
      <use xlink:href="#DejaVuSans-30" transform="translate(382.177734 0)"/>
      <use xlink:href="#DejaVuSans-2e" transform="translate(445.800781 0)"/>
      <use xlink:href="#DejaVuSans-30" transform="translate(477.587891 0)"/>
      <use xlink:href="#DejaVuSans-30" transform="translate(541.210938 0)"/>
      <use xlink:href="#DejaVuSans-30" transform="translate(604.833984 0)"/>
      <use xlink:href="#DejaVuSans-20" transform="translate(668.457031 0)"/>
      <use xlink:href="#DejaVuSans-6d" transform="translate(700.244141 0)"/>
      <use xlink:href="#DejaVuSans-73" transform="translate(797.65625 0)"/>
     </g>
    </g>
    <g id="line2d_60">
     <path d="M 522.84375 290.81 
L 532.84375 290.81 
L 542.84375 290.81 
" style="fill: none; stroke-dasharray: 5.55,2.4; stroke-dashoffset: 0; stroke: #ff0000; stroke-width: 1.5"/>
    </g>
    <g id="text_28">
     <!-- Threshold Fidelity -->
     <g transform="translate(550.84375 294.31) scale(0.1 -0.1)">
      <use xlink:href="#DejaVuSans-54"/>
      <use xlink:href="#DejaVuSans-68" transform="translate(61.083984 0)"/>
      <use xlink:href="#DejaVuSans-72" transform="translate(124.462891 0)"/>
      <use xlink:href="#DejaVuSans-65" transform="translate(163.326172 0)"/>
      <use xlink:href="#DejaVuSans-73" transform="translate(224.849609 0)"/>
      <use xlink:href="#DejaVuSans-68" transform="translate(276.949219 0)"/>
      <use xlink:href="#DejaVuSans-6f" transform="translate(340.328125 0)"/>
      <use xlink:href="#DejaVuSans-6c" transform="translate(401.509766 0)"/>
      <use xlink:href="#DejaVuSans-64" transform="translate(429.292969 0)"/>
      <use xlink:href="#DejaVuSans-20" transform="translate(492.769531 0)"/>
      <use xlink:href="#DejaVuSans-46" transform="translate(524.556641 0)"/>
      <use xlink:href="#DejaVuSans-69" transform="translate(574.826172 0)"/>
      <use xlink:href="#DejaVuSans-64" transform="translate(602.609375 0)"/>
      <use xlink:href="#DejaVuSans-65" transform="translate(666.085938 0)"/>
      <use xlink:href="#DejaVuSans-6c" transform="translate(727.609375 0)"/>
      <use xlink:href="#DejaVuSans-69" transform="translate(755.392578 0)"/>
      <use xlink:href="#DejaVuSans-74" transform="translate(783.175781 0)"/>
      <use xlink:href="#DejaVuSans-79" transform="translate(822.384766 0)"/>
     </g>
    </g>
   </g>
  </g>
 </g>
 <defs>
  <clipPath id="p66523d7111">
   <rect x="90" y="51.84" width="558" height="332.64"/>
  </clipPath>
 </defs>
</svg>
