<?xml version="1.0" encoding="utf-8" standalone="no"?>
<!DOCTYPE svg PUBLIC "-//W3C//DTD SVG 1.1//EN"
  "http://www.w3.org/Graphics/SVG/1.1/DTD/svg11.dtd">
<svg xmlns:xlink="http://www.w3.org/1999/xlink" width="720pt" height="432pt" viewBox="0 0 720 432" xmlns="http://www.w3.org/2000/svg" version="1.1">
 <metadata>
  <rdf:RDF xmlns:dc="http://purl.org/dc/elements/1.1/" xmlns:cc="http://creativecommons.org/ns#" xmlns:rdf="http://www.w3.org/1999/02/22-rdf-syntax-ns#">
   <cc:Work>
    <dc:type rdf:resource="http://purl.org/dc/dcmitype/StillImage"/>
    <dc:date>2025-04-07T21:23:13.009185</dc:date>
    <dc:format>image/svg+xml</dc:format>
    <dc:creator>
     <cc:Agent>
      <dc:title>Matplotlib v3.10.1, https://matplotlib.org/</dc:title>
     </cc:Agent>
    </dc:creator>
   </cc:Work>
  </rdf:RDF>
 </metadata>
 <defs>
  <style type="text/css">*{stroke-linejoin: round; stroke-linecap: butt}</style>
 </defs>
 <g id="figure_1">
  <g id="patch_1">
   <path d="M 0 432 
L 720 432 
L 720 0 
L 0 0 
z
" style="fill: #ffffff"/>
  </g>
  <g id="axes_1">
   <g id="patch_2">
    <path d="M 90 384.48 
L 648 384.48 
L 648 51.84 
L 90 51.84 
z
" style="fill: #ffffff"/>
   </g>
   <g id="matplotlib.axis_1">
    <g id="xtick_1">
     <g id="line2d_1">
      <path d="M 155.411483 384.48 
L 155.411483 51.84 
" clip-path="url(#pf64645489a)" style="fill: none; stroke-dasharray: 0.8,1.32; stroke-dashoffset: 0; stroke: #b0b0b0; stroke-width: 0.8"/>
     </g>
     <g id="line2d_2">
      <defs>
       <path id="mef7fec212a" d="M 0 0 
L 0 3.5 
" style="stroke: #000000; stroke-width: 0.8"/>
      </defs>
      <g>
       <use xlink:href="#mef7fec212a" x="155.411483" y="384.48" style="stroke: #000000; stroke-width: 0.8"/>
      </g>
     </g>
     <g id="text_1">
      <!-- 2.5 -->
      <g transform="translate(147.459921 399.078438) scale(0.1 -0.1)">
       <defs>
        <path id="DejaVuSans-32" d="M 1228 531 
L 3431 531 
L 3431 0 
L 469 0 
L 469 531 
Q 828 903 1448 1529 
Q 2069 2156 2228 2338 
Q 2531 2678 2651 2914 
Q 2772 3150 2772 3378 
Q 2772 3750 2511 3984 
Q 2250 4219 1831 4219 
Q 1534 4219 1204 4116 
Q 875 4013 500 3803 
L 500 4441 
Q 881 4594 1212 4672 
Q 1544 4750 1819 4750 
Q 2544 4750 2975 4387 
Q 3406 4025 3406 3419 
Q 3406 3131 3298 2873 
Q 3191 2616 2906 2266 
Q 2828 2175 2409 1742 
Q 1991 1309 1228 531 
z
" transform="scale(0.015625)"/>
        <path id="DejaVuSans-2e" d="M 684 794 
L 1344 794 
L 1344 0 
L 684 0 
L 684 794 
z
" transform="scale(0.015625)"/>
        <path id="DejaVuSans-35" d="M 691 4666 
L 3169 4666 
L 3169 4134 
L 1269 4134 
L 1269 2991 
Q 1406 3038 1543 3061 
Q 1681 3084 1819 3084 
Q 2600 3084 3056 2656 
Q 3513 2228 3513 1497 
Q 3513 744 3044 326 
Q 2575 -91 1722 -91 
Q 1428 -91 1123 -41 
Q 819 9 494 109 
L 494 744 
Q 775 591 1075 516 
Q 1375 441 1709 441 
Q 2250 441 2565 725 
Q 2881 1009 2881 1497 
Q 2881 1984 2565 2268 
Q 2250 2553 1709 2553 
Q 1456 2553 1204 2497 
Q 953 2441 691 2322 
L 691 4666 
z
" transform="scale(0.015625)"/>
       </defs>
       <use xlink:href="#DejaVuSans-32"/>
       <use xlink:href="#DejaVuSans-2e" transform="translate(63.623047 0)"/>
       <use xlink:href="#DejaVuSans-35" transform="translate(95.410156 0)"/>
      </g>
     </g>
    </g>
    <g id="xtick_2">
     <g id="line2d_3">
      <path d="M 222.157895 384.48 
L 222.157895 51.84 
" clip-path="url(#pf64645489a)" style="fill: none; stroke-dasharray: 0.8,1.32; stroke-dashoffset: 0; stroke: #b0b0b0; stroke-width: 0.8"/>
     </g>
     <g id="line2d_4">
      <g>
       <use xlink:href="#mef7fec212a" x="222.157895" y="384.48" style="stroke: #000000; stroke-width: 0.8"/>
      </g>
     </g>
     <g id="text_2">
      <!-- 5.0 -->
      <g transform="translate(214.206332 399.078438) scale(0.1 -0.1)">
       <defs>
        <path id="DejaVuSans-30" d="M 2034 4250 
Q 1547 4250 1301 3770 
Q 1056 3291 1056 2328 
Q 1056 1369 1301 889 
Q 1547 409 2034 409 
Q 2525 409 2770 889 
Q 3016 1369 3016 2328 
Q 3016 3291 2770 3770 
Q 2525 4250 2034 4250 
z
M 2034 4750 
Q 2819 4750 3233 4129 
Q 3647 3509 3647 2328 
Q 3647 1150 3233 529 
Q 2819 -91 2034 -91 
Q 1250 -91 836 529 
Q 422 1150 422 2328 
Q 422 3509 836 4129 
Q 1250 4750 2034 4750 
z
" transform="scale(0.015625)"/>
       </defs>
       <use xlink:href="#DejaVuSans-35"/>
       <use xlink:href="#DejaVuSans-2e" transform="translate(63.623047 0)"/>
       <use xlink:href="#DejaVuSans-30" transform="translate(95.410156 0)"/>
      </g>
     </g>
    </g>
    <g id="xtick_3">
     <g id="line2d_5">
      <path d="M 288.904306 384.48 
L 288.904306 51.84 
" clip-path="url(#pf64645489a)" style="fill: none; stroke-dasharray: 0.8,1.32; stroke-dashoffset: 0; stroke: #b0b0b0; stroke-width: 0.8"/>
     </g>
     <g id="line2d_6">
      <g>
       <use xlink:href="#mef7fec212a" x="288.904306" y="384.48" style="stroke: #000000; stroke-width: 0.8"/>
      </g>
     </g>
     <g id="text_3">
      <!-- 7.5 -->
      <g transform="translate(280.952744 399.078438) scale(0.1 -0.1)">
       <defs>
        <path id="DejaVuSans-37" d="M 525 4666 
L 3525 4666 
L 3525 4397 
L 1831 0 
L 1172 0 
L 2766 4134 
L 525 4134 
L 525 4666 
z
" transform="scale(0.015625)"/>
       </defs>
       <use xlink:href="#DejaVuSans-37"/>
       <use xlink:href="#DejaVuSans-2e" transform="translate(63.623047 0)"/>
       <use xlink:href="#DejaVuSans-35" transform="translate(95.410156 0)"/>
      </g>
     </g>
    </g>
    <g id="xtick_4">
     <g id="line2d_7">
      <path d="M 355.650718 384.48 
L 355.650718 51.84 
" clip-path="url(#pf64645489a)" style="fill: none; stroke-dasharray: 0.8,1.32; stroke-dashoffset: 0; stroke: #b0b0b0; stroke-width: 0.8"/>
     </g>
     <g id="line2d_8">
      <g>
       <use xlink:href="#mef7fec212a" x="355.650718" y="384.48" style="stroke: #000000; stroke-width: 0.8"/>
      </g>
     </g>
     <g id="text_4">
      <!-- 10.0 -->
      <g transform="translate(344.517905 399.078438) scale(0.1 -0.1)">
       <defs>
        <path id="DejaVuSans-31" d="M 794 531 
L 1825 531 
L 1825 4091 
L 703 3866 
L 703 4441 
L 1819 4666 
L 2450 4666 
L 2450 531 
L 3481 531 
L 3481 0 
L 794 0 
L 794 531 
z
" transform="scale(0.015625)"/>
       </defs>
       <use xlink:href="#DejaVuSans-31"/>
       <use xlink:href="#DejaVuSans-30" transform="translate(63.623047 0)"/>
       <use xlink:href="#DejaVuSans-2e" transform="translate(127.246094 0)"/>
       <use xlink:href="#DejaVuSans-30" transform="translate(159.033203 0)"/>
      </g>
     </g>
    </g>
    <g id="xtick_5">
     <g id="line2d_9">
      <path d="M 422.397129 384.48 
L 422.397129 51.84 
" clip-path="url(#pf64645489a)" style="fill: none; stroke-dasharray: 0.8,1.32; stroke-dashoffset: 0; stroke: #b0b0b0; stroke-width: 0.8"/>
     </g>
     <g id="line2d_10">
      <g>
       <use xlink:href="#mef7fec212a" x="422.397129" y="384.48" style="stroke: #000000; stroke-width: 0.8"/>
      </g>
     </g>
     <g id="text_5">
      <!-- 12.5 -->
      <g transform="translate(411.264317 399.078438) scale(0.1 -0.1)">
       <use xlink:href="#DejaVuSans-31"/>
       <use xlink:href="#DejaVuSans-32" transform="translate(63.623047 0)"/>
       <use xlink:href="#DejaVuSans-2e" transform="translate(127.246094 0)"/>
       <use xlink:href="#DejaVuSans-35" transform="translate(159.033203 0)"/>
      </g>
     </g>
    </g>
    <g id="xtick_6">
     <g id="line2d_11">
      <path d="M 489.143541 384.48 
L 489.143541 51.84 
" clip-path="url(#pf64645489a)" style="fill: none; stroke-dasharray: 0.8,1.32; stroke-dashoffset: 0; stroke: #b0b0b0; stroke-width: 0.8"/>
     </g>
     <g id="line2d_12">
      <g>
       <use xlink:href="#mef7fec212a" x="489.143541" y="384.48" style="stroke: #000000; stroke-width: 0.8"/>
      </g>
     </g>
     <g id="text_6">
      <!-- 15.0 -->
      <g transform="translate(478.010728 399.078438) scale(0.1 -0.1)">
       <use xlink:href="#DejaVuSans-31"/>
       <use xlink:href="#DejaVuSans-35" transform="translate(63.623047 0)"/>
       <use xlink:href="#DejaVuSans-2e" transform="translate(127.246094 0)"/>
       <use xlink:href="#DejaVuSans-30" transform="translate(159.033203 0)"/>
      </g>
     </g>
    </g>
    <g id="xtick_7">
     <g id="line2d_13">
      <path d="M 555.889952 384.48 
L 555.889952 51.84 
" clip-path="url(#pf64645489a)" style="fill: none; stroke-dasharray: 0.8,1.32; stroke-dashoffset: 0; stroke: #b0b0b0; stroke-width: 0.8"/>
     </g>
     <g id="line2d_14">
      <g>
       <use xlink:href="#mef7fec212a" x="555.889952" y="384.48" style="stroke: #000000; stroke-width: 0.8"/>
      </g>
     </g>
     <g id="text_7">
      <!-- 17.5 -->
      <g transform="translate(544.75714 399.078438) scale(0.1 -0.1)">
       <use xlink:href="#DejaVuSans-31"/>
       <use xlink:href="#DejaVuSans-37" transform="translate(63.623047 0)"/>
       <use xlink:href="#DejaVuSans-2e" transform="translate(127.246094 0)"/>
       <use xlink:href="#DejaVuSans-35" transform="translate(159.033203 0)"/>
      </g>
     </g>
    </g>
    <g id="xtick_8">
     <g id="line2d_15">
      <path d="M 622.636364 384.48 
L 622.636364 51.84 
" clip-path="url(#pf64645489a)" style="fill: none; stroke-dasharray: 0.8,1.32; stroke-dashoffset: 0; stroke: #b0b0b0; stroke-width: 0.8"/>
     </g>
     <g id="line2d_16">
      <g>
       <use xlink:href="#mef7fec212a" x="622.636364" y="384.48" style="stroke: #000000; stroke-width: 0.8"/>
      </g>
     </g>
     <g id="text_8">
      <!-- 20.0 -->
      <g transform="translate(611.503551 399.078438) scale(0.1 -0.1)">
       <use xlink:href="#DejaVuSans-32"/>
       <use xlink:href="#DejaVuSans-30" transform="translate(63.623047 0)"/>
       <use xlink:href="#DejaVuSans-2e" transform="translate(127.246094 0)"/>
       <use xlink:href="#DejaVuSans-30" transform="translate(159.033203 0)"/>
      </g>
     </g>
    </g>
    <g id="text_9">
     <!-- Purification Iteration -->
     <g transform="translate(318.121875 412.756563) scale(0.1 -0.1)">
      <defs>
       <path id="DejaVuSans-50" d="M 1259 4147 
L 1259 2394 
L 2053 2394 
Q 2494 2394 2734 2622 
Q 2975 2850 2975 3272 
Q 2975 3691 2734 3919 
Q 2494 4147 2053 4147 
L 1259 4147 
z
M 628 4666 
L 2053 4666 
Q 2838 4666 3239 4311 
Q 3641 3956 3641 3272 
Q 3641 2581 3239 2228 
Q 2838 1875 2053 1875 
L 1259 1875 
L 1259 0 
L 628 0 
L 628 4666 
z
" transform="scale(0.015625)"/>
       <path id="DejaVuSans-75" d="M 544 1381 
L 544 3500 
L 1119 3500 
L 1119 1403 
Q 1119 906 1312 657 
Q 1506 409 1894 409 
Q 2359 409 2629 706 
Q 2900 1003 2900 1516 
L 2900 3500 
L 3475 3500 
L 3475 0 
L 2900 0 
L 2900 538 
Q 2691 219 2414 64 
Q 2138 -91 1772 -91 
Q 1169 -91 856 284 
Q 544 659 544 1381 
z
M 1991 3584 
L 1991 3584 
z
" transform="scale(0.015625)"/>
       <path id="DejaVuSans-72" d="M 2631 2963 
Q 2534 3019 2420 3045 
Q 2306 3072 2169 3072 
Q 1681 3072 1420 2755 
Q 1159 2438 1159 1844 
L 1159 0 
L 581 0 
L 581 3500 
L 1159 3500 
L 1159 2956 
Q 1341 3275 1631 3429 
Q 1922 3584 2338 3584 
Q 2397 3584 2469 3576 
Q 2541 3569 2628 3553 
L 2631 2963 
z
" transform="scale(0.015625)"/>
       <path id="DejaVuSans-69" d="M 603 3500 
L 1178 3500 
L 1178 0 
L 603 0 
L 603 3500 
z
M 603 4863 
L 1178 4863 
L 1178 4134 
L 603 4134 
L 603 4863 
z
" transform="scale(0.015625)"/>
       <path id="DejaVuSans-66" d="M 2375 4863 
L 2375 4384 
L 1825 4384 
Q 1516 4384 1395 4259 
Q 1275 4134 1275 3809 
L 1275 3500 
L 2222 3500 
L 2222 3053 
L 1275 3053 
L 1275 0 
L 697 0 
L 697 3053 
L 147 3053 
L 147 3500 
L 697 3500 
L 697 3744 
Q 697 4328 969 4595 
Q 1241 4863 1831 4863 
L 2375 4863 
z
" transform="scale(0.015625)"/>
       <path id="DejaVuSans-63" d="M 3122 3366 
L 3122 2828 
Q 2878 2963 2633 3030 
Q 2388 3097 2138 3097 
Q 1578 3097 1268 2742 
Q 959 2388 959 1747 
Q 959 1106 1268 751 
Q 1578 397 2138 397 
Q 2388 397 2633 464 
Q 2878 531 3122 666 
L 3122 134 
Q 2881 22 2623 -34 
Q 2366 -91 2075 -91 
Q 1284 -91 818 406 
Q 353 903 353 1747 
Q 353 2603 823 3093 
Q 1294 3584 2113 3584 
Q 2378 3584 2631 3529 
Q 2884 3475 3122 3366 
z
" transform="scale(0.015625)"/>
       <path id="DejaVuSans-61" d="M 2194 1759 
Q 1497 1759 1228 1600 
Q 959 1441 959 1056 
Q 959 750 1161 570 
Q 1363 391 1709 391 
Q 2188 391 2477 730 
Q 2766 1069 2766 1631 
L 2766 1759 
L 2194 1759 
z
M 3341 1997 
L 3341 0 
L 2766 0 
L 2766 531 
Q 2569 213 2275 61 
Q 1981 -91 1556 -91 
Q 1019 -91 701 211 
Q 384 513 384 1019 
Q 384 1609 779 1909 
Q 1175 2209 1959 2209 
L 2766 2209 
L 2766 2266 
Q 2766 2663 2505 2880 
Q 2244 3097 1772 3097 
Q 1472 3097 1187 3025 
Q 903 2953 641 2809 
L 641 3341 
Q 956 3463 1253 3523 
Q 1550 3584 1831 3584 
Q 2591 3584 2966 3190 
Q 3341 2797 3341 1997 
z
" transform="scale(0.015625)"/>
       <path id="DejaVuSans-74" d="M 1172 4494 
L 1172 3500 
L 2356 3500 
L 2356 3053 
L 1172 3053 
L 1172 1153 
Q 1172 725 1289 603 
Q 1406 481 1766 481 
L 2356 481 
L 2356 0 
L 1766 0 
Q 1100 0 847 248 
Q 594 497 594 1153 
L 594 3053 
L 172 3053 
L 172 3500 
L 594 3500 
L 594 4494 
L 1172 4494 
z
" transform="scale(0.015625)"/>
       <path id="DejaVuSans-6f" d="M 1959 3097 
Q 1497 3097 1228 2736 
Q 959 2375 959 1747 
Q 959 1119 1226 758 
Q 1494 397 1959 397 
Q 2419 397 2687 759 
Q 2956 1122 2956 1747 
Q 2956 2369 2687 2733 
Q 2419 3097 1959 3097 
z
M 1959 3584 
Q 2709 3584 3137 3096 
Q 3566 2609 3566 1747 
Q 3566 888 3137 398 
Q 2709 -91 1959 -91 
Q 1206 -91 779 398 
Q 353 888 353 1747 
Q 353 2609 779 3096 
Q 1206 3584 1959 3584 
z
" transform="scale(0.015625)"/>
       <path id="DejaVuSans-6e" d="M 3513 2113 
L 3513 0 
L 2938 0 
L 2938 2094 
Q 2938 2591 2744 2837 
Q 2550 3084 2163 3084 
Q 1697 3084 1428 2787 
Q 1159 2491 1159 1978 
L 1159 0 
L 581 0 
L 581 3500 
L 1159 3500 
L 1159 2956 
Q 1366 3272 1645 3428 
Q 1925 3584 2291 3584 
Q 2894 3584 3203 3211 
Q 3513 2838 3513 2113 
z
" transform="scale(0.015625)"/>
       <path id="DejaVuSans-20" transform="scale(0.015625)"/>
       <path id="DejaVuSans-49" d="M 628 4666 
L 1259 4666 
L 1259 0 
L 628 0 
L 628 4666 
z
" transform="scale(0.015625)"/>
       <path id="DejaVuSans-65" d="M 3597 1894 
L 3597 1613 
L 953 1613 
Q 991 1019 1311 708 
Q 1631 397 2203 397 
Q 2534 397 2845 478 
Q 3156 559 3463 722 
L 3463 178 
Q 3153 47 2828 -22 
Q 2503 -91 2169 -91 
Q 1331 -91 842 396 
Q 353 884 353 1716 
Q 353 2575 817 3079 
Q 1281 3584 2069 3584 
Q 2775 3584 3186 3129 
Q 3597 2675 3597 1894 
z
M 3022 2063 
Q 3016 2534 2758 2815 
Q 2500 3097 2075 3097 
Q 1594 3097 1305 2825 
Q 1016 2553 972 2059 
L 3022 2063 
z
" transform="scale(0.015625)"/>
      </defs>
      <use xlink:href="#DejaVuSans-50"/>
      <use xlink:href="#DejaVuSans-75" transform="translate(58.552734 0)"/>
      <use xlink:href="#DejaVuSans-72" transform="translate(121.931641 0)"/>
      <use xlink:href="#DejaVuSans-69" transform="translate(163.044922 0)"/>
      <use xlink:href="#DejaVuSans-66" transform="translate(190.828125 0)"/>
      <use xlink:href="#DejaVuSans-69" transform="translate(226.033203 0)"/>
      <use xlink:href="#DejaVuSans-63" transform="translate(253.816406 0)"/>
      <use xlink:href="#DejaVuSans-61" transform="translate(308.796875 0)"/>
      <use xlink:href="#DejaVuSans-74" transform="translate(370.076172 0)"/>
      <use xlink:href="#DejaVuSans-69" transform="translate(409.285156 0)"/>
      <use xlink:href="#DejaVuSans-6f" transform="translate(437.068359 0)"/>
      <use xlink:href="#DejaVuSans-6e" transform="translate(498.25 0)"/>
      <use xlink:href="#DejaVuSans-20" transform="translate(561.628906 0)"/>
      <use xlink:href="#DejaVuSans-49" transform="translate(593.416016 0)"/>
      <use xlink:href="#DejaVuSans-74" transform="translate(622.908203 0)"/>
      <use xlink:href="#DejaVuSans-65" transform="translate(662.117188 0)"/>
      <use xlink:href="#DejaVuSans-72" transform="translate(723.640625 0)"/>
      <use xlink:href="#DejaVuSans-61" transform="translate(764.753906 0)"/>
      <use xlink:href="#DejaVuSans-74" transform="translate(826.033203 0)"/>
      <use xlink:href="#DejaVuSans-69" transform="translate(865.242188 0)"/>
      <use xlink:href="#DejaVuSans-6f" transform="translate(893.025391 0)"/>
      <use xlink:href="#DejaVuSans-6e" transform="translate(954.207031 0)"/>
     </g>
    </g>
   </g>
   <g id="matplotlib.axis_2">
    <g id="ytick_1">
     <g id="line2d_17">
      <path d="M 90 325.18374 
L 648 325.18374 
" clip-path="url(#pf64645489a)" style="fill: none; stroke-dasharray: 0.8,1.32; stroke-dashoffset: 0; stroke: #b0b0b0; stroke-width: 0.8"/>
     </g>
     <g id="line2d_18">
      <defs>
       <path id="me397429169" d="M 0 0 
L -3.5 0 
" style="stroke: #000000; stroke-width: 0.8"/>
      </defs>
      <g>
       <use xlink:href="#me397429169" x="90" y="325.18374" style="stroke: #000000; stroke-width: 0.8"/>
      </g>
     </g>
     <g id="text_10">
      <!-- 0.75 -->
      <g transform="translate(60.734375 328.982958) scale(0.1 -0.1)">
       <use xlink:href="#DejaVuSans-30"/>
       <use xlink:href="#DejaVuSans-2e" transform="translate(63.623047 0)"/>
       <use xlink:href="#DejaVuSans-37" transform="translate(95.410156 0)"/>
       <use xlink:href="#DejaVuSans-35" transform="translate(159.033203 0)"/>
      </g>
     </g>
    </g>
    <g id="ytick_2">
     <g id="line2d_19">
      <path d="M 90 262.239736 
L 648 262.239736 
" clip-path="url(#pf64645489a)" style="fill: none; stroke-dasharray: 0.8,1.32; stroke-dashoffset: 0; stroke: #b0b0b0; stroke-width: 0.8"/>
     </g>
     <g id="line2d_20">
      <g>
       <use xlink:href="#me397429169" x="90" y="262.239736" style="stroke: #000000; stroke-width: 0.8"/>
      </g>
     </g>
     <g id="text_11">
      <!-- 0.80 -->
      <g transform="translate(60.734375 266.038955) scale(0.1 -0.1)">
       <defs>
        <path id="DejaVuSans-38" d="M 2034 2216 
Q 1584 2216 1326 1975 
Q 1069 1734 1069 1313 
Q 1069 891 1326 650 
Q 1584 409 2034 409 
Q 2484 409 2743 651 
Q 3003 894 3003 1313 
Q 3003 1734 2745 1975 
Q 2488 2216 2034 2216 
z
M 1403 2484 
Q 997 2584 770 2862 
Q 544 3141 544 3541 
Q 544 4100 942 4425 
Q 1341 4750 2034 4750 
Q 2731 4750 3128 4425 
Q 3525 4100 3525 3541 
Q 3525 3141 3298 2862 
Q 3072 2584 2669 2484 
Q 3125 2378 3379 2068 
Q 3634 1759 3634 1313 
Q 3634 634 3220 271 
Q 2806 -91 2034 -91 
Q 1263 -91 848 271 
Q 434 634 434 1313 
Q 434 1759 690 2068 
Q 947 2378 1403 2484 
z
M 1172 3481 
Q 1172 3119 1398 2916 
Q 1625 2713 2034 2713 
Q 2441 2713 2670 2916 
Q 2900 3119 2900 3481 
Q 2900 3844 2670 4047 
Q 2441 4250 2034 4250 
Q 1625 4250 1398 4047 
Q 1172 3844 1172 3481 
z
" transform="scale(0.015625)"/>
       </defs>
       <use xlink:href="#DejaVuSans-30"/>
       <use xlink:href="#DejaVuSans-2e" transform="translate(63.623047 0)"/>
       <use xlink:href="#DejaVuSans-38" transform="translate(95.410156 0)"/>
       <use xlink:href="#DejaVuSans-30" transform="translate(159.033203 0)"/>
      </g>
     </g>
    </g>
    <g id="ytick_3">
     <g id="line2d_21">
      <path d="M 90 199.295733 
L 648 199.295733 
" clip-path="url(#pf64645489a)" style="fill: none; stroke-dasharray: 0.8,1.32; stroke-dashoffset: 0; stroke: #b0b0b0; stroke-width: 0.8"/>
     </g>
     <g id="line2d_22">
      <g>
       <use xlink:href="#me397429169" x="90" y="199.295733" style="stroke: #000000; stroke-width: 0.8"/>
      </g>
     </g>
     <g id="text_12">
      <!-- 0.85 -->
      <g transform="translate(60.734375 203.094952) scale(0.1 -0.1)">
       <use xlink:href="#DejaVuSans-30"/>
       <use xlink:href="#DejaVuSans-2e" transform="translate(63.623047 0)"/>
       <use xlink:href="#DejaVuSans-38" transform="translate(95.410156 0)"/>
       <use xlink:href="#DejaVuSans-35" transform="translate(159.033203 0)"/>
      </g>
     </g>
    </g>
    <g id="ytick_4">
     <g id="line2d_23">
      <path d="M 90 136.35173 
L 648 136.35173 
" clip-path="url(#pf64645489a)" style="fill: none; stroke-dasharray: 0.8,1.32; stroke-dashoffset: 0; stroke: #b0b0b0; stroke-width: 0.8"/>
     </g>
     <g id="line2d_24">
      <g>
       <use xlink:href="#me397429169" x="90" y="136.35173" style="stroke: #000000; stroke-width: 0.8"/>
      </g>
     </g>
     <g id="text_13">
      <!-- 0.90 -->
      <g transform="translate(60.734375 140.150948) scale(0.1 -0.1)">
       <defs>
        <path id="DejaVuSans-39" d="M 703 97 
L 703 672 
Q 941 559 1184 500 
Q 1428 441 1663 441 
Q 2288 441 2617 861 
Q 2947 1281 2994 2138 
Q 2813 1869 2534 1725 
Q 2256 1581 1919 1581 
Q 1219 1581 811 2004 
Q 403 2428 403 3163 
Q 403 3881 828 4315 
Q 1253 4750 1959 4750 
Q 2769 4750 3195 4129 
Q 3622 3509 3622 2328 
Q 3622 1225 3098 567 
Q 2575 -91 1691 -91 
Q 1453 -91 1209 -44 
Q 966 3 703 97 
z
M 1959 2075 
Q 2384 2075 2632 2365 
Q 2881 2656 2881 3163 
Q 2881 3666 2632 3958 
Q 2384 4250 1959 4250 
Q 1534 4250 1286 3958 
Q 1038 3666 1038 3163 
Q 1038 2656 1286 2365 
Q 1534 2075 1959 2075 
z
" transform="scale(0.015625)"/>
       </defs>
       <use xlink:href="#DejaVuSans-30"/>
       <use xlink:href="#DejaVuSans-2e" transform="translate(63.623047 0)"/>
       <use xlink:href="#DejaVuSans-39" transform="translate(95.410156 0)"/>
       <use xlink:href="#DejaVuSans-30" transform="translate(159.033203 0)"/>
      </g>
     </g>
    </g>
    <g id="ytick_5">
     <g id="line2d_25">
      <path d="M 90 73.407726 
L 648 73.407726 
" clip-path="url(#pf64645489a)" style="fill: none; stroke-dasharray: 0.8,1.32; stroke-dashoffset: 0; stroke: #b0b0b0; stroke-width: 0.8"/>
     </g>
     <g id="line2d_26">
      <g>
       <use xlink:href="#me397429169" x="90" y="73.407726" style="stroke: #000000; stroke-width: 0.8"/>
      </g>
     </g>
     <g id="text_14">
      <!-- 0.95 -->
      <g transform="translate(60.734375 77.206945) scale(0.1 -0.1)">
       <use xlink:href="#DejaVuSans-30"/>
       <use xlink:href="#DejaVuSans-2e" transform="translate(63.623047 0)"/>
       <use xlink:href="#DejaVuSans-39" transform="translate(95.410156 0)"/>
       <use xlink:href="#DejaVuSans-35" transform="translate(159.033203 0)"/>
      </g>
     </g>
    </g>
    <g id="text_15">
     <!-- Fidelity -->
     <g transform="translate(54.654687 236.010781) rotate(-90) scale(0.1 -0.1)">
      <defs>
       <path id="DejaVuSans-46" d="M 628 4666 
L 3309 4666 
L 3309 4134 
L 1259 4134 
L 1259 2759 
L 3109 2759 
L 3109 2228 
L 1259 2228 
L 1259 0 
L 628 0 
L 628 4666 
z
" transform="scale(0.015625)"/>
       <path id="DejaVuSans-64" d="M 2906 2969 
L 2906 4863 
L 3481 4863 
L 3481 0 
L 2906 0 
L 2906 525 
Q 2725 213 2448 61 
Q 2172 -91 1784 -91 
Q 1150 -91 751 415 
Q 353 922 353 1747 
Q 353 2572 751 3078 
Q 1150 3584 1784 3584 
Q 2172 3584 2448 3432 
Q 2725 3281 2906 2969 
z
M 947 1747 
Q 947 1113 1208 752 
Q 1469 391 1925 391 
Q 2381 391 2643 752 
Q 2906 1113 2906 1747 
Q 2906 2381 2643 2742 
Q 2381 3103 1925 3103 
Q 1469 3103 1208 2742 
Q 947 2381 947 1747 
z
" transform="scale(0.015625)"/>
       <path id="DejaVuSans-6c" d="M 603 4863 
L 1178 4863 
L 1178 0 
L 603 0 
L 603 4863 
z
" transform="scale(0.015625)"/>
       <path id="DejaVuSans-79" d="M 2059 -325 
Q 1816 -950 1584 -1140 
Q 1353 -1331 966 -1331 
L 506 -1331 
L 506 -850 
L 844 -850 
Q 1081 -850 1212 -737 
Q 1344 -625 1503 -206 
L 1606 56 
L 191 3500 
L 800 3500 
L 1894 763 
L 2988 3500 
L 3597 3500 
L 2059 -325 
z
" transform="scale(0.015625)"/>
      </defs>
      <use xlink:href="#DejaVuSans-46"/>
      <use xlink:href="#DejaVuSans-69" transform="translate(50.269531 0)"/>
      <use xlink:href="#DejaVuSans-64" transform="translate(78.052734 0)"/>
      <use xlink:href="#DejaVuSans-65" transform="translate(141.529297 0)"/>
      <use xlink:href="#DejaVuSans-6c" transform="translate(203.052734 0)"/>
      <use xlink:href="#DejaVuSans-69" transform="translate(230.835938 0)"/>
      <use xlink:href="#DejaVuSans-74" transform="translate(258.619141 0)"/>
      <use xlink:href="#DejaVuSans-79" transform="translate(297.828125 0)"/>
     </g>
    </g>
   </g>
   <g id="line2d_27">
    <path d="M 115.363636 343.696682 
L 142.062201 296.014567 
L 168.760766 247.21152 
L 195.45933 199.960404 
L 222.157895 156.896361 
L 248.856459 119.966504 
L 275.555024 90.043245 
L 302.253589 66.96 
" clip-path="url(#pf64645489a)" style="fill: none; stroke: #1f77b4; stroke-width: 1.5; stroke-linecap: square"/>
    <defs>
     <path id="m79b3fcff87" d="M 0 3 
C 0.795609 3 1.55874 2.683901 2.12132 2.12132 
C 2.683901 1.55874 3 0.795609 3 0 
C 3 -0.795609 2.683901 -1.55874 2.12132 -2.12132 
C 1.55874 -2.683901 0.795609 -3 0 -3 
C -0.795609 -3 -1.55874 -2.683901 -2.12132 -2.12132 
C -2.683901 -1.55874 -3 -0.795609 -3 0 
C -3 0.795609 -2.683901 1.55874 -2.12132 2.12132 
C -1.55874 2.683901 -0.795609 3 0 3 
z
" style="stroke: #1f77b4"/>
    </defs>
    <g clip-path="url(#pf64645489a)">
     <use xlink:href="#m79b3fcff87" x="115.363636" y="343.696682" style="fill: #1f77b4; stroke: #1f77b4"/>
     <use xlink:href="#m79b3fcff87" x="142.062201" y="296.014567" style="fill: #1f77b4; stroke: #1f77b4"/>
     <use xlink:href="#m79b3fcff87" x="168.760766" y="247.21152" style="fill: #1f77b4; stroke: #1f77b4"/>
     <use xlink:href="#m79b3fcff87" x="195.45933" y="199.960404" style="fill: #1f77b4; stroke: #1f77b4"/>
     <use xlink:href="#m79b3fcff87" x="222.157895" y="156.896361" style="fill: #1f77b4; stroke: #1f77b4"/>
     <use xlink:href="#m79b3fcff87" x="248.856459" y="119.966504" style="fill: #1f77b4; stroke: #1f77b4"/>
     <use xlink:href="#m79b3fcff87" x="275.555024" y="90.043245" style="fill: #1f77b4; stroke: #1f77b4"/>
     <use xlink:href="#m79b3fcff87" x="302.253589" y="66.96" style="fill: #1f77b4; stroke: #1f77b4"/>
    </g>
   </g>
   <g id="line2d_28">
    <path d="M 115.363636 346.650548 
L 142.062201 302.391025 
L 168.760766 257.194033 
L 195.45933 213.336625 
L 222.157895 173.071571 
L 248.856459 138.11507 
L 275.555024 109.32184 
L 302.253589 86.676842 
L 328.952153 69.536478 
" clip-path="url(#pf64645489a)" style="fill: none; stroke: #ff7f0e; stroke-width: 1.5; stroke-linecap: square"/>
    <defs>
     <path id="m78c5399d33" d="M 0 3 
C 0.795609 3 1.55874 2.683901 2.12132 2.12132 
C 2.683901 1.55874 3 0.795609 3 0 
C 3 -0.795609 2.683901 -1.55874 2.12132 -2.12132 
C 1.55874 -2.683901 0.795609 -3 0 -3 
C -0.795609 -3 -1.55874 -2.683901 -2.12132 -2.12132 
C -2.683901 -1.55874 -3 -0.795609 -3 0 
C -3 0.795609 -2.683901 1.55874 -2.12132 2.12132 
C -1.55874 2.683901 -0.795609 3 0 3 
z
" style="stroke: #ff7f0e"/>
    </defs>
    <g clip-path="url(#pf64645489a)">
     <use xlink:href="#m78c5399d33" x="115.363636" y="346.650548" style="fill: #ff7f0e; stroke: #ff7f0e"/>
     <use xlink:href="#m78c5399d33" x="142.062201" y="302.391025" style="fill: #ff7f0e; stroke: #ff7f0e"/>
     <use xlink:href="#m78c5399d33" x="168.760766" y="257.194033" style="fill: #ff7f0e; stroke: #ff7f0e"/>
     <use xlink:href="#m78c5399d33" x="195.45933" y="213.336625" style="fill: #ff7f0e; stroke: #ff7f0e"/>
     <use xlink:href="#m78c5399d33" x="222.157895" y="173.071571" style="fill: #ff7f0e; stroke: #ff7f0e"/>
     <use xlink:href="#m78c5399d33" x="248.856459" y="138.11507" style="fill: #ff7f0e; stroke: #ff7f0e"/>
     <use xlink:href="#m78c5399d33" x="275.555024" y="109.32184" style="fill: #ff7f0e; stroke: #ff7f0e"/>
     <use xlink:href="#m78c5399d33" x="302.253589" y="86.676842" style="fill: #ff7f0e; stroke: #ff7f0e"/>
     <use xlink:href="#m78c5399d33" x="328.952153" y="69.536478" style="fill: #ff7f0e; stroke: #ff7f0e"/>
    </g>
   </g>
   <g id="line2d_29">
    <path d="M 115.363636 349.578288 
L 142.062201 308.676004 
L 168.760766 267.004885 
L 195.45933 226.487267 
L 222.157895 189.029608 
L 248.856459 156.125268 
L 275.555024 128.587848 
L 302.253589 106.516408 
L 328.952153 89.458995 
L 355.650718 76.657289 
L 382.349282 67.264925 
" clip-path="url(#pf64645489a)" style="fill: none; stroke: #2ca02c; stroke-width: 1.5; stroke-linecap: square"/>
    <defs>
     <path id="m01b7da3fd7" d="M 0 3 
C 0.795609 3 1.55874 2.683901 2.12132 2.12132 
C 2.683901 1.55874 3 0.795609 3 0 
C 3 -0.795609 2.683901 -1.55874 2.12132 -2.12132 
C 1.55874 -2.683901 0.795609 -3 0 -3 
C -0.795609 -3 -1.55874 -2.683901 -2.12132 -2.12132 
C -2.683901 -1.55874 -3 -0.795609 -3 0 
C -3 0.795609 -2.683901 1.55874 -2.12132 2.12132 
C -1.55874 2.683901 -0.795609 3 0 3 
z
" style="stroke: #2ca02c"/>
    </defs>
    <g clip-path="url(#pf64645489a)">
     <use xlink:href="#m01b7da3fd7" x="115.363636" y="349.578288" style="fill: #2ca02c; stroke: #2ca02c"/>
     <use xlink:href="#m01b7da3fd7" x="142.062201" y="308.676004" style="fill: #2ca02c; stroke: #2ca02c"/>
     <use xlink:href="#m01b7da3fd7" x="168.760766" y="267.004885" style="fill: #2ca02c; stroke: #2ca02c"/>
     <use xlink:href="#m01b7da3fd7" x="195.45933" y="226.487267" style="fill: #2ca02c; stroke: #2ca02c"/>
     <use xlink:href="#m01b7da3fd7" x="222.157895" y="189.029608" style="fill: #2ca02c; stroke: #2ca02c"/>
     <use xlink:href="#m01b7da3fd7" x="248.856459" y="156.125268" style="fill: #2ca02c; stroke: #2ca02c"/>
     <use xlink:href="#m01b7da3fd7" x="275.555024" y="128.587848" style="fill: #2ca02c; stroke: #2ca02c"/>
     <use xlink:href="#m01b7da3fd7" x="302.253589" y="106.516408" style="fill: #2ca02c; stroke: #2ca02c"/>
     <use xlink:href="#m01b7da3fd7" x="328.952153" y="89.458995" style="fill: #2ca02c; stroke: #2ca02c"/>
     <use xlink:href="#m01b7da3fd7" x="355.650718" y="76.657289" style="fill: #2ca02c; stroke: #2ca02c"/>
     <use xlink:href="#m01b7da3fd7" x="382.349282" y="67.264925" style="fill: #2ca02c; stroke: #2ca02c"/>
    </g>
   </g>
   <g id="line2d_30">
    <path d="M 115.363636 352.480127 
L 142.062201 314.870819 
L 168.760766 276.646303 
L 195.45933 239.412699 
L 222.157895 204.765059 
L 248.856459 173.984783 
L 275.555024 147.826106 
L 302.253589 126.468084 
L 328.952153 109.619055 
L 355.650718 96.696946 
L 382.349282 87.005254 
L 409.047847 79.859885 
L 435.746411 74.659118 
L 462.444976 70.909435 
" clip-path="url(#pf64645489a)" style="fill: none; stroke: #d62728; stroke-width: 1.5; stroke-linecap: square"/>
    <defs>
     <path id="md7a9155e18" d="M 0 3 
C 0.795609 3 1.55874 2.683901 2.12132 2.12132 
C 2.683901 1.55874 3 0.795609 3 0 
C 3 -0.795609 2.683901 -1.55874 2.12132 -2.12132 
C 1.55874 -2.683901 0.795609 -3 0 -3 
C -0.795609 -3 -1.55874 -2.683901 -2.12132 -2.12132 
C -2.683901 -1.55874 -3 -0.795609 -3 0 
C -3 0.795609 -2.683901 1.55874 -2.12132 2.12132 
C -1.55874 2.683901 -0.795609 3 0 3 
z
" style="stroke: #d62728"/>
    </defs>
    <g clip-path="url(#pf64645489a)">
     <use xlink:href="#md7a9155e18" x="115.363636" y="352.480127" style="fill: #d62728; stroke: #d62728"/>
     <use xlink:href="#md7a9155e18" x="142.062201" y="314.870819" style="fill: #d62728; stroke: #d62728"/>
     <use xlink:href="#md7a9155e18" x="168.760766" y="276.646303" style="fill: #d62728; stroke: #d62728"/>
     <use xlink:href="#md7a9155e18" x="195.45933" y="239.412699" style="fill: #d62728; stroke: #d62728"/>
     <use xlink:href="#md7a9155e18" x="222.157895" y="204.765059" style="fill: #d62728; stroke: #d62728"/>
     <use xlink:href="#md7a9155e18" x="248.856459" y="173.984783" style="fill: #d62728; stroke: #d62728"/>
     <use xlink:href="#md7a9155e18" x="275.555024" y="147.826106" style="fill: #d62728; stroke: #d62728"/>
     <use xlink:href="#md7a9155e18" x="302.253589" y="126.468084" style="fill: #d62728; stroke: #d62728"/>
     <use xlink:href="#md7a9155e18" x="328.952153" y="109.619055" style="fill: #d62728; stroke: #d62728"/>
     <use xlink:href="#md7a9155e18" x="355.650718" y="96.696946" style="fill: #d62728; stroke: #d62728"/>
     <use xlink:href="#md7a9155e18" x="382.349282" y="87.005254" style="fill: #d62728; stroke: #d62728"/>
     <use xlink:href="#md7a9155e18" x="409.047847" y="79.859885" style="fill: #d62728; stroke: #d62728"/>
     <use xlink:href="#md7a9155e18" x="435.746411" y="74.659118" style="fill: #d62728; stroke: #d62728"/>
     <use xlink:href="#md7a9155e18" x="462.444976" y="70.909435" style="fill: #d62728; stroke: #d62728"/>
    </g>
   </g>
   <g id="line2d_31">
    <path d="M 115.363636 355.356298 
L 142.062201 320.976789 
L 168.760766 286.120556 
L 195.45933 252.113513 
L 222.157895 220.272877 
L 248.856459 191.681295 
L 275.555024 167.020335 
L 302.253589 146.518821 
L 328.952153 130.014318 
L 355.650718 117.080329 
L 382.349282 107.162493 
L 409.047847 99.686252 
L 435.746411 94.123943 
L 462.444976 90.026319 
L 489.143541 87.029828 
L 515.842105 84.850417 
L 542.54067 83.271558 
L 569.239234 82.131059 
L 595.937799 81.30893 
L 622.636364 80.717193 
" clip-path="url(#pf64645489a)" style="fill: none; stroke: #9467bd; stroke-width: 1.5; stroke-linecap: square"/>
    <defs>
     <path id="m8ac06b5988" d="M 0 3 
C 0.795609 3 1.55874 2.683901 2.12132 2.12132 
C 2.683901 1.55874 3 0.795609 3 0 
C 3 -0.795609 2.683901 -1.55874 2.12132 -2.12132 
C 1.55874 -2.683901 0.795609 -3 0 -3 
C -0.795609 -3 -1.55874 -2.683901 -2.12132 -2.12132 
C -2.683901 -1.55874 -3 -0.795609 -3 0 
C -3 0.795609 -2.683901 1.55874 -2.12132 2.12132 
C -1.55874 2.683901 -0.795609 3 0 3 
z
" style="stroke: #9467bd"/>
    </defs>
    <g clip-path="url(#pf64645489a)">
     <use xlink:href="#m8ac06b5988" x="115.363636" y="355.356298" style="fill: #9467bd; stroke: #9467bd"/>
     <use xlink:href="#m8ac06b5988" x="142.062201" y="320.976789" style="fill: #9467bd; stroke: #9467bd"/>
     <use xlink:href="#m8ac06b5988" x="168.760766" y="286.120556" style="fill: #9467bd; stroke: #9467bd"/>
     <use xlink:href="#m8ac06b5988" x="195.45933" y="252.113513" style="fill: #9467bd; stroke: #9467bd"/>
     <use xlink:href="#m8ac06b5988" x="222.157895" y="220.272877" style="fill: #9467bd; stroke: #9467bd"/>
     <use xlink:href="#m8ac06b5988" x="248.856459" y="191.681295" style="fill: #9467bd; stroke: #9467bd"/>
     <use xlink:href="#m8ac06b5988" x="275.555024" y="167.020335" style="fill: #9467bd; stroke: #9467bd"/>
     <use xlink:href="#m8ac06b5988" x="302.253589" y="146.518821" style="fill: #9467bd; stroke: #9467bd"/>
     <use xlink:href="#m8ac06b5988" x="328.952153" y="130.014318" style="fill: #9467bd; stroke: #9467bd"/>
     <use xlink:href="#m8ac06b5988" x="355.650718" y="117.080329" style="fill: #9467bd; stroke: #9467bd"/>
     <use xlink:href="#m8ac06b5988" x="382.349282" y="107.162493" style="fill: #9467bd; stroke: #9467bd"/>
     <use xlink:href="#m8ac06b5988" x="409.047847" y="99.686252" style="fill: #9467bd; stroke: #9467bd"/>
     <use xlink:href="#m8ac06b5988" x="435.746411" y="94.123943" style="fill: #9467bd; stroke: #9467bd"/>
     <use xlink:href="#m8ac06b5988" x="462.444976" y="90.026319" style="fill: #9467bd; stroke: #9467bd"/>
     <use xlink:href="#m8ac06b5988" x="489.143541" y="87.029828" style="fill: #9467bd; stroke: #9467bd"/>
     <use xlink:href="#m8ac06b5988" x="515.842105" y="84.850417" style="fill: #9467bd; stroke: #9467bd"/>
     <use xlink:href="#m8ac06b5988" x="542.54067" y="83.271558" style="fill: #9467bd; stroke: #9467bd"/>
     <use xlink:href="#m8ac06b5988" x="569.239234" y="82.131059" style="fill: #9467bd; stroke: #9467bd"/>
     <use xlink:href="#m8ac06b5988" x="595.937799" y="81.30893" style="fill: #9467bd; stroke: #9467bd"/>
     <use xlink:href="#m8ac06b5988" x="622.636364" y="80.717193" style="fill: #9467bd; stroke: #9467bd"/>
    </g>
   </g>
   <g id="line2d_32">
    <path d="M 115.363636 358.207028 
L 142.062201 326.99521 
L 168.760766 295.429916 
L 195.45933 264.590459 
L 222.157895 235.548338 
L 248.856459 209.202489 
L 275.555024 186.153159 
L 302.253589 166.652993 
L 328.952153 150.638904 
L 355.650718 137.817272 
L 382.349282 127.764579 
L 409.047847 120.01444 
L 435.746411 114.117972 
L 462.444976 109.677388 
L 489.143541 106.359115 
L 515.842105 103.893981 
L 542.54067 102.070641 
L 569.239234 100.726385 
L 595.937799 99.737715 
L 622.636364 99.01186 
" clip-path="url(#pf64645489a)" style="fill: none; stroke: #8c564b; stroke-width: 1.5; stroke-linecap: square"/>
    <defs>
     <path id="m97e5505328" d="M 0 3 
C 0.795609 3 1.55874 2.683901 2.12132 2.12132 
C 2.683901 1.55874 3 0.795609 3 0 
C 3 -0.795609 2.683901 -1.55874 2.12132 -2.12132 
C 1.55874 -2.683901 0.795609 -3 0 -3 
C -0.795609 -3 -1.55874 -2.683901 -2.12132 -2.12132 
C -2.683901 -1.55874 -3 -0.795609 -3 0 
C -3 0.795609 -2.683901 1.55874 -2.12132 2.12132 
C -1.55874 2.683901 -0.795609 3 0 3 
z
" style="stroke: #8c564b"/>
    </defs>
    <g clip-path="url(#pf64645489a)">
     <use xlink:href="#m97e5505328" x="115.363636" y="358.207028" style="fill: #8c564b; stroke: #8c564b"/>
     <use xlink:href="#m97e5505328" x="142.062201" y="326.99521" style="fill: #8c564b; stroke: #8c564b"/>
     <use xlink:href="#m97e5505328" x="168.760766" y="295.429916" style="fill: #8c564b; stroke: #8c564b"/>
     <use xlink:href="#m97e5505328" x="195.45933" y="264.590459" style="fill: #8c564b; stroke: #8c564b"/>
     <use xlink:href="#m97e5505328" x="222.157895" y="235.548338" style="fill: #8c564b; stroke: #8c564b"/>
     <use xlink:href="#m97e5505328" x="248.856459" y="209.202489" style="fill: #8c564b; stroke: #8c564b"/>
     <use xlink:href="#m97e5505328" x="275.555024" y="186.153159" style="fill: #8c564b; stroke: #8c564b"/>
     <use xlink:href="#m97e5505328" x="302.253589" y="166.652993" style="fill: #8c564b; stroke: #8c564b"/>
     <use xlink:href="#m97e5505328" x="328.952153" y="150.638904" style="fill: #8c564b; stroke: #8c564b"/>
     <use xlink:href="#m97e5505328" x="355.650718" y="137.817272" style="fill: #8c564b; stroke: #8c564b"/>
     <use xlink:href="#m97e5505328" x="382.349282" y="127.764579" style="fill: #8c564b; stroke: #8c564b"/>
     <use xlink:href="#m97e5505328" x="409.047847" y="120.01444" style="fill: #8c564b; stroke: #8c564b"/>
     <use xlink:href="#m97e5505328" x="435.746411" y="114.117972" style="fill: #8c564b; stroke: #8c564b"/>
     <use xlink:href="#m97e5505328" x="462.444976" y="109.677388" style="fill: #8c564b; stroke: #8c564b"/>
     <use xlink:href="#m97e5505328" x="489.143541" y="106.359115" style="fill: #8c564b; stroke: #8c564b"/>
     <use xlink:href="#m97e5505328" x="515.842105" y="103.893981" style="fill: #8c564b; stroke: #8c564b"/>
     <use xlink:href="#m97e5505328" x="542.54067" y="102.070641" style="fill: #8c564b; stroke: #8c564b"/>
     <use xlink:href="#m97e5505328" x="569.239234" y="100.726385" style="fill: #8c564b; stroke: #8c564b"/>
     <use xlink:href="#m97e5505328" x="595.937799" y="99.737715" style="fill: #8c564b; stroke: #8c564b"/>
     <use xlink:href="#m97e5505328" x="622.636364" y="99.01186" style="fill: #8c564b; stroke: #8c564b"/>
    </g>
   </g>
   <g id="line2d_33">
    <path d="M 115.363636 361.03254 
L 142.062201 332.927353 
L 168.760766 304.576645 
L 195.45933 276.84444 
L 222.157895 250.587048 
L 248.856459 226.536128 
L 275.555024 205.206219 
L 302.253589 186.852365 
L 328.952153 171.483021 
L 355.650718 158.913589 
L 382.349282 148.836902 
L 409.047847 140.889852 
L 435.746411 134.704368 
L 462.444976 129.939833 
L 489.143541 126.299476 
L 515.842105 123.535393 
L 542.54067 121.446669 
L 569.239234 119.874012 
L 595.937799 118.693164 
L 622.636364 117.808341 
" clip-path="url(#pf64645489a)" style="fill: none; stroke: #e377c2; stroke-width: 1.5; stroke-linecap: square"/>
    <defs>
     <path id="m66ed1f9e95" d="M 0 3 
C 0.795609 3 1.55874 2.683901 2.12132 2.12132 
C 2.683901 1.55874 3 0.795609 3 0 
C 3 -0.795609 2.683901 -1.55874 2.12132 -2.12132 
C 1.55874 -2.683901 0.795609 -3 0 -3 
C -0.795609 -3 -1.55874 -2.683901 -2.12132 -2.12132 
C -2.683901 -1.55874 -3 -0.795609 -3 0 
C -3 0.795609 -2.683901 1.55874 -2.12132 2.12132 
C -1.55874 2.683901 -0.795609 3 0 3 
z
" style="stroke: #e377c2"/>
    </defs>
    <g clip-path="url(#pf64645489a)">
     <use xlink:href="#m66ed1f9e95" x="115.363636" y="361.03254" style="fill: #e377c2; stroke: #e377c2"/>
     <use xlink:href="#m66ed1f9e95" x="142.062201" y="332.927353" style="fill: #e377c2; stroke: #e377c2"/>
     <use xlink:href="#m66ed1f9e95" x="168.760766" y="304.576645" style="fill: #e377c2; stroke: #e377c2"/>
     <use xlink:href="#m66ed1f9e95" x="195.45933" y="276.84444" style="fill: #e377c2; stroke: #e377c2"/>
     <use xlink:href="#m66ed1f9e95" x="222.157895" y="250.587048" style="fill: #e377c2; stroke: #e377c2"/>
     <use xlink:href="#m66ed1f9e95" x="248.856459" y="226.536128" style="fill: #e377c2; stroke: #e377c2"/>
     <use xlink:href="#m66ed1f9e95" x="275.555024" y="205.206219" style="fill: #e377c2; stroke: #e377c2"/>
     <use xlink:href="#m66ed1f9e95" x="302.253589" y="186.852365" style="fill: #e377c2; stroke: #e377c2"/>
     <use xlink:href="#m66ed1f9e95" x="328.952153" y="171.483021" style="fill: #e377c2; stroke: #e377c2"/>
     <use xlink:href="#m66ed1f9e95" x="355.650718" y="158.913589" style="fill: #e377c2; stroke: #e377c2"/>
     <use xlink:href="#m66ed1f9e95" x="382.349282" y="148.836902" style="fill: #e377c2; stroke: #e377c2"/>
     <use xlink:href="#m66ed1f9e95" x="409.047847" y="140.889852" style="fill: #e377c2; stroke: #e377c2"/>
     <use xlink:href="#m66ed1f9e95" x="435.746411" y="134.704368" style="fill: #e377c2; stroke: #e377c2"/>
     <use xlink:href="#m66ed1f9e95" x="462.444976" y="129.939833" style="fill: #e377c2; stroke: #e377c2"/>
     <use xlink:href="#m66ed1f9e95" x="489.143541" y="126.299476" style="fill: #e377c2; stroke: #e377c2"/>
     <use xlink:href="#m66ed1f9e95" x="515.842105" y="123.535393" style="fill: #e377c2; stroke: #e377c2"/>
     <use xlink:href="#m66ed1f9e95" x="542.54067" y="121.446669" style="fill: #e377c2; stroke: #e377c2"/>
     <use xlink:href="#m66ed1f9e95" x="569.239234" y="119.874012" style="fill: #e377c2; stroke: #e377c2"/>
     <use xlink:href="#m66ed1f9e95" x="595.937799" y="118.693164" style="fill: #e377c2; stroke: #e377c2"/>
     <use xlink:href="#m66ed1f9e95" x="622.636364" y="117.808341" style="fill: #e377c2; stroke: #e377c2"/>
    </g>
   </g>
   <g id="line2d_34">
    <path d="M 115.363636 363.833059 
L 142.062201 338.774485 
L 168.760766 313.563032 
L 195.45933 288.876549 
L 222.157895 265.385016 
L 248.856459 243.670201 
L 275.555024 224.160367 
L 302.253589 207.096183 
L 328.952153 192.532692 
L 355.650718 180.370312 
L 382.349282 170.401154 
L 409.047847 162.356962 
L 435.746411 155.949352 
L 462.444976 150.898445 
L 489.143541 146.950067 
L 515.842105 143.883822 
L 542.54067 141.514869 
L 569.239234 139.691956 
L 595.937799 138.29356 
L 622.636364 137.223373 
" clip-path="url(#pf64645489a)" style="fill: none; stroke: #7f7f7f; stroke-width: 1.5; stroke-linecap: square"/>
    <defs>
     <path id="m187ffe3937" d="M 0 3 
C 0.795609 3 1.55874 2.683901 2.12132 2.12132 
C 2.683901 1.55874 3 0.795609 3 0 
C 3 -0.795609 2.683901 -1.55874 2.12132 -2.12132 
C 1.55874 -2.683901 0.795609 -3 0 -3 
C -0.795609 -3 -1.55874 -2.683901 -2.12132 -2.12132 
C -2.683901 -1.55874 -3 -0.795609 -3 0 
C -3 0.795609 -2.683901 1.55874 -2.12132 2.12132 
C -1.55874 2.683901 -0.795609 3 0 3 
z
" style="stroke: #7f7f7f"/>
    </defs>
    <g clip-path="url(#pf64645489a)">
     <use xlink:href="#m187ffe3937" x="115.363636" y="363.833059" style="fill: #7f7f7f; stroke: #7f7f7f"/>
     <use xlink:href="#m187ffe3937" x="142.062201" y="338.774485" style="fill: #7f7f7f; stroke: #7f7f7f"/>
     <use xlink:href="#m187ffe3937" x="168.760766" y="313.563032" style="fill: #7f7f7f; stroke: #7f7f7f"/>
     <use xlink:href="#m187ffe3937" x="195.45933" y="288.876549" style="fill: #7f7f7f; stroke: #7f7f7f"/>
     <use xlink:href="#m187ffe3937" x="222.157895" y="265.385016" style="fill: #7f7f7f; stroke: #7f7f7f"/>
     <use xlink:href="#m187ffe3937" x="248.856459" y="243.670201" style="fill: #7f7f7f; stroke: #7f7f7f"/>
     <use xlink:href="#m187ffe3937" x="275.555024" y="224.160367" style="fill: #7f7f7f; stroke: #7f7f7f"/>
     <use xlink:href="#m187ffe3937" x="302.253589" y="207.096183" style="fill: #7f7f7f; stroke: #7f7f7f"/>
     <use xlink:href="#m187ffe3937" x="328.952153" y="192.532692" style="fill: #7f7f7f; stroke: #7f7f7f"/>
     <use xlink:href="#m187ffe3937" x="355.650718" y="180.370312" style="fill: #7f7f7f; stroke: #7f7f7f"/>
     <use xlink:href="#m187ffe3937" x="382.349282" y="170.401154" style="fill: #7f7f7f; stroke: #7f7f7f"/>
     <use xlink:href="#m187ffe3937" x="409.047847" y="162.356962" style="fill: #7f7f7f; stroke: #7f7f7f"/>
     <use xlink:href="#m187ffe3937" x="435.746411" y="155.949352" style="fill: #7f7f7f; stroke: #7f7f7f"/>
     <use xlink:href="#m187ffe3937" x="462.444976" y="150.898445" style="fill: #7f7f7f; stroke: #7f7f7f"/>
     <use xlink:href="#m187ffe3937" x="489.143541" y="146.950067" style="fill: #7f7f7f; stroke: #7f7f7f"/>
     <use xlink:href="#m187ffe3937" x="515.842105" y="143.883822" style="fill: #7f7f7f; stroke: #7f7f7f"/>
     <use xlink:href="#m187ffe3937" x="542.54067" y="141.514869" style="fill: #7f7f7f; stroke: #7f7f7f"/>
     <use xlink:href="#m187ffe3937" x="569.239234" y="139.691956" style="fill: #7f7f7f; stroke: #7f7f7f"/>
     <use xlink:href="#m187ffe3937" x="595.937799" y="138.29356" style="fill: #7f7f7f; stroke: #7f7f7f"/>
     <use xlink:href="#m187ffe3937" x="622.636364" y="137.223373" style="fill: #7f7f7f; stroke: #7f7f7f"/>
    </g>
   </g>
   <g id="line2d_35">
    <path d="M 115.363636 366.608809 
L 142.062201 344.537858 
L 168.760766 322.391368 
L 195.45933 300.688032 
L 222.157895 279.938631 
L 248.856459 260.592968 
L 275.555024 242.995786 
L 302.253589 227.361211 
L 328.952153 213.769442 
L 355.650718 202.182796 
L 382.349282 192.473877 
L 409.047847 184.45763 
L 435.746411 177.920773 
L 462.444976 172.644967 
L 489.143541 168.422693 
L 515.842105 165.066539 
L 542.54067 162.413383 
L 569.239234 160.325077 
L 595.937799 158.687014 
L 622.636364 157.405602 
" clip-path="url(#pf64645489a)" style="fill: none; stroke: #bcbd22; stroke-width: 1.5; stroke-linecap: square"/>
    <defs>
     <path id="mafc6574cc7" d="M 0 3 
C 0.795609 3 1.55874 2.683901 2.12132 2.12132 
C 2.683901 1.55874 3 0.795609 3 0 
C 3 -0.795609 2.683901 -1.55874 2.12132 -2.12132 
C 1.55874 -2.683901 0.795609 -3 0 -3 
C -0.795609 -3 -1.55874 -2.683901 -2.12132 -2.12132 
C -2.683901 -1.55874 -3 -0.795609 -3 0 
C -3 0.795609 -2.683901 1.55874 -2.12132 2.12132 
C -1.55874 2.683901 -0.795609 3 0 3 
z
" style="stroke: #bcbd22"/>
    </defs>
    <g clip-path="url(#pf64645489a)">
     <use xlink:href="#mafc6574cc7" x="115.363636" y="366.608809" style="fill: #bcbd22; stroke: #bcbd22"/>
     <use xlink:href="#mafc6574cc7" x="142.062201" y="344.537858" style="fill: #bcbd22; stroke: #bcbd22"/>
     <use xlink:href="#mafc6574cc7" x="168.760766" y="322.391368" style="fill: #bcbd22; stroke: #bcbd22"/>
     <use xlink:href="#mafc6574cc7" x="195.45933" y="300.688032" style="fill: #bcbd22; stroke: #bcbd22"/>
     <use xlink:href="#mafc6574cc7" x="222.157895" y="279.938631" style="fill: #bcbd22; stroke: #bcbd22"/>
     <use xlink:href="#mafc6574cc7" x="248.856459" y="260.592968" style="fill: #bcbd22; stroke: #bcbd22"/>
     <use xlink:href="#mafc6574cc7" x="275.555024" y="242.995786" style="fill: #bcbd22; stroke: #bcbd22"/>
     <use xlink:href="#mafc6574cc7" x="302.253589" y="227.361211" style="fill: #bcbd22; stroke: #bcbd22"/>
     <use xlink:href="#mafc6574cc7" x="328.952153" y="213.769442" style="fill: #bcbd22; stroke: #bcbd22"/>
     <use xlink:href="#mafc6574cc7" x="355.650718" y="202.182796" style="fill: #bcbd22; stroke: #bcbd22"/>
     <use xlink:href="#mafc6574cc7" x="382.349282" y="192.473877" style="fill: #bcbd22; stroke: #bcbd22"/>
     <use xlink:href="#mafc6574cc7" x="409.047847" y="184.45763" style="fill: #bcbd22; stroke: #bcbd22"/>
     <use xlink:href="#mafc6574cc7" x="435.746411" y="177.920773" style="fill: #bcbd22; stroke: #bcbd22"/>
     <use xlink:href="#mafc6574cc7" x="462.444976" y="172.644967" style="fill: #bcbd22; stroke: #bcbd22"/>
     <use xlink:href="#mafc6574cc7" x="489.143541" y="168.422693" style="fill: #bcbd22; stroke: #bcbd22"/>
     <use xlink:href="#mafc6574cc7" x="515.842105" y="165.066539" style="fill: #bcbd22; stroke: #bcbd22"/>
     <use xlink:href="#mafc6574cc7" x="542.54067" y="162.413383" style="fill: #bcbd22; stroke: #bcbd22"/>
     <use xlink:href="#mafc6574cc7" x="569.239234" y="160.325077" style="fill: #bcbd22; stroke: #bcbd22"/>
     <use xlink:href="#mafc6574cc7" x="595.937799" y="158.687014" style="fill: #bcbd22; stroke: #bcbd22"/>
     <use xlink:href="#mafc6574cc7" x="622.636364" y="157.405602" style="fill: #bcbd22; stroke: #bcbd22"/>
    </g>
   </g>
   <g id="line2d_36">
    <path d="M 115.363636 369.36 
L 142.062201 350.218683 
L 168.760766 331.063909 
L 195.45933 312.280245 
L 222.157895 294.244618 
L 248.856459 277.292973 
L 275.555024 261.692087 
L 302.253589 247.621789 
L 328.952153 235.170014 
L 355.650718 224.339801 
L 382.349282 215.06481 
L 409.047847 207.228927 
L 435.746411 200.685955 
L 462.444976 195.276632 
L 489.143541 190.841667 
L 515.842105 187.230599 
L 542.54067 184.307023 
L 569.239234 181.950993 
L 595.937799 180.05945 
L 622.636364 178.545415 
" clip-path="url(#pf64645489a)" style="fill: none; stroke: #17becf; stroke-width: 1.5; stroke-linecap: square"/>
    <defs>
     <path id="mc433e4e145" d="M 0 3 
C 0.795609 3 1.55874 2.683901 2.12132 2.12132 
C 2.683901 1.55874 3 0.795609 3 0 
C 3 -0.795609 2.683901 -1.55874 2.12132 -2.12132 
C 1.55874 -2.683901 0.795609 -3 0 -3 
C -0.795609 -3 -1.55874 -2.683901 -2.12132 -2.12132 
C -2.683901 -1.55874 -3 -0.795609 -3 0 
C -3 0.795609 -2.683901 1.55874 -2.12132 2.12132 
C -1.55874 2.683901 -0.795609 3 0 3 
z
" style="stroke: #17becf"/>
    </defs>
    <g clip-path="url(#pf64645489a)">
     <use xlink:href="#mc433e4e145" x="115.363636" y="369.36" style="fill: #17becf; stroke: #17becf"/>
     <use xlink:href="#mc433e4e145" x="142.062201" y="350.218683" style="fill: #17becf; stroke: #17becf"/>
     <use xlink:href="#mc433e4e145" x="168.760766" y="331.063909" style="fill: #17becf; stroke: #17becf"/>
     <use xlink:href="#mc433e4e145" x="195.45933" y="312.280245" style="fill: #17becf; stroke: #17becf"/>
     <use xlink:href="#mc433e4e145" x="222.157895" y="294.244618" style="fill: #17becf; stroke: #17becf"/>
     <use xlink:href="#mc433e4e145" x="248.856459" y="277.292973" style="fill: #17becf; stroke: #17becf"/>
     <use xlink:href="#mc433e4e145" x="275.555024" y="261.692087" style="fill: #17becf; stroke: #17becf"/>
     <use xlink:href="#mc433e4e145" x="302.253589" y="247.621789" style="fill: #17becf; stroke: #17becf"/>
     <use xlink:href="#mc433e4e145" x="328.952153" y="235.170014" style="fill: #17becf; stroke: #17becf"/>
     <use xlink:href="#mc433e4e145" x="355.650718" y="224.339801" style="fill: #17becf; stroke: #17becf"/>
     <use xlink:href="#mc433e4e145" x="382.349282" y="215.06481" style="fill: #17becf; stroke: #17becf"/>
     <use xlink:href="#mc433e4e145" x="409.047847" y="207.228927" style="fill: #17becf; stroke: #17becf"/>
     <use xlink:href="#mc433e4e145" x="435.746411" y="200.685955" style="fill: #17becf; stroke: #17becf"/>
     <use xlink:href="#mc433e4e145" x="462.444976" y="195.276632" style="fill: #17becf; stroke: #17becf"/>
     <use xlink:href="#mc433e4e145" x="489.143541" y="190.841667" style="fill: #17becf; stroke: #17becf"/>
     <use xlink:href="#mc433e4e145" x="515.842105" y="187.230599" style="fill: #17becf; stroke: #17becf"/>
     <use xlink:href="#mc433e4e145" x="542.54067" y="184.307023" style="fill: #17becf; stroke: #17becf"/>
     <use xlink:href="#mc433e4e145" x="569.239234" y="181.950993" style="fill: #17becf; stroke: #17becf"/>
     <use xlink:href="#mc433e4e145" x="595.937799" y="180.05945" style="fill: #17becf; stroke: #17becf"/>
     <use xlink:href="#mc433e4e145" x="622.636364" y="178.545415" style="fill: #17becf; stroke: #17becf"/>
    </g>
   </g>
   <g id="line2d_37">
    <path d="M 90 73.407726 
L 648 73.407726 
" clip-path="url(#pf64645489a)" style="fill: none; stroke-dasharray: 5.55,2.4; stroke-dashoffset: 0; stroke: #ff0000; stroke-width: 1.5"/>
   </g>
   <g id="line2d_38">
    <path d="M 115.363636 384.48 
L 115.363636 51.84 
" clip-path="url(#pf64645489a)" style="fill: none; stroke-dasharray: 1.5,2.475; stroke-dashoffset: 0; stroke: #808080; stroke-opacity: 0.6; stroke-width: 1.5"/>
   </g>
   <g id="line2d_39">
    <path d="M 142.062201 384.48 
L 142.062201 51.84 
" clip-path="url(#pf64645489a)" style="fill: none; stroke-dasharray: 1.5,2.475; stroke-dashoffset: 0; stroke: #808080; stroke-opacity: 0.6; stroke-width: 1.5"/>
   </g>
   <g id="line2d_40">
    <path d="M 168.760766 384.48 
L 168.760766 51.84 
" clip-path="url(#pf64645489a)" style="fill: none; stroke-dasharray: 1.5,2.475; stroke-dashoffset: 0; stroke: #808080; stroke-opacity: 0.6; stroke-width: 1.5"/>
   </g>
   <g id="line2d_41">
    <path d="M 195.45933 384.48 
L 195.45933 51.84 
" clip-path="url(#pf64645489a)" style="fill: none; stroke-dasharray: 1.5,2.475; stroke-dashoffset: 0; stroke: #808080; stroke-opacity: 0.6; stroke-width: 1.5"/>
   </g>
   <g id="line2d_42">
    <path d="M 222.157895 384.48 
L 222.157895 51.84 
" clip-path="url(#pf64645489a)" style="fill: none; stroke-dasharray: 1.5,2.475; stroke-dashoffset: 0; stroke: #808080; stroke-opacity: 0.6; stroke-width: 1.5"/>
   </g>
   <g id="line2d_43">
    <path d="M 248.856459 384.48 
L 248.856459 51.84 
" clip-path="url(#pf64645489a)" style="fill: none; stroke-dasharray: 1.5,2.475; stroke-dashoffset: 0; stroke: #808080; stroke-opacity: 0.6; stroke-width: 1.5"/>
   </g>
   <g id="line2d_44">
    <path d="M 275.555024 384.48 
L 275.555024 51.84 
" clip-path="url(#pf64645489a)" style="fill: none; stroke-dasharray: 1.5,2.475; stroke-dashoffset: 0; stroke: #808080; stroke-opacity: 0.6; stroke-width: 1.5"/>
   </g>
   <g id="line2d_45">
    <path d="M 302.253589 384.48 
L 302.253589 51.84 
" clip-path="url(#pf64645489a)" style="fill: none; stroke-dasharray: 1.5,2.475; stroke-dashoffset: 0; stroke: #808080; stroke-opacity: 0.6; stroke-width: 1.5"/>
   </g>
   <g id="line2d_46">
    <path d="M 328.952153 384.48 
L 328.952153 51.84 
" clip-path="url(#pf64645489a)" style="fill: none; stroke-dasharray: 1.5,2.475; stroke-dashoffset: 0; stroke: #808080; stroke-opacity: 0.6; stroke-width: 1.5"/>
   </g>
   <g id="line2d_47">
    <path d="M 355.650718 384.48 
L 355.650718 51.84 
" clip-path="url(#pf64645489a)" style="fill: none; stroke-dasharray: 1.5,2.475; stroke-dashoffset: 0; stroke: #808080; stroke-opacity: 0.6; stroke-width: 1.5"/>
   </g>
   <g id="line2d_48">
    <path d="M 382.349282 384.48 
L 382.349282 51.84 
" clip-path="url(#pf64645489a)" style="fill: none; stroke-dasharray: 1.5,2.475; stroke-dashoffset: 0; stroke: #808080; stroke-opacity: 0.6; stroke-width: 1.5"/>
   </g>
   <g id="line2d_49">
    <path d="M 409.047847 384.48 
L 409.047847 51.84 
" clip-path="url(#pf64645489a)" style="fill: none; stroke-dasharray: 1.5,2.475; stroke-dashoffset: 0; stroke: #808080; stroke-opacity: 0.6; stroke-width: 1.5"/>
   </g>
   <g id="line2d_50">
    <path d="M 435.746411 384.48 
L 435.746411 51.84 
" clip-path="url(#pf64645489a)" style="fill: none; stroke-dasharray: 1.5,2.475; stroke-dashoffset: 0; stroke: #808080; stroke-opacity: 0.6; stroke-width: 1.5"/>
   </g>
   <g id="line2d_51">
    <path d="M 462.444976 384.48 
L 462.444976 51.84 
" clip-path="url(#pf64645489a)" style="fill: none; stroke-dasharray: 1.5,2.475; stroke-dashoffset: 0; stroke: #808080; stroke-opacity: 0.6; stroke-width: 1.5"/>
   </g>
   <g id="line2d_52">
    <path d="M 489.143541 384.48 
L 489.143541 51.84 
" clip-path="url(#pf64645489a)" style="fill: none; stroke-dasharray: 1.5,2.475; stroke-dashoffset: 0; stroke: #808080; stroke-opacity: 0.6; stroke-width: 1.5"/>
   </g>
   <g id="line2d_53">
    <path d="M 515.842105 384.48 
L 515.842105 51.84 
" clip-path="url(#pf64645489a)" style="fill: none; stroke-dasharray: 1.5,2.475; stroke-dashoffset: 0; stroke: #808080; stroke-opacity: 0.6; stroke-width: 1.5"/>
   </g>
   <g id="line2d_54">
    <path d="M 542.54067 384.48 
L 542.54067 51.84 
" clip-path="url(#pf64645489a)" style="fill: none; stroke-dasharray: 1.5,2.475; stroke-dashoffset: 0; stroke: #808080; stroke-opacity: 0.6; stroke-width: 1.5"/>
   </g>
   <g id="line2d_55">
    <path d="M 569.239234 384.48 
L 569.239234 51.84 
" clip-path="url(#pf64645489a)" style="fill: none; stroke-dasharray: 1.5,2.475; stroke-dashoffset: 0; stroke: #808080; stroke-opacity: 0.6; stroke-width: 1.5"/>
   </g>
   <g id="line2d_56">
    <path d="M 595.937799 384.48 
L 595.937799 51.84 
" clip-path="url(#pf64645489a)" style="fill: none; stroke-dasharray: 1.5,2.475; stroke-dashoffset: 0; stroke: #808080; stroke-opacity: 0.6; stroke-width: 1.5"/>
   </g>
   <g id="line2d_57">
    <path d="M 622.636364 384.48 
L 622.636364 51.84 
" clip-path="url(#pf64645489a)" style="fill: none; stroke-dasharray: 1.5,2.475; stroke-dashoffset: 0; stroke: #808080; stroke-opacity: 0.6; stroke-width: 1.5"/>
   </g>
   <g id="patch_3">
    <path d="M 90 384.48 
L 90 51.84 
" style="fill: none; stroke: #000000; stroke-width: 0.8; stroke-linejoin: miter; stroke-linecap: square"/>
   </g>
   <g id="patch_4">
    <path d="M 648 384.48 
L 648 51.84 
" style="fill: none; stroke: #000000; stroke-width: 0.8; stroke-linejoin: miter; stroke-linecap: square"/>
   </g>
   <g id="patch_5">
    <path d="M 90 384.48 
L 648 384.48 
" style="fill: none; stroke: #000000; stroke-width: 0.8; stroke-linejoin: miter; stroke-linecap: square"/>
   </g>
   <g id="patch_6">
    <path d="M 90 51.84 
L 648 51.84 
" style="fill: none; stroke: #000000; stroke-width: 0.8; stroke-linejoin: miter; stroke-linecap: square"/>
   </g>
   <g id="text_16">
    <!-- Bennett Protocol: Fidelity vs Purification Iterations (T1=200 s, T2=0.5 s) -->
    <g transform="translate(152.60625 45.84) scale(0.12 -0.12)">
     <defs>
      <path id="DejaVuSans-42" d="M 1259 2228 
L 1259 519 
L 2272 519 
Q 2781 519 3026 730 
Q 3272 941 3272 1375 
Q 3272 1813 3026 2020 
Q 2781 2228 2272 2228 
L 1259 2228 
z
M 1259 4147 
L 1259 2741 
L 2194 2741 
Q 2656 2741 2882 2914 
Q 3109 3088 3109 3444 
Q 3109 3797 2882 3972 
Q 2656 4147 2194 4147 
L 1259 4147 
z
M 628 4666 
L 2241 4666 
Q 2963 4666 3353 4366 
Q 3744 4066 3744 3513 
Q 3744 3084 3544 2831 
Q 3344 2578 2956 2516 
Q 3422 2416 3680 2098 
Q 3938 1781 3938 1306 
Q 3938 681 3513 340 
Q 3088 0 2303 0 
L 628 0 
L 628 4666 
z
" transform="scale(0.015625)"/>
      <path id="DejaVuSans-3a" d="M 750 794 
L 1409 794 
L 1409 0 
L 750 0 
L 750 794 
z
M 750 3309 
L 1409 3309 
L 1409 2516 
L 750 2516 
L 750 3309 
z
" transform="scale(0.015625)"/>
      <path id="DejaVuSans-76" d="M 191 3500 
L 800 3500 
L 1894 563 
L 2988 3500 
L 3597 3500 
L 2284 0 
L 1503 0 
L 191 3500 
z
" transform="scale(0.015625)"/>
      <path id="DejaVuSans-73" d="M 2834 3397 
L 2834 2853 
Q 2591 2978 2328 3040 
Q 2066 3103 1784 3103 
Q 1356 3103 1142 2972 
Q 928 2841 928 2578 
Q 928 2378 1081 2264 
Q 1234 2150 1697 2047 
L 1894 2003 
Q 2506 1872 2764 1633 
Q 3022 1394 3022 966 
Q 3022 478 2636 193 
Q 2250 -91 1575 -91 
Q 1294 -91 989 -36 
Q 684 19 347 128 
L 347 722 
Q 666 556 975 473 
Q 1284 391 1588 391 
Q 1994 391 2212 530 
Q 2431 669 2431 922 
Q 2431 1156 2273 1281 
Q 2116 1406 1581 1522 
L 1381 1569 
Q 847 1681 609 1914 
Q 372 2147 372 2553 
Q 372 3047 722 3315 
Q 1072 3584 1716 3584 
Q 2034 3584 2315 3537 
Q 2597 3491 2834 3397 
z
" transform="scale(0.015625)"/>
      <path id="DejaVuSans-28" d="M 1984 4856 
Q 1566 4138 1362 3434 
Q 1159 2731 1159 2009 
Q 1159 1288 1364 580 
Q 1569 -128 1984 -844 
L 1484 -844 
Q 1016 -109 783 600 
Q 550 1309 550 2009 
Q 550 2706 781 3412 
Q 1013 4119 1484 4856 
L 1984 4856 
z
" transform="scale(0.015625)"/>
      <path id="DejaVuSans-54" d="M -19 4666 
L 3928 4666 
L 3928 4134 
L 2272 4134 
L 2272 0 
L 1638 0 
L 1638 4134 
L -19 4134 
L -19 4666 
z
" transform="scale(0.015625)"/>
      <path id="DejaVuSans-3d" d="M 678 2906 
L 4684 2906 
L 4684 2381 
L 678 2381 
L 678 2906 
z
M 678 1631 
L 4684 1631 
L 4684 1100 
L 678 1100 
L 678 1631 
z
" transform="scale(0.015625)"/>
      <path id="DejaVuSans-2c" d="M 750 794 
L 1409 794 
L 1409 256 
L 897 -744 
L 494 -744 
L 750 256 
L 750 794 
z
" transform="scale(0.015625)"/>
      <path id="DejaVuSans-29" d="M 513 4856 
L 1013 4856 
Q 1481 4119 1714 3412 
Q 1947 2706 1947 2009 
Q 1947 1309 1714 600 
Q 1481 -109 1013 -844 
L 513 -844 
Q 928 -128 1133 580 
Q 1338 1288 1338 2009 
Q 1338 2731 1133 3434 
Q 928 4138 513 4856 
z
" transform="scale(0.015625)"/>
     </defs>
     <use xlink:href="#DejaVuSans-42"/>
     <use xlink:href="#DejaVuSans-65" transform="translate(68.603516 0)"/>
     <use xlink:href="#DejaVuSans-6e" transform="translate(130.126953 0)"/>
     <use xlink:href="#DejaVuSans-6e" transform="translate(193.505859 0)"/>
     <use xlink:href="#DejaVuSans-65" transform="translate(256.884766 0)"/>
     <use xlink:href="#DejaVuSans-74" transform="translate(318.408203 0)"/>
     <use xlink:href="#DejaVuSans-74" transform="translate(357.617188 0)"/>
     <use xlink:href="#DejaVuSans-20" transform="translate(396.826172 0)"/>
     <use xlink:href="#DejaVuSans-50" transform="translate(428.613281 0)"/>
     <use xlink:href="#DejaVuSans-72" transform="translate(487.166016 0)"/>
     <use xlink:href="#DejaVuSans-6f" transform="translate(526.029297 0)"/>
     <use xlink:href="#DejaVuSans-74" transform="translate(587.210938 0)"/>
     <use xlink:href="#DejaVuSans-6f" transform="translate(626.419922 0)"/>
     <use xlink:href="#DejaVuSans-63" transform="translate(687.601562 0)"/>
     <use xlink:href="#DejaVuSans-6f" transform="translate(742.582031 0)"/>
     <use xlink:href="#DejaVuSans-6c" transform="translate(803.763672 0)"/>
     <use xlink:href="#DejaVuSans-3a" transform="translate(831.546875 0)"/>
     <use xlink:href="#DejaVuSans-20" transform="translate(865.238281 0)"/>
     <use xlink:href="#DejaVuSans-46" transform="translate(897.025391 0)"/>
     <use xlink:href="#DejaVuSans-69" transform="translate(947.294922 0)"/>
     <use xlink:href="#DejaVuSans-64" transform="translate(975.078125 0)"/>
     <use xlink:href="#DejaVuSans-65" transform="translate(1038.554688 0)"/>
     <use xlink:href="#DejaVuSans-6c" transform="translate(1100.078125 0)"/>
     <use xlink:href="#DejaVuSans-69" transform="translate(1127.861328 0)"/>
     <use xlink:href="#DejaVuSans-74" transform="translate(1155.644531 0)"/>
     <use xlink:href="#DejaVuSans-79" transform="translate(1194.853516 0)"/>
     <use xlink:href="#DejaVuSans-20" transform="translate(1254.033203 0)"/>
     <use xlink:href="#DejaVuSans-76" transform="translate(1285.820312 0)"/>
     <use xlink:href="#DejaVuSans-73" transform="translate(1345 0)"/>
     <use xlink:href="#DejaVuSans-20" transform="translate(1397.099609 0)"/>
     <use xlink:href="#DejaVuSans-50" transform="translate(1428.886719 0)"/>
     <use xlink:href="#DejaVuSans-75" transform="translate(1487.439453 0)"/>
     <use xlink:href="#DejaVuSans-72" transform="translate(1550.818359 0)"/>
     <use xlink:href="#DejaVuSans-69" transform="translate(1591.931641 0)"/>
     <use xlink:href="#DejaVuSans-66" transform="translate(1619.714844 0)"/>
     <use xlink:href="#DejaVuSans-69" transform="translate(1654.919922 0)"/>
     <use xlink:href="#DejaVuSans-63" transform="translate(1682.703125 0)"/>
     <use xlink:href="#DejaVuSans-61" transform="translate(1737.683594 0)"/>
     <use xlink:href="#DejaVuSans-74" transform="translate(1798.962891 0)"/>
     <use xlink:href="#DejaVuSans-69" transform="translate(1838.171875 0)"/>
     <use xlink:href="#DejaVuSans-6f" transform="translate(1865.955078 0)"/>
     <use xlink:href="#DejaVuSans-6e" transform="translate(1927.136719 0)"/>
     <use xlink:href="#DejaVuSans-20" transform="translate(1990.515625 0)"/>
     <use xlink:href="#DejaVuSans-49" transform="translate(2022.302734 0)"/>
     <use xlink:href="#DejaVuSans-74" transform="translate(2051.794922 0)"/>
     <use xlink:href="#DejaVuSans-65" transform="translate(2091.003906 0)"/>
     <use xlink:href="#DejaVuSans-72" transform="translate(2152.527344 0)"/>
     <use xlink:href="#DejaVuSans-61" transform="translate(2193.640625 0)"/>
     <use xlink:href="#DejaVuSans-74" transform="translate(2254.919922 0)"/>
     <use xlink:href="#DejaVuSans-69" transform="translate(2294.128906 0)"/>
     <use xlink:href="#DejaVuSans-6f" transform="translate(2321.912109 0)"/>
     <use xlink:href="#DejaVuSans-6e" transform="translate(2383.09375 0)"/>
     <use xlink:href="#DejaVuSans-73" transform="translate(2446.472656 0)"/>
     <use xlink:href="#DejaVuSans-20" transform="translate(2498.572266 0)"/>
     <use xlink:href="#DejaVuSans-28" transform="translate(2530.359375 0)"/>
     <use xlink:href="#DejaVuSans-54" transform="translate(2569.373047 0)"/>
     <use xlink:href="#DejaVuSans-31" transform="translate(2630.457031 0)"/>
     <use xlink:href="#DejaVuSans-3d" transform="translate(2694.080078 0)"/>
     <use xlink:href="#DejaVuSans-32" transform="translate(2777.869141 0)"/>
     <use xlink:href="#DejaVuSans-30" transform="translate(2841.492188 0)"/>
     <use xlink:href="#DejaVuSans-30" transform="translate(2905.115234 0)"/>
     <use xlink:href="#DejaVuSans-20" transform="translate(2968.738281 0)"/>
     <use xlink:href="#DejaVuSans-73" transform="translate(3000.525391 0)"/>
     <use xlink:href="#DejaVuSans-2c" transform="translate(3052.625 0)"/>
     <use xlink:href="#DejaVuSans-20" transform="translate(3084.412109 0)"/>
     <use xlink:href="#DejaVuSans-54" transform="translate(3116.199219 0)"/>
     <use xlink:href="#DejaVuSans-32" transform="translate(3177.283203 0)"/>
     <use xlink:href="#DejaVuSans-3d" transform="translate(3240.90625 0)"/>
     <use xlink:href="#DejaVuSans-30" transform="translate(3324.695312 0)"/>
     <use xlink:href="#DejaVuSans-2e" transform="translate(3388.318359 0)"/>
     <use xlink:href="#DejaVuSans-35" transform="translate(3420.105469 0)"/>
     <use xlink:href="#DejaVuSans-20" transform="translate(3483.728516 0)"/>
     <use xlink:href="#DejaVuSans-73" transform="translate(3515.515625 0)"/>
     <use xlink:href="#DejaVuSans-29" transform="translate(3567.615234 0)"/>
    </g>
   </g>
   <g id="legend_1">
    <g id="patch_7">
     <path d="M 520.84375 379.48 
L 641 379.48 
Q 643 379.48 643 377.48 
L 643 217.020625 
Q 643 215.020625 641 215.020625 
L 520.84375 215.020625 
Q 518.84375 215.020625 518.84375 217.020625 
L 518.84375 377.48 
Q 518.84375 379.48 520.84375 379.48 
z
" style="fill: #ffffff; opacity: 0.8; stroke: #cccccc; stroke-linejoin: miter"/>
    </g>
    <g id="line2d_58">
     <path d="M 522.84375 223.119063 
L 532.84375 223.119063 
L 542.84375 223.119063 
" style="fill: none; stroke: #1f77b4; stroke-width: 1.5; stroke-linecap: square"/>
     <g>
      <use xlink:href="#m79b3fcff87" x="532.84375" y="223.119063" style="fill: #1f77b4; stroke: #1f77b4"/>
     </g>
    </g>
    <g id="text_17">
     <!-- Delay 0.000 ms -->
     <g transform="translate(550.84375 226.619063) scale(0.1 -0.1)">
      <defs>
       <path id="DejaVuSans-44" d="M 1259 4147 
L 1259 519 
L 2022 519 
Q 2988 519 3436 956 
Q 3884 1394 3884 2338 
Q 3884 3275 3436 3711 
Q 2988 4147 2022 4147 
L 1259 4147 
z
M 628 4666 
L 1925 4666 
Q 3281 4666 3915 4102 
Q 4550 3538 4550 2338 
Q 4550 1131 3912 565 
Q 3275 0 1925 0 
L 628 0 
L 628 4666 
z
" transform="scale(0.015625)"/>
       <path id="DejaVuSans-6d" d="M 3328 2828 
Q 3544 3216 3844 3400 
Q 4144 3584 4550 3584 
Q 5097 3584 5394 3201 
Q 5691 2819 5691 2113 
L 5691 0 
L 5113 0 
L 5113 2094 
Q 5113 2597 4934 2840 
Q 4756 3084 4391 3084 
Q 3944 3084 3684 2787 
Q 3425 2491 3425 1978 
L 3425 0 
L 2847 0 
L 2847 2094 
Q 2847 2600 2669 2842 
Q 2491 3084 2119 3084 
Q 1678 3084 1418 2786 
Q 1159 2488 1159 1978 
L 1159 0 
L 581 0 
L 581 3500 
L 1159 3500 
L 1159 2956 
Q 1356 3278 1631 3431 
Q 1906 3584 2284 3584 
Q 2666 3584 2933 3390 
Q 3200 3197 3328 2828 
z
" transform="scale(0.015625)"/>
      </defs>
      <use xlink:href="#DejaVuSans-44"/>
      <use xlink:href="#DejaVuSans-65" transform="translate(77.001953 0)"/>
      <use xlink:href="#DejaVuSans-6c" transform="translate(138.525391 0)"/>
      <use xlink:href="#DejaVuSans-61" transform="translate(166.308594 0)"/>
      <use xlink:href="#DejaVuSans-79" transform="translate(227.587891 0)"/>
      <use xlink:href="#DejaVuSans-20" transform="translate(286.767578 0)"/>
      <use xlink:href="#DejaVuSans-30" transform="translate(318.554688 0)"/>
      <use xlink:href="#DejaVuSans-2e" transform="translate(382.177734 0)"/>
      <use xlink:href="#DejaVuSans-30" transform="translate(413.964844 0)"/>
      <use xlink:href="#DejaVuSans-30" transform="translate(477.587891 0)"/>
      <use xlink:href="#DejaVuSans-30" transform="translate(541.210938 0)"/>
      <use xlink:href="#DejaVuSans-20" transform="translate(604.833984 0)"/>
      <use xlink:href="#DejaVuSans-6d" transform="translate(636.621094 0)"/>
      <use xlink:href="#DejaVuSans-73" transform="translate(734.033203 0)"/>
     </g>
    </g>
    <g id="line2d_59">
     <path d="M 522.84375 237.797188 
L 532.84375 237.797188 
L 542.84375 237.797188 
" style="fill: none; stroke: #ff7f0e; stroke-width: 1.5; stroke-linecap: square"/>
     <g>
      <use xlink:href="#m78c5399d33" x="532.84375" y="237.797188" style="fill: #ff7f0e; stroke: #ff7f0e"/>
     </g>
    </g>
    <g id="text_18">
     <!-- Delay 1.111 ms -->
     <g transform="translate(550.84375 241.297188) scale(0.1 -0.1)">
      <use xlink:href="#DejaVuSans-44"/>
      <use xlink:href="#DejaVuSans-65" transform="translate(77.001953 0)"/>
      <use xlink:href="#DejaVuSans-6c" transform="translate(138.525391 0)"/>
      <use xlink:href="#DejaVuSans-61" transform="translate(166.308594 0)"/>
      <use xlink:href="#DejaVuSans-79" transform="translate(227.587891 0)"/>
      <use xlink:href="#DejaVuSans-20" transform="translate(286.767578 0)"/>
      <use xlink:href="#DejaVuSans-31" transform="translate(318.554688 0)"/>
      <use xlink:href="#DejaVuSans-2e" transform="translate(382.177734 0)"/>
      <use xlink:href="#DejaVuSans-31" transform="translate(413.964844 0)"/>
      <use xlink:href="#DejaVuSans-31" transform="translate(477.587891 0)"/>
      <use xlink:href="#DejaVuSans-31" transform="translate(541.210938 0)"/>
      <use xlink:href="#DejaVuSans-20" transform="translate(604.833984 0)"/>
      <use xlink:href="#DejaVuSans-6d" transform="translate(636.621094 0)"/>
      <use xlink:href="#DejaVuSans-73" transform="translate(734.033203 0)"/>
     </g>
    </g>
    <g id="line2d_60">
     <path d="M 522.84375 252.475313 
L 532.84375 252.475313 
L 542.84375 252.475313 
" style="fill: none; stroke: #2ca02c; stroke-width: 1.5; stroke-linecap: square"/>
     <g>
      <use xlink:href="#m01b7da3fd7" x="532.84375" y="252.475313" style="fill: #2ca02c; stroke: #2ca02c"/>
     </g>
    </g>
    <g id="text_19">
     <!-- Delay 2.222 ms -->
     <g transform="translate(550.84375 255.975313) scale(0.1 -0.1)">
      <use xlink:href="#DejaVuSans-44"/>
      <use xlink:href="#DejaVuSans-65" transform="translate(77.001953 0)"/>
      <use xlink:href="#DejaVuSans-6c" transform="translate(138.525391 0)"/>
      <use xlink:href="#DejaVuSans-61" transform="translate(166.308594 0)"/>
      <use xlink:href="#DejaVuSans-79" transform="translate(227.587891 0)"/>
      <use xlink:href="#DejaVuSans-20" transform="translate(286.767578 0)"/>
      <use xlink:href="#DejaVuSans-32" transform="translate(318.554688 0)"/>
      <use xlink:href="#DejaVuSans-2e" transform="translate(382.177734 0)"/>
      <use xlink:href="#DejaVuSans-32" transform="translate(413.964844 0)"/>
      <use xlink:href="#DejaVuSans-32" transform="translate(477.587891 0)"/>
      <use xlink:href="#DejaVuSans-32" transform="translate(541.210938 0)"/>
      <use xlink:href="#DejaVuSans-20" transform="translate(604.833984 0)"/>
      <use xlink:href="#DejaVuSans-6d" transform="translate(636.621094 0)"/>
      <use xlink:href="#DejaVuSans-73" transform="translate(734.033203 0)"/>
     </g>
    </g>
    <g id="line2d_61">
     <path d="M 522.84375 267.153438 
L 532.84375 267.153438 
L 542.84375 267.153438 
" style="fill: none; stroke: #d62728; stroke-width: 1.5; stroke-linecap: square"/>
     <g>
      <use xlink:href="#md7a9155e18" x="532.84375" y="267.153438" style="fill: #d62728; stroke: #d62728"/>
     </g>
    </g>
    <g id="text_20">
     <!-- Delay 3.333 ms -->
     <g transform="translate(550.84375 270.653438) scale(0.1 -0.1)">
      <defs>
       <path id="DejaVuSans-33" d="M 2597 2516 
Q 3050 2419 3304 2112 
Q 3559 1806 3559 1356 
Q 3559 666 3084 287 
Q 2609 -91 1734 -91 
Q 1441 -91 1130 -33 
Q 819 25 488 141 
L 488 750 
Q 750 597 1062 519 
Q 1375 441 1716 441 
Q 2309 441 2620 675 
Q 2931 909 2931 1356 
Q 2931 1769 2642 2001 
Q 2353 2234 1838 2234 
L 1294 2234 
L 1294 2753 
L 1863 2753 
Q 2328 2753 2575 2939 
Q 2822 3125 2822 3475 
Q 2822 3834 2567 4026 
Q 2313 4219 1838 4219 
Q 1578 4219 1281 4162 
Q 984 4106 628 3988 
L 628 4550 
Q 988 4650 1302 4700 
Q 1616 4750 1894 4750 
Q 2613 4750 3031 4423 
Q 3450 4097 3450 3541 
Q 3450 3153 3228 2886 
Q 3006 2619 2597 2516 
z
" transform="scale(0.015625)"/>
      </defs>
      <use xlink:href="#DejaVuSans-44"/>
      <use xlink:href="#DejaVuSans-65" transform="translate(77.001953 0)"/>
      <use xlink:href="#DejaVuSans-6c" transform="translate(138.525391 0)"/>
      <use xlink:href="#DejaVuSans-61" transform="translate(166.308594 0)"/>
      <use xlink:href="#DejaVuSans-79" transform="translate(227.587891 0)"/>
      <use xlink:href="#DejaVuSans-20" transform="translate(286.767578 0)"/>
      <use xlink:href="#DejaVuSans-33" transform="translate(318.554688 0)"/>
      <use xlink:href="#DejaVuSans-2e" transform="translate(382.177734 0)"/>
      <use xlink:href="#DejaVuSans-33" transform="translate(413.964844 0)"/>
      <use xlink:href="#DejaVuSans-33" transform="translate(477.587891 0)"/>
      <use xlink:href="#DejaVuSans-33" transform="translate(541.210938 0)"/>
      <use xlink:href="#DejaVuSans-20" transform="translate(604.833984 0)"/>
      <use xlink:href="#DejaVuSans-6d" transform="translate(636.621094 0)"/>
      <use xlink:href="#DejaVuSans-73" transform="translate(734.033203 0)"/>
     </g>
    </g>
    <g id="line2d_62">
     <path d="M 522.84375 281.831563 
L 532.84375 281.831563 
L 542.84375 281.831563 
" style="fill: none; stroke: #9467bd; stroke-width: 1.5; stroke-linecap: square"/>
     <g>
      <use xlink:href="#m8ac06b5988" x="532.84375" y="281.831563" style="fill: #9467bd; stroke: #9467bd"/>
     </g>
    </g>
    <g id="text_21">
     <!-- Delay 4.444 ms -->
     <g transform="translate(550.84375 285.331563) scale(0.1 -0.1)">
      <defs>
       <path id="DejaVuSans-34" d="M 2419 4116 
L 825 1625 
L 2419 1625 
L 2419 4116 
z
M 2253 4666 
L 3047 4666 
L 3047 1625 
L 3713 1625 
L 3713 1100 
L 3047 1100 
L 3047 0 
L 2419 0 
L 2419 1100 
L 313 1100 
L 313 1709 
L 2253 4666 
z
" transform="scale(0.015625)"/>
      </defs>
      <use xlink:href="#DejaVuSans-44"/>
      <use xlink:href="#DejaVuSans-65" transform="translate(77.001953 0)"/>
      <use xlink:href="#DejaVuSans-6c" transform="translate(138.525391 0)"/>
      <use xlink:href="#DejaVuSans-61" transform="translate(166.308594 0)"/>
      <use xlink:href="#DejaVuSans-79" transform="translate(227.587891 0)"/>
      <use xlink:href="#DejaVuSans-20" transform="translate(286.767578 0)"/>
      <use xlink:href="#DejaVuSans-34" transform="translate(318.554688 0)"/>
      <use xlink:href="#DejaVuSans-2e" transform="translate(382.177734 0)"/>
      <use xlink:href="#DejaVuSans-34" transform="translate(413.964844 0)"/>
      <use xlink:href="#DejaVuSans-34" transform="translate(477.587891 0)"/>
      <use xlink:href="#DejaVuSans-34" transform="translate(541.210938 0)"/>
      <use xlink:href="#DejaVuSans-20" transform="translate(604.833984 0)"/>
      <use xlink:href="#DejaVuSans-6d" transform="translate(636.621094 0)"/>
      <use xlink:href="#DejaVuSans-73" transform="translate(734.033203 0)"/>
     </g>
    </g>
    <g id="line2d_63">
     <path d="M 522.84375 296.509688 
L 532.84375 296.509688 
L 542.84375 296.509688 
" style="fill: none; stroke: #8c564b; stroke-width: 1.5; stroke-linecap: square"/>
     <g>
      <use xlink:href="#m97e5505328" x="532.84375" y="296.509688" style="fill: #8c564b; stroke: #8c564b"/>
     </g>
    </g>
    <g id="text_22">
     <!-- Delay 5.556 ms -->
     <g transform="translate(550.84375 300.009688) scale(0.1 -0.1)">
      <defs>
       <path id="DejaVuSans-36" d="M 2113 2584 
Q 1688 2584 1439 2293 
Q 1191 2003 1191 1497 
Q 1191 994 1439 701 
Q 1688 409 2113 409 
Q 2538 409 2786 701 
Q 3034 994 3034 1497 
Q 3034 2003 2786 2293 
Q 2538 2584 2113 2584 
z
M 3366 4563 
L 3366 3988 
Q 3128 4100 2886 4159 
Q 2644 4219 2406 4219 
Q 1781 4219 1451 3797 
Q 1122 3375 1075 2522 
Q 1259 2794 1537 2939 
Q 1816 3084 2150 3084 
Q 2853 3084 3261 2657 
Q 3669 2231 3669 1497 
Q 3669 778 3244 343 
Q 2819 -91 2113 -91 
Q 1303 -91 875 529 
Q 447 1150 447 2328 
Q 447 3434 972 4092 
Q 1497 4750 2381 4750 
Q 2619 4750 2861 4703 
Q 3103 4656 3366 4563 
z
" transform="scale(0.015625)"/>
      </defs>
      <use xlink:href="#DejaVuSans-44"/>
      <use xlink:href="#DejaVuSans-65" transform="translate(77.001953 0)"/>
      <use xlink:href="#DejaVuSans-6c" transform="translate(138.525391 0)"/>
      <use xlink:href="#DejaVuSans-61" transform="translate(166.308594 0)"/>
      <use xlink:href="#DejaVuSans-79" transform="translate(227.587891 0)"/>
      <use xlink:href="#DejaVuSans-20" transform="translate(286.767578 0)"/>
      <use xlink:href="#DejaVuSans-35" transform="translate(318.554688 0)"/>
      <use xlink:href="#DejaVuSans-2e" transform="translate(382.177734 0)"/>
      <use xlink:href="#DejaVuSans-35" transform="translate(413.964844 0)"/>
      <use xlink:href="#DejaVuSans-35" transform="translate(477.587891 0)"/>
      <use xlink:href="#DejaVuSans-36" transform="translate(541.210938 0)"/>
      <use xlink:href="#DejaVuSans-20" transform="translate(604.833984 0)"/>
      <use xlink:href="#DejaVuSans-6d" transform="translate(636.621094 0)"/>
      <use xlink:href="#DejaVuSans-73" transform="translate(734.033203 0)"/>
     </g>
    </g>
    <g id="line2d_64">
     <path d="M 522.84375 311.187813 
L 532.84375 311.187813 
L 542.84375 311.187813 
" style="fill: none; stroke: #e377c2; stroke-width: 1.5; stroke-linecap: square"/>
     <g>
      <use xlink:href="#m66ed1f9e95" x="532.84375" y="311.187813" style="fill: #e377c2; stroke: #e377c2"/>
     </g>
    </g>
    <g id="text_23">
     <!-- Delay 6.667 ms -->
     <g transform="translate(550.84375 314.687813) scale(0.1 -0.1)">
      <use xlink:href="#DejaVuSans-44"/>
      <use xlink:href="#DejaVuSans-65" transform="translate(77.001953 0)"/>
      <use xlink:href="#DejaVuSans-6c" transform="translate(138.525391 0)"/>
      <use xlink:href="#DejaVuSans-61" transform="translate(166.308594 0)"/>
      <use xlink:href="#DejaVuSans-79" transform="translate(227.587891 0)"/>
      <use xlink:href="#DejaVuSans-20" transform="translate(286.767578 0)"/>
      <use xlink:href="#DejaVuSans-36" transform="translate(318.554688 0)"/>
      <use xlink:href="#DejaVuSans-2e" transform="translate(382.177734 0)"/>
      <use xlink:href="#DejaVuSans-36" transform="translate(413.964844 0)"/>
      <use xlink:href="#DejaVuSans-36" transform="translate(477.587891 0)"/>
      <use xlink:href="#DejaVuSans-37" transform="translate(541.210938 0)"/>
      <use xlink:href="#DejaVuSans-20" transform="translate(604.833984 0)"/>
      <use xlink:href="#DejaVuSans-6d" transform="translate(636.621094 0)"/>
      <use xlink:href="#DejaVuSans-73" transform="translate(734.033203 0)"/>
     </g>
    </g>
    <g id="line2d_65">
     <path d="M 522.84375 325.865938 
L 532.84375 325.865938 
L 542.84375 325.865938 
" style="fill: none; stroke: #7f7f7f; stroke-width: 1.5; stroke-linecap: square"/>
     <g>
      <use xlink:href="#m187ffe3937" x="532.84375" y="325.865938" style="fill: #7f7f7f; stroke: #7f7f7f"/>
     </g>
    </g>
    <g id="text_24">
     <!-- Delay 7.778 ms -->
     <g transform="translate(550.84375 329.365938) scale(0.1 -0.1)">
      <use xlink:href="#DejaVuSans-44"/>
      <use xlink:href="#DejaVuSans-65" transform="translate(77.001953 0)"/>
      <use xlink:href="#DejaVuSans-6c" transform="translate(138.525391 0)"/>
      <use xlink:href="#DejaVuSans-61" transform="translate(166.308594 0)"/>
      <use xlink:href="#DejaVuSans-79" transform="translate(227.587891 0)"/>
      <use xlink:href="#DejaVuSans-20" transform="translate(286.767578 0)"/>
      <use xlink:href="#DejaVuSans-37" transform="translate(318.554688 0)"/>
      <use xlink:href="#DejaVuSans-2e" transform="translate(382.177734 0)"/>
      <use xlink:href="#DejaVuSans-37" transform="translate(413.964844 0)"/>
      <use xlink:href="#DejaVuSans-37" transform="translate(477.587891 0)"/>
      <use xlink:href="#DejaVuSans-38" transform="translate(541.210938 0)"/>
      <use xlink:href="#DejaVuSans-20" transform="translate(604.833984 0)"/>
      <use xlink:href="#DejaVuSans-6d" transform="translate(636.621094 0)"/>
      <use xlink:href="#DejaVuSans-73" transform="translate(734.033203 0)"/>
     </g>
    </g>
    <g id="line2d_66">
     <path d="M 522.84375 340.544063 
L 532.84375 340.544063 
L 542.84375 340.544063 
" style="fill: none; stroke: #bcbd22; stroke-width: 1.5; stroke-linecap: square"/>
     <g>
      <use xlink:href="#mafc6574cc7" x="532.84375" y="340.544063" style="fill: #bcbd22; stroke: #bcbd22"/>
     </g>
    </g>
    <g id="text_25">
     <!-- Delay 8.889 ms -->
     <g transform="translate(550.84375 344.044063) scale(0.1 -0.1)">
      <use xlink:href="#DejaVuSans-44"/>
      <use xlink:href="#DejaVuSans-65" transform="translate(77.001953 0)"/>
      <use xlink:href="#DejaVuSans-6c" transform="translate(138.525391 0)"/>
      <use xlink:href="#DejaVuSans-61" transform="translate(166.308594 0)"/>
      <use xlink:href="#DejaVuSans-79" transform="translate(227.587891 0)"/>
      <use xlink:href="#DejaVuSans-20" transform="translate(286.767578 0)"/>
      <use xlink:href="#DejaVuSans-38" transform="translate(318.554688 0)"/>
      <use xlink:href="#DejaVuSans-2e" transform="translate(382.177734 0)"/>
      <use xlink:href="#DejaVuSans-38" transform="translate(413.964844 0)"/>
      <use xlink:href="#DejaVuSans-38" transform="translate(477.587891 0)"/>
      <use xlink:href="#DejaVuSans-39" transform="translate(541.210938 0)"/>
      <use xlink:href="#DejaVuSans-20" transform="translate(604.833984 0)"/>
      <use xlink:href="#DejaVuSans-6d" transform="translate(636.621094 0)"/>
      <use xlink:href="#DejaVuSans-73" transform="translate(734.033203 0)"/>
     </g>
    </g>
    <g id="line2d_67">
     <path d="M 522.84375 355.222188 
L 532.84375 355.222188 
L 542.84375 355.222188 
" style="fill: none; stroke: #17becf; stroke-width: 1.5; stroke-linecap: square"/>
     <g>
      <use xlink:href="#mc433e4e145" x="532.84375" y="355.222188" style="fill: #17becf; stroke: #17becf"/>
     </g>
    </g>
    <g id="text_26">
     <!-- Delay 10.000 ms -->
     <g transform="translate(550.84375 358.722188) scale(0.1 -0.1)">
      <use xlink:href="#DejaVuSans-44"/>
      <use xlink:href="#DejaVuSans-65" transform="translate(77.001953 0)"/>
      <use xlink:href="#DejaVuSans-6c" transform="translate(138.525391 0)"/>
      <use xlink:href="#DejaVuSans-61" transform="translate(166.308594 0)"/>
      <use xlink:href="#DejaVuSans-79" transform="translate(227.587891 0)"/>
      <use xlink:href="#DejaVuSans-20" transform="translate(286.767578 0)"/>
      <use xlink:href="#DejaVuSans-31" transform="translate(318.554688 0)"/>
      <use xlink:href="#DejaVuSans-30" transform="translate(382.177734 0)"/>
      <use xlink:href="#DejaVuSans-2e" transform="translate(445.800781 0)"/>
      <use xlink:href="#DejaVuSans-30" transform="translate(477.587891 0)"/>
      <use xlink:href="#DejaVuSans-30" transform="translate(541.210938 0)"/>
      <use xlink:href="#DejaVuSans-30" transform="translate(604.833984 0)"/>
      <use xlink:href="#DejaVuSans-20" transform="translate(668.457031 0)"/>
      <use xlink:href="#DejaVuSans-6d" transform="translate(700.244141 0)"/>
      <use xlink:href="#DejaVuSans-73" transform="translate(797.65625 0)"/>
     </g>
    </g>
    <g id="line2d_68">
     <path d="M 522.84375 369.900313 
L 532.84375 369.900313 
L 542.84375 369.900313 
" style="fill: none; stroke-dasharray: 5.55,2.4; stroke-dashoffset: 0; stroke: #ff0000; stroke-width: 1.5"/>
    </g>
    <g id="text_27">
     <!-- Threshold Fidelity -->
     <g transform="translate(550.84375 373.400313) scale(0.1 -0.1)">
      <defs>
       <path id="DejaVuSans-68" d="M 3513 2113 
L 3513 0 
L 2938 0 
L 2938 2094 
Q 2938 2591 2744 2837 
Q 2550 3084 2163 3084 
Q 1697 3084 1428 2787 
Q 1159 2491 1159 1978 
L 1159 0 
L 581 0 
L 581 4863 
L 1159 4863 
L 1159 2956 
Q 1366 3272 1645 3428 
Q 1925 3584 2291 3584 
Q 2894 3584 3203 3211 
Q 3513 2838 3513 2113 
z
" transform="scale(0.015625)"/>
      </defs>
      <use xlink:href="#DejaVuSans-54"/>
      <use xlink:href="#DejaVuSans-68" transform="translate(61.083984 0)"/>
      <use xlink:href="#DejaVuSans-72" transform="translate(124.462891 0)"/>
      <use xlink:href="#DejaVuSans-65" transform="translate(163.326172 0)"/>
      <use xlink:href="#DejaVuSans-73" transform="translate(224.849609 0)"/>
      <use xlink:href="#DejaVuSans-68" transform="translate(276.949219 0)"/>
      <use xlink:href="#DejaVuSans-6f" transform="translate(340.328125 0)"/>
      <use xlink:href="#DejaVuSans-6c" transform="translate(401.509766 0)"/>
      <use xlink:href="#DejaVuSans-64" transform="translate(429.292969 0)"/>
      <use xlink:href="#DejaVuSans-20" transform="translate(492.769531 0)"/>
      <use xlink:href="#DejaVuSans-46" transform="translate(524.556641 0)"/>
      <use xlink:href="#DejaVuSans-69" transform="translate(574.826172 0)"/>
      <use xlink:href="#DejaVuSans-64" transform="translate(602.609375 0)"/>
      <use xlink:href="#DejaVuSans-65" transform="translate(666.085938 0)"/>
      <use xlink:href="#DejaVuSans-6c" transform="translate(727.609375 0)"/>
      <use xlink:href="#DejaVuSans-69" transform="translate(755.392578 0)"/>
      <use xlink:href="#DejaVuSans-74" transform="translate(783.175781 0)"/>
      <use xlink:href="#DejaVuSans-79" transform="translate(822.384766 0)"/>
     </g>
    </g>
   </g>
  </g>
 </g>
 <defs>
  <clipPath id="pf64645489a">
   <rect x="90" y="51.84" width="558" height="332.64"/>
  </clipPath>
 </defs>
</svg>
