<?xml version="1.0" encoding="utf-8" standalone="no"?>
<!DOCTYPE svg PUBLIC "-//W3C//DTD SVG 1.1//EN"
  "http://www.w3.org/Graphics/SVG/1.1/DTD/svg11.dtd">
<svg xmlns:xlink="http://www.w3.org/1999/xlink" width="720pt" height="576pt" viewBox="0 0 720 576" xmlns="http://www.w3.org/2000/svg" version="1.1">
 <metadata>
  <rdf:RDF xmlns:dc="http://purl.org/dc/elements/1.1/" xmlns:cc="http://creativecommons.org/ns#" xmlns:rdf="http://www.w3.org/1999/02/22-rdf-syntax-ns#">
   <cc:Work>
    <dc:type rdf:resource="http://purl.org/dc/dcmitype/StillImage"/>
    <dc:date>2025-04-06T21:20:05.222831</dc:date>
    <dc:format>image/svg+xml</dc:format>
    <dc:creator>
     <cc:Agent>
      <dc:title>Matplotlib v3.10.1, https://matplotlib.org/</dc:title>
     </cc:Agent>
    </dc:creator>
   </cc:Work>
  </rdf:RDF>
 </metadata>
 <defs>
  <style type="text/css">*{stroke-linejoin: round; stroke-linecap: butt}</style>
 </defs>
 <g id="figure_1">
  <g id="patch_1">
   <path d="M 0 576 
L 720 576 
L 720 0 
L 0 0 
z
" style="fill: #ffffff"/>
  </g>
  <g id="axes_1">
   <g id="patch_2">
    <path d="M 90 512.64 
L 648 512.64 
L 648 69.12 
L 90 69.12 
z
" style="fill: #ffffff"/>
   </g>
   <g id="matplotlib.axis_1">
    <g id="xtick_1">
     <g id="line2d_1">
      <path d="M 199.909091 512.64 
L 199.909091 69.12 
" clip-path="url(#pcd255e2363)" style="fill: none; stroke: #b0b0b0; stroke-width: 0.8; stroke-linecap: square"/>
     </g>
     <g id="line2d_2">
      <defs>
       <path id="m03a4493e5a" d="M 0 0 
L 0 3.5 
" style="stroke: #000000; stroke-width: 0.8"/>
      </defs>
      <g>
       <use xlink:href="#m03a4493e5a" x="199.909091" y="512.64" style="stroke: #000000; stroke-width: 0.8"/>
      </g>
     </g>
     <g id="text_1">
      <!-- 0.2 -->
      <g transform="translate(191.957528 527.238438) scale(0.1 -0.1)">
       <defs>
        <path id="DejaVuSans-30" d="M 2034 4250 
Q 1547 4250 1301 3770 
Q 1056 3291 1056 2328 
Q 1056 1369 1301 889 
Q 1547 409 2034 409 
Q 2525 409 2770 889 
Q 3016 1369 3016 2328 
Q 3016 3291 2770 3770 
Q 2525 4250 2034 4250 
z
M 2034 4750 
Q 2819 4750 3233 4129 
Q 3647 3509 3647 2328 
Q 3647 1150 3233 529 
Q 2819 -91 2034 -91 
Q 1250 -91 836 529 
Q 422 1150 422 2328 
Q 422 3509 836 4129 
Q 1250 4750 2034 4750 
z
" transform="scale(0.015625)"/>
        <path id="DejaVuSans-2e" d="M 684 794 
L 1344 794 
L 1344 0 
L 684 0 
L 684 794 
z
" transform="scale(0.015625)"/>
        <path id="DejaVuSans-32" d="M 1228 531 
L 3431 531 
L 3431 0 
L 469 0 
L 469 531 
Q 828 903 1448 1529 
Q 2069 2156 2228 2338 
Q 2531 2678 2651 2914 
Q 2772 3150 2772 3378 
Q 2772 3750 2511 3984 
Q 2250 4219 1831 4219 
Q 1534 4219 1204 4116 
Q 875 4013 500 3803 
L 500 4441 
Q 881 4594 1212 4672 
Q 1544 4750 1819 4750 
Q 2544 4750 2975 4387 
Q 3406 4025 3406 3419 
Q 3406 3131 3298 2873 
Q 3191 2616 2906 2266 
Q 2828 2175 2409 1742 
Q 1991 1309 1228 531 
z
" transform="scale(0.015625)"/>
       </defs>
       <use xlink:href="#DejaVuSans-30"/>
       <use xlink:href="#DejaVuSans-2e" transform="translate(63.623047 0)"/>
       <use xlink:href="#DejaVuSans-32" transform="translate(95.410156 0)"/>
      </g>
     </g>
    </g>
    <g id="xtick_2">
     <g id="line2d_3">
      <path d="M 312.636364 512.64 
L 312.636364 69.12 
" clip-path="url(#pcd255e2363)" style="fill: none; stroke: #b0b0b0; stroke-width: 0.8; stroke-linecap: square"/>
     </g>
     <g id="line2d_4">
      <g>
       <use xlink:href="#m03a4493e5a" x="312.636364" y="512.64" style="stroke: #000000; stroke-width: 0.8"/>
      </g>
     </g>
     <g id="text_2">
      <!-- 0.4 -->
      <g transform="translate(304.684801 527.238438) scale(0.1 -0.1)">
       <defs>
        <path id="DejaVuSans-34" d="M 2419 4116 
L 825 1625 
L 2419 1625 
L 2419 4116 
z
M 2253 4666 
L 3047 4666 
L 3047 1625 
L 3713 1625 
L 3713 1100 
L 3047 1100 
L 3047 0 
L 2419 0 
L 2419 1100 
L 313 1100 
L 313 1709 
L 2253 4666 
z
" transform="scale(0.015625)"/>
       </defs>
       <use xlink:href="#DejaVuSans-30"/>
       <use xlink:href="#DejaVuSans-2e" transform="translate(63.623047 0)"/>
       <use xlink:href="#DejaVuSans-34" transform="translate(95.410156 0)"/>
      </g>
     </g>
    </g>
    <g id="xtick_3">
     <g id="line2d_5">
      <path d="M 425.363636 512.64 
L 425.363636 69.12 
" clip-path="url(#pcd255e2363)" style="fill: none; stroke: #b0b0b0; stroke-width: 0.8; stroke-linecap: square"/>
     </g>
     <g id="line2d_6">
      <g>
       <use xlink:href="#m03a4493e5a" x="425.363636" y="512.64" style="stroke: #000000; stroke-width: 0.8"/>
      </g>
     </g>
     <g id="text_3">
      <!-- 0.6 -->
      <g transform="translate(417.412074 527.238438) scale(0.1 -0.1)">
       <defs>
        <path id="DejaVuSans-36" d="M 2113 2584 
Q 1688 2584 1439 2293 
Q 1191 2003 1191 1497 
Q 1191 994 1439 701 
Q 1688 409 2113 409 
Q 2538 409 2786 701 
Q 3034 994 3034 1497 
Q 3034 2003 2786 2293 
Q 2538 2584 2113 2584 
z
M 3366 4563 
L 3366 3988 
Q 3128 4100 2886 4159 
Q 2644 4219 2406 4219 
Q 1781 4219 1451 3797 
Q 1122 3375 1075 2522 
Q 1259 2794 1537 2939 
Q 1816 3084 2150 3084 
Q 2853 3084 3261 2657 
Q 3669 2231 3669 1497 
Q 3669 778 3244 343 
Q 2819 -91 2113 -91 
Q 1303 -91 875 529 
Q 447 1150 447 2328 
Q 447 3434 972 4092 
Q 1497 4750 2381 4750 
Q 2619 4750 2861 4703 
Q 3103 4656 3366 4563 
z
" transform="scale(0.015625)"/>
       </defs>
       <use xlink:href="#DejaVuSans-30"/>
       <use xlink:href="#DejaVuSans-2e" transform="translate(63.623047 0)"/>
       <use xlink:href="#DejaVuSans-36" transform="translate(95.410156 0)"/>
      </g>
     </g>
    </g>
    <g id="xtick_4">
     <g id="line2d_7">
      <path d="M 538.090909 512.64 
L 538.090909 69.12 
" clip-path="url(#pcd255e2363)" style="fill: none; stroke: #b0b0b0; stroke-width: 0.8; stroke-linecap: square"/>
     </g>
     <g id="line2d_8">
      <g>
       <use xlink:href="#m03a4493e5a" x="538.090909" y="512.64" style="stroke: #000000; stroke-width: 0.8"/>
      </g>
     </g>
     <g id="text_4">
      <!-- 0.8 -->
      <g transform="translate(530.139347 527.238438) scale(0.1 -0.1)">
       <defs>
        <path id="DejaVuSans-38" d="M 2034 2216 
Q 1584 2216 1326 1975 
Q 1069 1734 1069 1313 
Q 1069 891 1326 650 
Q 1584 409 2034 409 
Q 2484 409 2743 651 
Q 3003 894 3003 1313 
Q 3003 1734 2745 1975 
Q 2488 2216 2034 2216 
z
M 1403 2484 
Q 997 2584 770 2862 
Q 544 3141 544 3541 
Q 544 4100 942 4425 
Q 1341 4750 2034 4750 
Q 2731 4750 3128 4425 
Q 3525 4100 3525 3541 
Q 3525 3141 3298 2862 
Q 3072 2584 2669 2484 
Q 3125 2378 3379 2068 
Q 3634 1759 3634 1313 
Q 3634 634 3220 271 
Q 2806 -91 2034 -91 
Q 1263 -91 848 271 
Q 434 634 434 1313 
Q 434 1759 690 2068 
Q 947 2378 1403 2484 
z
M 1172 3481 
Q 1172 3119 1398 2916 
Q 1625 2713 2034 2713 
Q 2441 2713 2670 2916 
Q 2900 3119 2900 3481 
Q 2900 3844 2670 4047 
Q 2441 4250 2034 4250 
Q 1625 4250 1398 4047 
Q 1172 3844 1172 3481 
z
" transform="scale(0.015625)"/>
       </defs>
       <use xlink:href="#DejaVuSans-30"/>
       <use xlink:href="#DejaVuSans-2e" transform="translate(63.623047 0)"/>
       <use xlink:href="#DejaVuSans-38" transform="translate(95.410156 0)"/>
      </g>
     </g>
    </g>
    <g id="text_5">
     <!-- Input Fidelity -->
     <g transform="translate(336.613281 540.916563) scale(0.1 -0.1)">
      <defs>
       <path id="DejaVuSans-49" d="M 628 4666 
L 1259 4666 
L 1259 0 
L 628 0 
L 628 4666 
z
" transform="scale(0.015625)"/>
       <path id="DejaVuSans-6e" d="M 3513 2113 
L 3513 0 
L 2938 0 
L 2938 2094 
Q 2938 2591 2744 2837 
Q 2550 3084 2163 3084 
Q 1697 3084 1428 2787 
Q 1159 2491 1159 1978 
L 1159 0 
L 581 0 
L 581 3500 
L 1159 3500 
L 1159 2956 
Q 1366 3272 1645 3428 
Q 1925 3584 2291 3584 
Q 2894 3584 3203 3211 
Q 3513 2838 3513 2113 
z
" transform="scale(0.015625)"/>
       <path id="DejaVuSans-70" d="M 1159 525 
L 1159 -1331 
L 581 -1331 
L 581 3500 
L 1159 3500 
L 1159 2969 
Q 1341 3281 1617 3432 
Q 1894 3584 2278 3584 
Q 2916 3584 3314 3078 
Q 3713 2572 3713 1747 
Q 3713 922 3314 415 
Q 2916 -91 2278 -91 
Q 1894 -91 1617 61 
Q 1341 213 1159 525 
z
M 3116 1747 
Q 3116 2381 2855 2742 
Q 2594 3103 2138 3103 
Q 1681 3103 1420 2742 
Q 1159 2381 1159 1747 
Q 1159 1113 1420 752 
Q 1681 391 2138 391 
Q 2594 391 2855 752 
Q 3116 1113 3116 1747 
z
" transform="scale(0.015625)"/>
       <path id="DejaVuSans-75" d="M 544 1381 
L 544 3500 
L 1119 3500 
L 1119 1403 
Q 1119 906 1312 657 
Q 1506 409 1894 409 
Q 2359 409 2629 706 
Q 2900 1003 2900 1516 
L 2900 3500 
L 3475 3500 
L 3475 0 
L 2900 0 
L 2900 538 
Q 2691 219 2414 64 
Q 2138 -91 1772 -91 
Q 1169 -91 856 284 
Q 544 659 544 1381 
z
M 1991 3584 
L 1991 3584 
z
" transform="scale(0.015625)"/>
       <path id="DejaVuSans-74" d="M 1172 4494 
L 1172 3500 
L 2356 3500 
L 2356 3053 
L 1172 3053 
L 1172 1153 
Q 1172 725 1289 603 
Q 1406 481 1766 481 
L 2356 481 
L 2356 0 
L 1766 0 
Q 1100 0 847 248 
Q 594 497 594 1153 
L 594 3053 
L 172 3053 
L 172 3500 
L 594 3500 
L 594 4494 
L 1172 4494 
z
" transform="scale(0.015625)"/>
       <path id="DejaVuSans-20" transform="scale(0.015625)"/>
       <path id="DejaVuSans-46" d="M 628 4666 
L 3309 4666 
L 3309 4134 
L 1259 4134 
L 1259 2759 
L 3109 2759 
L 3109 2228 
L 1259 2228 
L 1259 0 
L 628 0 
L 628 4666 
z
" transform="scale(0.015625)"/>
       <path id="DejaVuSans-69" d="M 603 3500 
L 1178 3500 
L 1178 0 
L 603 0 
L 603 3500 
z
M 603 4863 
L 1178 4863 
L 1178 4134 
L 603 4134 
L 603 4863 
z
" transform="scale(0.015625)"/>
       <path id="DejaVuSans-64" d="M 2906 2969 
L 2906 4863 
L 3481 4863 
L 3481 0 
L 2906 0 
L 2906 525 
Q 2725 213 2448 61 
Q 2172 -91 1784 -91 
Q 1150 -91 751 415 
Q 353 922 353 1747 
Q 353 2572 751 3078 
Q 1150 3584 1784 3584 
Q 2172 3584 2448 3432 
Q 2725 3281 2906 2969 
z
M 947 1747 
Q 947 1113 1208 752 
Q 1469 391 1925 391 
Q 2381 391 2643 752 
Q 2906 1113 2906 1747 
Q 2906 2381 2643 2742 
Q 2381 3103 1925 3103 
Q 1469 3103 1208 2742 
Q 947 2381 947 1747 
z
" transform="scale(0.015625)"/>
       <path id="DejaVuSans-65" d="M 3597 1894 
L 3597 1613 
L 953 1613 
Q 991 1019 1311 708 
Q 1631 397 2203 397 
Q 2534 397 2845 478 
Q 3156 559 3463 722 
L 3463 178 
Q 3153 47 2828 -22 
Q 2503 -91 2169 -91 
Q 1331 -91 842 396 
Q 353 884 353 1716 
Q 353 2575 817 3079 
Q 1281 3584 2069 3584 
Q 2775 3584 3186 3129 
Q 3597 2675 3597 1894 
z
M 3022 2063 
Q 3016 2534 2758 2815 
Q 2500 3097 2075 3097 
Q 1594 3097 1305 2825 
Q 1016 2553 972 2059 
L 3022 2063 
z
" transform="scale(0.015625)"/>
       <path id="DejaVuSans-6c" d="M 603 4863 
L 1178 4863 
L 1178 0 
L 603 0 
L 603 4863 
z
" transform="scale(0.015625)"/>
       <path id="DejaVuSans-79" d="M 2059 -325 
Q 1816 -950 1584 -1140 
Q 1353 -1331 966 -1331 
L 506 -1331 
L 506 -850 
L 844 -850 
Q 1081 -850 1212 -737 
Q 1344 -625 1503 -206 
L 1606 56 
L 191 3500 
L 800 3500 
L 1894 763 
L 2988 3500 
L 3597 3500 
L 2059 -325 
z
" transform="scale(0.015625)"/>
      </defs>
      <use xlink:href="#DejaVuSans-49"/>
      <use xlink:href="#DejaVuSans-6e" transform="translate(29.492188 0)"/>
      <use xlink:href="#DejaVuSans-70" transform="translate(92.871094 0)"/>
      <use xlink:href="#DejaVuSans-75" transform="translate(156.347656 0)"/>
      <use xlink:href="#DejaVuSans-74" transform="translate(219.726562 0)"/>
      <use xlink:href="#DejaVuSans-20" transform="translate(258.935547 0)"/>
      <use xlink:href="#DejaVuSans-46" transform="translate(290.722656 0)"/>
      <use xlink:href="#DejaVuSans-69" transform="translate(340.992188 0)"/>
      <use xlink:href="#DejaVuSans-64" transform="translate(368.775391 0)"/>
      <use xlink:href="#DejaVuSans-65" transform="translate(432.251953 0)"/>
      <use xlink:href="#DejaVuSans-6c" transform="translate(493.775391 0)"/>
      <use xlink:href="#DejaVuSans-69" transform="translate(521.558594 0)"/>
      <use xlink:href="#DejaVuSans-74" transform="translate(549.341797 0)"/>
      <use xlink:href="#DejaVuSans-79" transform="translate(588.550781 0)"/>
     </g>
    </g>
   </g>
   <g id="matplotlib.axis_2">
    <g id="ytick_1">
     <g id="line2d_9">
      <path d="M 90 512.64 
L 648 512.64 
" clip-path="url(#pcd255e2363)" style="fill: none; stroke: #b0b0b0; stroke-width: 0.8; stroke-linecap: square"/>
     </g>
     <g id="line2d_10">
      <defs>
       <path id="m94b19397ac" d="M 0 0 
L -3.5 0 
" style="stroke: #000000; stroke-width: 0.8"/>
      </defs>
      <g>
       <use xlink:href="#m94b19397ac" x="90" y="512.64" style="stroke: #000000; stroke-width: 0.8"/>
      </g>
     </g>
     <g id="text_6">
      <!-- 0.0 -->
      <g transform="translate(67.096875 516.439219) scale(0.1 -0.1)">
       <use xlink:href="#DejaVuSans-30"/>
       <use xlink:href="#DejaVuSans-2e" transform="translate(63.623047 0)"/>
       <use xlink:href="#DejaVuSans-30" transform="translate(95.410156 0)"/>
      </g>
     </g>
    </g>
    <g id="ytick_2">
     <g id="line2d_11">
      <path d="M 90 428.16 
L 648 428.16 
" clip-path="url(#pcd255e2363)" style="fill: none; stroke: #b0b0b0; stroke-width: 0.8; stroke-linecap: square"/>
     </g>
     <g id="line2d_12">
      <g>
       <use xlink:href="#m94b19397ac" x="90" y="428.16" style="stroke: #000000; stroke-width: 0.8"/>
      </g>
     </g>
     <g id="text_7">
      <!-- 0.2 -->
      <g transform="translate(67.096875 431.959219) scale(0.1 -0.1)">
       <use xlink:href="#DejaVuSans-30"/>
       <use xlink:href="#DejaVuSans-2e" transform="translate(63.623047 0)"/>
       <use xlink:href="#DejaVuSans-32" transform="translate(95.410156 0)"/>
      </g>
     </g>
    </g>
    <g id="ytick_3">
     <g id="line2d_13">
      <path d="M 90 343.68 
L 648 343.68 
" clip-path="url(#pcd255e2363)" style="fill: none; stroke: #b0b0b0; stroke-width: 0.8; stroke-linecap: square"/>
     </g>
     <g id="line2d_14">
      <g>
       <use xlink:href="#m94b19397ac" x="90" y="343.68" style="stroke: #000000; stroke-width: 0.8"/>
      </g>
     </g>
     <g id="text_8">
      <!-- 0.4 -->
      <g transform="translate(67.096875 347.479219) scale(0.1 -0.1)">
       <use xlink:href="#DejaVuSans-30"/>
       <use xlink:href="#DejaVuSans-2e" transform="translate(63.623047 0)"/>
       <use xlink:href="#DejaVuSans-34" transform="translate(95.410156 0)"/>
      </g>
     </g>
    </g>
    <g id="ytick_4">
     <g id="line2d_15">
      <path d="M 90 259.2 
L 648 259.2 
" clip-path="url(#pcd255e2363)" style="fill: none; stroke: #b0b0b0; stroke-width: 0.8; stroke-linecap: square"/>
     </g>
     <g id="line2d_16">
      <g>
       <use xlink:href="#m94b19397ac" x="90" y="259.2" style="stroke: #000000; stroke-width: 0.8"/>
      </g>
     </g>
     <g id="text_9">
      <!-- 0.6 -->
      <g transform="translate(67.096875 262.999219) scale(0.1 -0.1)">
       <use xlink:href="#DejaVuSans-30"/>
       <use xlink:href="#DejaVuSans-2e" transform="translate(63.623047 0)"/>
       <use xlink:href="#DejaVuSans-36" transform="translate(95.410156 0)"/>
      </g>
     </g>
    </g>
    <g id="ytick_5">
     <g id="line2d_17">
      <path d="M 90 174.72 
L 648 174.72 
" clip-path="url(#pcd255e2363)" style="fill: none; stroke: #b0b0b0; stroke-width: 0.8; stroke-linecap: square"/>
     </g>
     <g id="line2d_18">
      <g>
       <use xlink:href="#m94b19397ac" x="90" y="174.72" style="stroke: #000000; stroke-width: 0.8"/>
      </g>
     </g>
     <g id="text_10">
      <!-- 0.8 -->
      <g transform="translate(67.096875 178.519219) scale(0.1 -0.1)">
       <use xlink:href="#DejaVuSans-30"/>
       <use xlink:href="#DejaVuSans-2e" transform="translate(63.623047 0)"/>
       <use xlink:href="#DejaVuSans-38" transform="translate(95.410156 0)"/>
      </g>
     </g>
    </g>
    <g id="ytick_6">
     <g id="line2d_19">
      <path d="M 90 90.24 
L 648 90.24 
" clip-path="url(#pcd255e2363)" style="fill: none; stroke: #b0b0b0; stroke-width: 0.8; stroke-linecap: square"/>
     </g>
     <g id="line2d_20">
      <g>
       <use xlink:href="#m94b19397ac" x="90" y="90.24" style="stroke: #000000; stroke-width: 0.8"/>
      </g>
     </g>
     <g id="text_11">
      <!-- 1.0 -->
      <g transform="translate(67.096875 94.039219) scale(0.1 -0.1)">
       <defs>
        <path id="DejaVuSans-31" d="M 794 531 
L 1825 531 
L 1825 4091 
L 703 3866 
L 703 4441 
L 1819 4666 
L 2450 4666 
L 2450 531 
L 3481 531 
L 3481 0 
L 794 0 
L 794 531 
z
" transform="scale(0.015625)"/>
       </defs>
       <use xlink:href="#DejaVuSans-31"/>
       <use xlink:href="#DejaVuSans-2e" transform="translate(63.623047 0)"/>
       <use xlink:href="#DejaVuSans-30" transform="translate(95.410156 0)"/>
      </g>
     </g>
    </g>
    <g id="text_12">
     <!-- Output Fidelity -->
     <g transform="translate(61.017187 327.687813) rotate(-90) scale(0.1 -0.1)">
      <defs>
       <path id="DejaVuSans-4f" d="M 2522 4238 
Q 1834 4238 1429 3725 
Q 1025 3213 1025 2328 
Q 1025 1447 1429 934 
Q 1834 422 2522 422 
Q 3209 422 3611 934 
Q 4013 1447 4013 2328 
Q 4013 3213 3611 3725 
Q 3209 4238 2522 4238 
z
M 2522 4750 
Q 3503 4750 4090 4092 
Q 4678 3434 4678 2328 
Q 4678 1225 4090 567 
Q 3503 -91 2522 -91 
Q 1538 -91 948 565 
Q 359 1222 359 2328 
Q 359 3434 948 4092 
Q 1538 4750 2522 4750 
z
" transform="scale(0.015625)"/>
      </defs>
      <use xlink:href="#DejaVuSans-4f"/>
      <use xlink:href="#DejaVuSans-75" transform="translate(78.710938 0)"/>
      <use xlink:href="#DejaVuSans-74" transform="translate(142.089844 0)"/>
      <use xlink:href="#DejaVuSans-70" transform="translate(181.298828 0)"/>
      <use xlink:href="#DejaVuSans-75" transform="translate(244.775391 0)"/>
      <use xlink:href="#DejaVuSans-74" transform="translate(308.154297 0)"/>
      <use xlink:href="#DejaVuSans-20" transform="translate(347.363281 0)"/>
      <use xlink:href="#DejaVuSans-46" transform="translate(379.150391 0)"/>
      <use xlink:href="#DejaVuSans-69" transform="translate(429.419922 0)"/>
      <use xlink:href="#DejaVuSans-64" transform="translate(457.203125 0)"/>
      <use xlink:href="#DejaVuSans-65" transform="translate(520.679688 0)"/>
      <use xlink:href="#DejaVuSans-6c" transform="translate(582.203125 0)"/>
      <use xlink:href="#DejaVuSans-69" transform="translate(609.986328 0)"/>
      <use xlink:href="#DejaVuSans-74" transform="translate(637.769531 0)"/>
      <use xlink:href="#DejaVuSans-79" transform="translate(676.978516 0)"/>
     </g>
    </g>
   </g>
   <g id="line2d_21">
    <path d="M 115.363636 431.577759 
L 120.487603 431.825346 
L 125.61157 431.951709 
L 130.735537 431.95466 
L 135.859504 431.832174 
L 140.983471 431.582391 
L 146.107438 431.203631 
L 151.231405 430.6944 
L 156.355372 430.053403 
L 161.479339 429.279547 
L 166.603306 428.371952 
L 171.727273 427.329956 
L 176.85124 426.153122 
L 181.975207 424.841241 
L 187.099174 423.394339 
L 192.22314 421.812678 
L 197.347107 420.096758 
L 202.471074 418.247319 
L 207.595041 416.265344 
L 212.719008 414.15205 
L 217.842975 411.908896 
L 222.966942 409.537572 
L 228.090909 407.04 
L 233.214876 404.418325 
L 238.338843 401.674911 
L 243.46281 398.812334 
L 248.586777 395.833375 
L 253.710744 392.741006 
L 258.834711 389.538389 
L 263.958678 386.228855 
L 269.082645 382.815903 
L 274.206612 379.303182 
L 279.330579 375.69448 
L 284.454545 371.993712 
L 289.578512 368.204908 
L 294.702479 364.332197 
L 299.826446 360.379798 
L 304.950413 356.352 
L 310.07438 352.253154 
L 315.198347 348.087659 
L 320.322314 343.859943 
L 325.446281 339.574459 
L 330.570248 335.235663 
L 335.694215 330.84801 
L 340.818182 326.415934 
L 345.942149 321.943841 
L 351.066116 317.436099 
L 356.190083 312.897023 
L 361.31405 308.330868 
L 366.438017 303.741821 
L 371.561983 299.133989 
L 376.68595 294.511392 
L 381.809917 289.877956 
L 386.933884 285.237509 
L 392.057851 280.593769 
L 397.181818 275.950345 
L 402.305785 271.310727 
L 407.429752 266.678288 
L 412.553719 262.056273 
L 417.677686 257.447804 
L 422.801653 252.855872 
L 427.92562 248.28334 
L 433.049587 243.732937 
L 438.173554 239.207263 
L 443.297521 234.708784 
L 448.421488 230.239838 
L 453.545455 225.80263 
L 458.669421 221.399236 
L 463.793388 217.031605 
L 468.917355 212.701562 
L 474.041322 208.410808 
L 479.165289 204.160921 
L 484.289256 199.953365 
L 489.413223 195.789486 
L 494.53719 191.67052 
L 499.661157 187.597593 
L 504.785124 183.571729 
L 509.909091 179.593846 
L 515.033058 175.664768 
L 520.157025 171.785223 
L 525.280992 167.955848 
L 530.404959 164.177194 
L 535.528926 160.44973 
L 540.652893 156.773843 
L 545.77686 153.149847 
L 550.900826 149.577983 
L 556.024793 146.058423 
L 561.14876 142.591275 
L 566.272727 139.176585 
L 571.396694 135.814343 
L 576.520661 132.504482 
L 581.644628 129.246886 
L 586.768595 126.041388 
L 591.892562 122.887779 
L 597.016529 119.785806 
L 602.140496 116.735177 
L 607.264463 113.735565 
L 612.38843 110.786606 
L 617.512397 107.887909 
L 622.636364 105.03905 
" clip-path="url(#pcd255e2363)" style="fill: none; stroke: #ff0000; stroke-width: 1.5; stroke-linecap: square"/>
   </g>
   <g id="line2d_22">
    <defs>
     <path id="m8f60e2aad7" d="M 0 3 
C 0.795609 3 1.55874 2.683901 2.12132 2.12132 
C 2.683901 1.55874 3 0.795609 3 0 
C 3 -0.795609 2.683901 -1.55874 2.12132 -2.12132 
C 1.55874 -2.683901 0.795609 -3 0 -3 
C -0.795609 -3 -1.55874 -2.683901 -2.12132 -2.12132 
C -2.683901 -1.55874 -3 -0.795609 -3 0 
C -3 0.795609 -2.683901 1.55874 -2.12132 2.12132 
C -1.55874 2.683901 -0.795609 3 0 3 
z
" style="stroke: #0000ff"/>
    </defs>
    <g clip-path="url(#pcd255e2363)">
     <use xlink:href="#m8f60e2aad7" x="115.363636" y="431.577759" style="fill: #0000ff; stroke: #0000ff"/>
     <use xlink:href="#m8f60e2aad7" x="132.855799" y="431.9193" style="fill: #0000ff; stroke: #0000ff"/>
     <use xlink:href="#m8f60e2aad7" x="150.347962" y="430.791565" style="fill: #0000ff; stroke: #0000ff"/>
     <use xlink:href="#m8f60e2aad7" x="167.840125" y="428.132762" style="fill: #0000ff; stroke: #0000ff"/>
     <use xlink:href="#m8f60e2aad7" x="185.332288" y="423.908512" style="fill: #0000ff; stroke: #0000ff"/>
     <use xlink:href="#m8f60e2aad7" x="202.824451" y="418.114874" style="fill: #0000ff; stroke: #0000ff"/>
     <use xlink:href="#m8f60e2aad7" x="220.316614" y="410.780008" style="fill: #0000ff; stroke: #0000ff"/>
     <use xlink:href="#m8f60e2aad7" x="237.808777" y="401.964284" style="fill: #0000ff; stroke: #0000ff"/>
     <use xlink:href="#m8f60e2aad7" x="255.30094" y="391.758736" style="fill: #0000ff; stroke: #0000ff"/>
     <use xlink:href="#m8f60e2aad7" x="272.793103" y="380.281959" style="fill: #0000ff; stroke: #0000ff"/>
     <use xlink:href="#m8f60e2aad7" x="290.285266" y="367.675635" style="fill: #0000ff; stroke: #0000ff"/>
     <use xlink:href="#m8f60e2aad7" x="307.777429" y="354.099074" style="fill: #0000ff; stroke: #0000ff"/>
     <use xlink:href="#m8f60e2aad7" x="325.269592" y="339.723147" style="fill: #0000ff; stroke: #0000ff"/>
     <use xlink:href="#m8f60e2aad7" x="342.761755" y="324.724096" style="fill: #0000ff; stroke: #0000ff"/>
     <use xlink:href="#m8f60e2aad7" x="360.253918" y="309.277605" style="fill: #0000ff; stroke: #0000ff"/>
     <use xlink:href="#m8f60e2aad7" x="377.746082" y="293.553511" style="fill: #0000ff; stroke: #0000ff"/>
     <use xlink:href="#m8f60e2aad7" x="395.238245" y="277.711382" style="fill: #0000ff; stroke: #0000ff"/>
     <use xlink:href="#m8f60e2aad7" x="412.730408" y="261.897117" style="fill: #0000ff; stroke: #0000ff"/>
     <use xlink:href="#m8f60e2aad7" x="430.222571" y="246.240609" style="fill: #0000ff; stroke: #0000ff"/>
     <use xlink:href="#m8f60e2aad7" x="447.714734" y="230.854406" style="fill: #0000ff; stroke: #0000ff"/>
     <use xlink:href="#m8f60e2aad7" x="465.206897" y="215.833282" style="fill: #0000ff; stroke: #0000ff"/>
     <use xlink:href="#m8f60e2aad7" x="482.69906" y="201.254545" style="fill: #0000ff; stroke: #0000ff"/>
     <use xlink:href="#m8f60e2aad7" x="500.191223" y="187.178926" style="fill: #0000ff; stroke: #0000ff"/>
     <use xlink:href="#m8f60e2aad7" x="517.683386" y="173.65188" style="fill: #0000ff; stroke: #0000ff"/>
     <use xlink:href="#m8f60e2aad7" x="535.175549" y="160.705144" style="fill: #0000ff; stroke: #0000ff"/>
     <use xlink:href="#m8f60e2aad7" x="552.667712" y="148.358426" style="fill: #0000ff; stroke: #0000ff"/>
     <use xlink:href="#m8f60e2aad7" x="570.159875" y="136.62112" style="fill: #0000ff; stroke: #0000ff"/>
     <use xlink:href="#m8f60e2aad7" x="587.652038" y="125.493967" style="fill: #0000ff; stroke: #0000ff"/>
     <use xlink:href="#m8f60e2aad7" x="605.144201" y="114.970619" style="fill: #0000ff; stroke: #0000ff"/>
     <use xlink:href="#m8f60e2aad7" x="622.636364" y="105.03905" style="fill: #0000ff; stroke: #0000ff"/>
    </g>
   </g>
   <g id="line2d_23">
    <path d="M 115.363636 491.52 
L 120.487603 487.68 
L 125.61157 483.84 
L 130.735537 480 
L 135.859504 476.16 
L 140.983471 472.32 
L 146.107438 468.48 
L 151.231405 464.64 
L 156.355372 460.8 
L 161.479339 456.96 
L 166.603306 453.12 
L 171.727273 449.28 
L 176.85124 445.44 
L 181.975207 441.6 
L 187.099174 437.76 
L 192.22314 433.92 
L 197.347107 430.08 
L 202.471074 426.24 
L 207.595041 422.4 
L 212.719008 418.56 
L 217.842975 414.72 
L 222.966942 410.88 
L 228.090909 407.04 
L 233.214876 403.2 
L 238.338843 399.36 
L 243.46281 395.52 
L 248.586777 391.68 
L 253.710744 387.84 
L 258.834711 384 
L 263.958678 380.16 
L 269.082645 376.32 
L 274.206612 372.48 
L 279.330579 368.64 
L 284.454545 364.8 
L 289.578512 360.96 
L 294.702479 357.12 
L 299.826446 353.28 
L 304.950413 349.44 
L 310.07438 345.6 
L 315.198347 341.76 
L 320.322314 337.92 
L 325.446281 334.08 
L 330.570248 330.24 
L 335.694215 326.4 
L 340.818182 322.56 
L 345.942149 318.72 
L 351.066116 314.88 
L 356.190083 311.04 
L 361.31405 307.2 
L 366.438017 303.36 
L 371.561983 299.52 
L 376.68595 295.68 
L 381.809917 291.84 
L 386.933884 288 
L 392.057851 284.16 
L 397.181818 280.32 
L 402.305785 276.48 
L 407.429752 272.64 
L 412.553719 268.8 
L 417.677686 264.96 
L 422.801653 261.12 
L 427.92562 257.28 
L 433.049587 253.44 
L 438.173554 249.6 
L 443.297521 245.76 
L 448.421488 241.92 
L 453.545455 238.08 
L 458.669421 234.24 
L 463.793388 230.4 
L 468.917355 226.56 
L 474.041322 222.72 
L 479.165289 218.88 
L 484.289256 215.04 
L 489.413223 211.2 
L 494.53719 207.36 
L 499.661157 203.52 
L 504.785124 199.68 
L 509.909091 195.84 
L 515.033058 192 
L 520.157025 188.16 
L 525.280992 184.32 
L 530.404959 180.48 
L 535.528926 176.64 
L 540.652893 172.8 
L 545.77686 168.96 
L 550.900826 165.12 
L 556.024793 161.28 
L 561.14876 157.44 
L 566.272727 153.6 
L 571.396694 149.76 
L 576.520661 145.92 
L 581.644628 142.08 
L 586.768595 138.24 
L 591.892562 134.4 
L 597.016529 130.56 
L 602.140496 126.72 
L 607.264463 122.88 
L 612.38843 119.04 
L 617.512397 115.2 
L 622.636364 111.36 
" clip-path="url(#pcd255e2363)" style="fill: none; stroke-dasharray: 5.55,2.4; stroke-dashoffset: 0; stroke: #000000; stroke-width: 1.5"/>
   </g>
   <g id="line2d_24">
    <path d="M 369 512.64 
L 369 69.12 
" clip-path="url(#pcd255e2363)" style="fill: none; stroke-dasharray: 5.55,2.4; stroke-dashoffset: 0; stroke: #800080; stroke-width: 1.5"/>
   </g>
   <g id="patch_3">
    <path d="M 90 512.64 
L 90 69.12 
" style="fill: none; stroke: #000000; stroke-width: 0.8; stroke-linejoin: miter; stroke-linecap: square"/>
   </g>
   <g id="patch_4">
    <path d="M 648 512.64 
L 648 69.12 
" style="fill: none; stroke: #000000; stroke-width: 0.8; stroke-linejoin: miter; stroke-linecap: square"/>
   </g>
   <g id="patch_5">
    <path d="M 90 512.64 
L 648 512.64 
" style="fill: none; stroke: #000000; stroke-width: 0.8; stroke-linejoin: miter; stroke-linecap: square"/>
   </g>
   <g id="patch_6">
    <path d="M 90 69.12 
L 648 69.12 
" style="fill: none; stroke: #000000; stroke-width: 0.8; stroke-linejoin: miter; stroke-linecap: square"/>
   </g>
   <g id="text_13">
    <!-- Bennett Protocol Purification: Theoretical vs Simulation Results -->
    <g transform="translate(180.039375 63.12) scale(0.12 -0.12)">
     <defs>
      <path id="DejaVuSans-42" d="M 1259 2228 
L 1259 519 
L 2272 519 
Q 2781 519 3026 730 
Q 3272 941 3272 1375 
Q 3272 1813 3026 2020 
Q 2781 2228 2272 2228 
L 1259 2228 
z
M 1259 4147 
L 1259 2741 
L 2194 2741 
Q 2656 2741 2882 2914 
Q 3109 3088 3109 3444 
Q 3109 3797 2882 3972 
Q 2656 4147 2194 4147 
L 1259 4147 
z
M 628 4666 
L 2241 4666 
Q 2963 4666 3353 4366 
Q 3744 4066 3744 3513 
Q 3744 3084 3544 2831 
Q 3344 2578 2956 2516 
Q 3422 2416 3680 2098 
Q 3938 1781 3938 1306 
Q 3938 681 3513 340 
Q 3088 0 2303 0 
L 628 0 
L 628 4666 
z
" transform="scale(0.015625)"/>
      <path id="DejaVuSans-50" d="M 1259 4147 
L 1259 2394 
L 2053 2394 
Q 2494 2394 2734 2622 
Q 2975 2850 2975 3272 
Q 2975 3691 2734 3919 
Q 2494 4147 2053 4147 
L 1259 4147 
z
M 628 4666 
L 2053 4666 
Q 2838 4666 3239 4311 
Q 3641 3956 3641 3272 
Q 3641 2581 3239 2228 
Q 2838 1875 2053 1875 
L 1259 1875 
L 1259 0 
L 628 0 
L 628 4666 
z
" transform="scale(0.015625)"/>
      <path id="DejaVuSans-72" d="M 2631 2963 
Q 2534 3019 2420 3045 
Q 2306 3072 2169 3072 
Q 1681 3072 1420 2755 
Q 1159 2438 1159 1844 
L 1159 0 
L 581 0 
L 581 3500 
L 1159 3500 
L 1159 2956 
Q 1341 3275 1631 3429 
Q 1922 3584 2338 3584 
Q 2397 3584 2469 3576 
Q 2541 3569 2628 3553 
L 2631 2963 
z
" transform="scale(0.015625)"/>
      <path id="DejaVuSans-6f" d="M 1959 3097 
Q 1497 3097 1228 2736 
Q 959 2375 959 1747 
Q 959 1119 1226 758 
Q 1494 397 1959 397 
Q 2419 397 2687 759 
Q 2956 1122 2956 1747 
Q 2956 2369 2687 2733 
Q 2419 3097 1959 3097 
z
M 1959 3584 
Q 2709 3584 3137 3096 
Q 3566 2609 3566 1747 
Q 3566 888 3137 398 
Q 2709 -91 1959 -91 
Q 1206 -91 779 398 
Q 353 888 353 1747 
Q 353 2609 779 3096 
Q 1206 3584 1959 3584 
z
" transform="scale(0.015625)"/>
      <path id="DejaVuSans-63" d="M 3122 3366 
L 3122 2828 
Q 2878 2963 2633 3030 
Q 2388 3097 2138 3097 
Q 1578 3097 1268 2742 
Q 959 2388 959 1747 
Q 959 1106 1268 751 
Q 1578 397 2138 397 
Q 2388 397 2633 464 
Q 2878 531 3122 666 
L 3122 134 
Q 2881 22 2623 -34 
Q 2366 -91 2075 -91 
Q 1284 -91 818 406 
Q 353 903 353 1747 
Q 353 2603 823 3093 
Q 1294 3584 2113 3584 
Q 2378 3584 2631 3529 
Q 2884 3475 3122 3366 
z
" transform="scale(0.015625)"/>
      <path id="DejaVuSans-66" d="M 2375 4863 
L 2375 4384 
L 1825 4384 
Q 1516 4384 1395 4259 
Q 1275 4134 1275 3809 
L 1275 3500 
L 2222 3500 
L 2222 3053 
L 1275 3053 
L 1275 0 
L 697 0 
L 697 3053 
L 147 3053 
L 147 3500 
L 697 3500 
L 697 3744 
Q 697 4328 969 4595 
Q 1241 4863 1831 4863 
L 2375 4863 
z
" transform="scale(0.015625)"/>
      <path id="DejaVuSans-61" d="M 2194 1759 
Q 1497 1759 1228 1600 
Q 959 1441 959 1056 
Q 959 750 1161 570 
Q 1363 391 1709 391 
Q 2188 391 2477 730 
Q 2766 1069 2766 1631 
L 2766 1759 
L 2194 1759 
z
M 3341 1997 
L 3341 0 
L 2766 0 
L 2766 531 
Q 2569 213 2275 61 
Q 1981 -91 1556 -91 
Q 1019 -91 701 211 
Q 384 513 384 1019 
Q 384 1609 779 1909 
Q 1175 2209 1959 2209 
L 2766 2209 
L 2766 2266 
Q 2766 2663 2505 2880 
Q 2244 3097 1772 3097 
Q 1472 3097 1187 3025 
Q 903 2953 641 2809 
L 641 3341 
Q 956 3463 1253 3523 
Q 1550 3584 1831 3584 
Q 2591 3584 2966 3190 
Q 3341 2797 3341 1997 
z
" transform="scale(0.015625)"/>
      <path id="DejaVuSans-3a" d="M 750 794 
L 1409 794 
L 1409 0 
L 750 0 
L 750 794 
z
M 750 3309 
L 1409 3309 
L 1409 2516 
L 750 2516 
L 750 3309 
z
" transform="scale(0.015625)"/>
      <path id="DejaVuSans-54" d="M -19 4666 
L 3928 4666 
L 3928 4134 
L 2272 4134 
L 2272 0 
L 1638 0 
L 1638 4134 
L -19 4134 
L -19 4666 
z
" transform="scale(0.015625)"/>
      <path id="DejaVuSans-68" d="M 3513 2113 
L 3513 0 
L 2938 0 
L 2938 2094 
Q 2938 2591 2744 2837 
Q 2550 3084 2163 3084 
Q 1697 3084 1428 2787 
Q 1159 2491 1159 1978 
L 1159 0 
L 581 0 
L 581 4863 
L 1159 4863 
L 1159 2956 
Q 1366 3272 1645 3428 
Q 1925 3584 2291 3584 
Q 2894 3584 3203 3211 
Q 3513 2838 3513 2113 
z
" transform="scale(0.015625)"/>
      <path id="DejaVuSans-76" d="M 191 3500 
L 800 3500 
L 1894 563 
L 2988 3500 
L 3597 3500 
L 2284 0 
L 1503 0 
L 191 3500 
z
" transform="scale(0.015625)"/>
      <path id="DejaVuSans-73" d="M 2834 3397 
L 2834 2853 
Q 2591 2978 2328 3040 
Q 2066 3103 1784 3103 
Q 1356 3103 1142 2972 
Q 928 2841 928 2578 
Q 928 2378 1081 2264 
Q 1234 2150 1697 2047 
L 1894 2003 
Q 2506 1872 2764 1633 
Q 3022 1394 3022 966 
Q 3022 478 2636 193 
Q 2250 -91 1575 -91 
Q 1294 -91 989 -36 
Q 684 19 347 128 
L 347 722 
Q 666 556 975 473 
Q 1284 391 1588 391 
Q 1994 391 2212 530 
Q 2431 669 2431 922 
Q 2431 1156 2273 1281 
Q 2116 1406 1581 1522 
L 1381 1569 
Q 847 1681 609 1914 
Q 372 2147 372 2553 
Q 372 3047 722 3315 
Q 1072 3584 1716 3584 
Q 2034 3584 2315 3537 
Q 2597 3491 2834 3397 
z
" transform="scale(0.015625)"/>
      <path id="DejaVuSans-53" d="M 3425 4513 
L 3425 3897 
Q 3066 4069 2747 4153 
Q 2428 4238 2131 4238 
Q 1616 4238 1336 4038 
Q 1056 3838 1056 3469 
Q 1056 3159 1242 3001 
Q 1428 2844 1947 2747 
L 2328 2669 
Q 3034 2534 3370 2195 
Q 3706 1856 3706 1288 
Q 3706 609 3251 259 
Q 2797 -91 1919 -91 
Q 1588 -91 1214 -16 
Q 841 59 441 206 
L 441 856 
Q 825 641 1194 531 
Q 1563 422 1919 422 
Q 2459 422 2753 634 
Q 3047 847 3047 1241 
Q 3047 1584 2836 1778 
Q 2625 1972 2144 2069 
L 1759 2144 
Q 1053 2284 737 2584 
Q 422 2884 422 3419 
Q 422 4038 858 4394 
Q 1294 4750 2059 4750 
Q 2388 4750 2728 4690 
Q 3069 4631 3425 4513 
z
" transform="scale(0.015625)"/>
      <path id="DejaVuSans-6d" d="M 3328 2828 
Q 3544 3216 3844 3400 
Q 4144 3584 4550 3584 
Q 5097 3584 5394 3201 
Q 5691 2819 5691 2113 
L 5691 0 
L 5113 0 
L 5113 2094 
Q 5113 2597 4934 2840 
Q 4756 3084 4391 3084 
Q 3944 3084 3684 2787 
Q 3425 2491 3425 1978 
L 3425 0 
L 2847 0 
L 2847 2094 
Q 2847 2600 2669 2842 
Q 2491 3084 2119 3084 
Q 1678 3084 1418 2786 
Q 1159 2488 1159 1978 
L 1159 0 
L 581 0 
L 581 3500 
L 1159 3500 
L 1159 2956 
Q 1356 3278 1631 3431 
Q 1906 3584 2284 3584 
Q 2666 3584 2933 3390 
Q 3200 3197 3328 2828 
z
" transform="scale(0.015625)"/>
      <path id="DejaVuSans-52" d="M 2841 2188 
Q 3044 2119 3236 1894 
Q 3428 1669 3622 1275 
L 4263 0 
L 3584 0 
L 2988 1197 
Q 2756 1666 2539 1819 
Q 2322 1972 1947 1972 
L 1259 1972 
L 1259 0 
L 628 0 
L 628 4666 
L 2053 4666 
Q 2853 4666 3247 4331 
Q 3641 3997 3641 3322 
Q 3641 2881 3436 2590 
Q 3231 2300 2841 2188 
z
M 1259 4147 
L 1259 2491 
L 2053 2491 
Q 2509 2491 2742 2702 
Q 2975 2913 2975 3322 
Q 2975 3731 2742 3939 
Q 2509 4147 2053 4147 
L 1259 4147 
z
" transform="scale(0.015625)"/>
     </defs>
     <use xlink:href="#DejaVuSans-42"/>
     <use xlink:href="#DejaVuSans-65" transform="translate(68.603516 0)"/>
     <use xlink:href="#DejaVuSans-6e" transform="translate(130.126953 0)"/>
     <use xlink:href="#DejaVuSans-6e" transform="translate(193.505859 0)"/>
     <use xlink:href="#DejaVuSans-65" transform="translate(256.884766 0)"/>
     <use xlink:href="#DejaVuSans-74" transform="translate(318.408203 0)"/>
     <use xlink:href="#DejaVuSans-74" transform="translate(357.617188 0)"/>
     <use xlink:href="#DejaVuSans-20" transform="translate(396.826172 0)"/>
     <use xlink:href="#DejaVuSans-50" transform="translate(428.613281 0)"/>
     <use xlink:href="#DejaVuSans-72" transform="translate(487.166016 0)"/>
     <use xlink:href="#DejaVuSans-6f" transform="translate(526.029297 0)"/>
     <use xlink:href="#DejaVuSans-74" transform="translate(587.210938 0)"/>
     <use xlink:href="#DejaVuSans-6f" transform="translate(626.419922 0)"/>
     <use xlink:href="#DejaVuSans-63" transform="translate(687.601562 0)"/>
     <use xlink:href="#DejaVuSans-6f" transform="translate(742.582031 0)"/>
     <use xlink:href="#DejaVuSans-6c" transform="translate(803.763672 0)"/>
     <use xlink:href="#DejaVuSans-20" transform="translate(831.546875 0)"/>
     <use xlink:href="#DejaVuSans-50" transform="translate(863.333984 0)"/>
     <use xlink:href="#DejaVuSans-75" transform="translate(921.886719 0)"/>
     <use xlink:href="#DejaVuSans-72" transform="translate(985.265625 0)"/>
     <use xlink:href="#DejaVuSans-69" transform="translate(1026.378906 0)"/>
     <use xlink:href="#DejaVuSans-66" transform="translate(1054.162109 0)"/>
     <use xlink:href="#DejaVuSans-69" transform="translate(1089.367188 0)"/>
     <use xlink:href="#DejaVuSans-63" transform="translate(1117.150391 0)"/>
     <use xlink:href="#DejaVuSans-61" transform="translate(1172.130859 0)"/>
     <use xlink:href="#DejaVuSans-74" transform="translate(1233.410156 0)"/>
     <use xlink:href="#DejaVuSans-69" transform="translate(1272.619141 0)"/>
     <use xlink:href="#DejaVuSans-6f" transform="translate(1300.402344 0)"/>
     <use xlink:href="#DejaVuSans-6e" transform="translate(1361.583984 0)"/>
     <use xlink:href="#DejaVuSans-3a" transform="translate(1424.962891 0)"/>
     <use xlink:href="#DejaVuSans-20" transform="translate(1458.654297 0)"/>
     <use xlink:href="#DejaVuSans-54" transform="translate(1490.441406 0)"/>
     <use xlink:href="#DejaVuSans-68" transform="translate(1551.525391 0)"/>
     <use xlink:href="#DejaVuSans-65" transform="translate(1614.904297 0)"/>
     <use xlink:href="#DejaVuSans-6f" transform="translate(1676.427734 0)"/>
     <use xlink:href="#DejaVuSans-72" transform="translate(1737.609375 0)"/>
     <use xlink:href="#DejaVuSans-65" transform="translate(1776.472656 0)"/>
     <use xlink:href="#DejaVuSans-74" transform="translate(1837.996094 0)"/>
     <use xlink:href="#DejaVuSans-69" transform="translate(1877.205078 0)"/>
     <use xlink:href="#DejaVuSans-63" transform="translate(1904.988281 0)"/>
     <use xlink:href="#DejaVuSans-61" transform="translate(1959.96875 0)"/>
     <use xlink:href="#DejaVuSans-6c" transform="translate(2021.248047 0)"/>
     <use xlink:href="#DejaVuSans-20" transform="translate(2049.03125 0)"/>
     <use xlink:href="#DejaVuSans-76" transform="translate(2080.818359 0)"/>
     <use xlink:href="#DejaVuSans-73" transform="translate(2139.998047 0)"/>
     <use xlink:href="#DejaVuSans-20" transform="translate(2192.097656 0)"/>
     <use xlink:href="#DejaVuSans-53" transform="translate(2223.884766 0)"/>
     <use xlink:href="#DejaVuSans-69" transform="translate(2287.361328 0)"/>
     <use xlink:href="#DejaVuSans-6d" transform="translate(2315.144531 0)"/>
     <use xlink:href="#DejaVuSans-75" transform="translate(2412.556641 0)"/>
     <use xlink:href="#DejaVuSans-6c" transform="translate(2475.935547 0)"/>
     <use xlink:href="#DejaVuSans-61" transform="translate(2503.71875 0)"/>
     <use xlink:href="#DejaVuSans-74" transform="translate(2564.998047 0)"/>
     <use xlink:href="#DejaVuSans-69" transform="translate(2604.207031 0)"/>
     <use xlink:href="#DejaVuSans-6f" transform="translate(2631.990234 0)"/>
     <use xlink:href="#DejaVuSans-6e" transform="translate(2693.171875 0)"/>
     <use xlink:href="#DejaVuSans-20" transform="translate(2756.550781 0)"/>
     <use xlink:href="#DejaVuSans-52" transform="translate(2788.337891 0)"/>
     <use xlink:href="#DejaVuSans-65" transform="translate(2853.320312 0)"/>
     <use xlink:href="#DejaVuSans-73" transform="translate(2914.84375 0)"/>
     <use xlink:href="#DejaVuSans-75" transform="translate(2966.943359 0)"/>
     <use xlink:href="#DejaVuSans-6c" transform="translate(3030.322266 0)"/>
     <use xlink:href="#DejaVuSans-74" transform="translate(3058.105469 0)"/>
     <use xlink:href="#DejaVuSans-73" transform="translate(3097.314453 0)"/>
    </g>
   </g>
   <g id="legend_1">
    <g id="patch_7">
     <path d="M 97 135.8325 
L 293.035938 135.8325 
Q 295.035938 135.8325 295.035938 133.8325 
L 295.035938 76.12 
Q 295.035938 74.12 293.035938 74.12 
L 97 74.12 
Q 95 74.12 95 76.12 
L 95 133.8325 
Q 95 135.8325 97 135.8325 
z
" style="fill: #ffffff; opacity: 0.8; stroke: #cccccc; stroke-linejoin: miter"/>
    </g>
    <g id="line2d_25">
     <path d="M 99 82.218437 
L 109 82.218437 
L 119 82.218437 
" style="fill: none; stroke: #ff0000; stroke-width: 1.5; stroke-linecap: square"/>
    </g>
    <g id="text_14">
     <!-- Theoretical Output Fidelity -->
     <g transform="translate(127 85.718437) scale(0.1 -0.1)">
      <use xlink:href="#DejaVuSans-54"/>
      <use xlink:href="#DejaVuSans-68" transform="translate(61.083984 0)"/>
      <use xlink:href="#DejaVuSans-65" transform="translate(124.462891 0)"/>
      <use xlink:href="#DejaVuSans-6f" transform="translate(185.986328 0)"/>
      <use xlink:href="#DejaVuSans-72" transform="translate(247.167969 0)"/>
      <use xlink:href="#DejaVuSans-65" transform="translate(286.03125 0)"/>
      <use xlink:href="#DejaVuSans-74" transform="translate(347.554688 0)"/>
      <use xlink:href="#DejaVuSans-69" transform="translate(386.763672 0)"/>
      <use xlink:href="#DejaVuSans-63" transform="translate(414.546875 0)"/>
      <use xlink:href="#DejaVuSans-61" transform="translate(469.527344 0)"/>
      <use xlink:href="#DejaVuSans-6c" transform="translate(530.806641 0)"/>
      <use xlink:href="#DejaVuSans-20" transform="translate(558.589844 0)"/>
      <use xlink:href="#DejaVuSans-4f" transform="translate(590.376953 0)"/>
      <use xlink:href="#DejaVuSans-75" transform="translate(669.087891 0)"/>
      <use xlink:href="#DejaVuSans-74" transform="translate(732.466797 0)"/>
      <use xlink:href="#DejaVuSans-70" transform="translate(771.675781 0)"/>
      <use xlink:href="#DejaVuSans-75" transform="translate(835.152344 0)"/>
      <use xlink:href="#DejaVuSans-74" transform="translate(898.53125 0)"/>
      <use xlink:href="#DejaVuSans-20" transform="translate(937.740234 0)"/>
      <use xlink:href="#DejaVuSans-46" transform="translate(969.527344 0)"/>
      <use xlink:href="#DejaVuSans-69" transform="translate(1019.796875 0)"/>
      <use xlink:href="#DejaVuSans-64" transform="translate(1047.580078 0)"/>
      <use xlink:href="#DejaVuSans-65" transform="translate(1111.056641 0)"/>
      <use xlink:href="#DejaVuSans-6c" transform="translate(1172.580078 0)"/>
      <use xlink:href="#DejaVuSans-69" transform="translate(1200.363281 0)"/>
      <use xlink:href="#DejaVuSans-74" transform="translate(1228.146484 0)"/>
      <use xlink:href="#DejaVuSans-79" transform="translate(1267.355469 0)"/>
     </g>
    </g>
    <g id="line2d_26">
     <g>
      <use xlink:href="#m8f60e2aad7" x="109" y="96.896563" style="fill: #0000ff; stroke: #0000ff"/>
     </g>
    </g>
    <g id="text_15">
     <!-- Simulation Results -->
     <g transform="translate(127 100.396563) scale(0.1 -0.1)">
      <use xlink:href="#DejaVuSans-53"/>
      <use xlink:href="#DejaVuSans-69" transform="translate(63.476562 0)"/>
      <use xlink:href="#DejaVuSans-6d" transform="translate(91.259766 0)"/>
      <use xlink:href="#DejaVuSans-75" transform="translate(188.671875 0)"/>
      <use xlink:href="#DejaVuSans-6c" transform="translate(252.050781 0)"/>
      <use xlink:href="#DejaVuSans-61" transform="translate(279.833984 0)"/>
      <use xlink:href="#DejaVuSans-74" transform="translate(341.113281 0)"/>
      <use xlink:href="#DejaVuSans-69" transform="translate(380.322266 0)"/>
      <use xlink:href="#DejaVuSans-6f" transform="translate(408.105469 0)"/>
      <use xlink:href="#DejaVuSans-6e" transform="translate(469.287109 0)"/>
      <use xlink:href="#DejaVuSans-20" transform="translate(532.666016 0)"/>
      <use xlink:href="#DejaVuSans-52" transform="translate(564.453125 0)"/>
      <use xlink:href="#DejaVuSans-65" transform="translate(629.435547 0)"/>
      <use xlink:href="#DejaVuSans-73" transform="translate(690.958984 0)"/>
      <use xlink:href="#DejaVuSans-75" transform="translate(743.058594 0)"/>
      <use xlink:href="#DejaVuSans-6c" transform="translate(806.4375 0)"/>
      <use xlink:href="#DejaVuSans-74" transform="translate(834.220703 0)"/>
      <use xlink:href="#DejaVuSans-73" transform="translate(873.429688 0)"/>
     </g>
    </g>
    <g id="line2d_27">
     <path d="M 99 111.574687 
L 109 111.574687 
L 119 111.574687 
" style="fill: none; stroke-dasharray: 5.55,2.4; stroke-dashoffset: 0; stroke: #000000; stroke-width: 1.5"/>
    </g>
    <g id="text_16">
     <!-- Input=Output (No Improvement) -->
     <g transform="translate(127 115.074687) scale(0.1 -0.1)">
      <defs>
       <path id="DejaVuSans-3d" d="M 678 2906 
L 4684 2906 
L 4684 2381 
L 678 2381 
L 678 2906 
z
M 678 1631 
L 4684 1631 
L 4684 1100 
L 678 1100 
L 678 1631 
z
" transform="scale(0.015625)"/>
       <path id="DejaVuSans-28" d="M 1984 4856 
Q 1566 4138 1362 3434 
Q 1159 2731 1159 2009 
Q 1159 1288 1364 580 
Q 1569 -128 1984 -844 
L 1484 -844 
Q 1016 -109 783 600 
Q 550 1309 550 2009 
Q 550 2706 781 3412 
Q 1013 4119 1484 4856 
L 1984 4856 
z
" transform="scale(0.015625)"/>
       <path id="DejaVuSans-4e" d="M 628 4666 
L 1478 4666 
L 3547 763 
L 3547 4666 
L 4159 4666 
L 4159 0 
L 3309 0 
L 1241 3903 
L 1241 0 
L 628 0 
L 628 4666 
z
" transform="scale(0.015625)"/>
       <path id="DejaVuSans-29" d="M 513 4856 
L 1013 4856 
Q 1481 4119 1714 3412 
Q 1947 2706 1947 2009 
Q 1947 1309 1714 600 
Q 1481 -109 1013 -844 
L 513 -844 
Q 928 -128 1133 580 
Q 1338 1288 1338 2009 
Q 1338 2731 1133 3434 
Q 928 4138 513 4856 
z
" transform="scale(0.015625)"/>
      </defs>
      <use xlink:href="#DejaVuSans-49"/>
      <use xlink:href="#DejaVuSans-6e" transform="translate(29.492188 0)"/>
      <use xlink:href="#DejaVuSans-70" transform="translate(92.871094 0)"/>
      <use xlink:href="#DejaVuSans-75" transform="translate(156.347656 0)"/>
      <use xlink:href="#DejaVuSans-74" transform="translate(219.726562 0)"/>
      <use xlink:href="#DejaVuSans-3d" transform="translate(258.935547 0)"/>
      <use xlink:href="#DejaVuSans-4f" transform="translate(342.724609 0)"/>
      <use xlink:href="#DejaVuSans-75" transform="translate(421.435547 0)"/>
      <use xlink:href="#DejaVuSans-74" transform="translate(484.814453 0)"/>
      <use xlink:href="#DejaVuSans-70" transform="translate(524.023438 0)"/>
      <use xlink:href="#DejaVuSans-75" transform="translate(587.5 0)"/>
      <use xlink:href="#DejaVuSans-74" transform="translate(650.878906 0)"/>
      <use xlink:href="#DejaVuSans-20" transform="translate(690.087891 0)"/>
      <use xlink:href="#DejaVuSans-28" transform="translate(721.875 0)"/>
      <use xlink:href="#DejaVuSans-4e" transform="translate(760.888672 0)"/>
      <use xlink:href="#DejaVuSans-6f" transform="translate(835.693359 0)"/>
      <use xlink:href="#DejaVuSans-20" transform="translate(896.875 0)"/>
      <use xlink:href="#DejaVuSans-49" transform="translate(928.662109 0)"/>
      <use xlink:href="#DejaVuSans-6d" transform="translate(958.154297 0)"/>
      <use xlink:href="#DejaVuSans-70" transform="translate(1055.566406 0)"/>
      <use xlink:href="#DejaVuSans-72" transform="translate(1119.042969 0)"/>
      <use xlink:href="#DejaVuSans-6f" transform="translate(1157.90625 0)"/>
      <use xlink:href="#DejaVuSans-76" transform="translate(1219.087891 0)"/>
      <use xlink:href="#DejaVuSans-65" transform="translate(1278.267578 0)"/>
      <use xlink:href="#DejaVuSans-6d" transform="translate(1339.791016 0)"/>
      <use xlink:href="#DejaVuSans-65" transform="translate(1437.203125 0)"/>
      <use xlink:href="#DejaVuSans-6e" transform="translate(1498.726562 0)"/>
      <use xlink:href="#DejaVuSans-74" transform="translate(1562.105469 0)"/>
      <use xlink:href="#DejaVuSans-29" transform="translate(1601.314453 0)"/>
     </g>
    </g>
    <g id="line2d_28">
     <path d="M 99 126.252813 
L 109 126.252813 
L 119 126.252813 
" style="fill: none; stroke-dasharray: 5.55,2.4; stroke-dashoffset: 0; stroke: #800080; stroke-width: 1.5"/>
    </g>
    <g id="text_17">
     <!-- F=0.5 threshold -->
     <g transform="translate(127 129.752813) scale(0.1 -0.1)">
      <defs>
       <path id="DejaVuSans-35" d="M 691 4666 
L 3169 4666 
L 3169 4134 
L 1269 4134 
L 1269 2991 
Q 1406 3038 1543 3061 
Q 1681 3084 1819 3084 
Q 2600 3084 3056 2656 
Q 3513 2228 3513 1497 
Q 3513 744 3044 326 
Q 2575 -91 1722 -91 
Q 1428 -91 1123 -41 
Q 819 9 494 109 
L 494 744 
Q 775 591 1075 516 
Q 1375 441 1709 441 
Q 2250 441 2565 725 
Q 2881 1009 2881 1497 
Q 2881 1984 2565 2268 
Q 2250 2553 1709 2553 
Q 1456 2553 1204 2497 
Q 953 2441 691 2322 
L 691 4666 
z
" transform="scale(0.015625)"/>
      </defs>
      <use xlink:href="#DejaVuSans-46"/>
      <use xlink:href="#DejaVuSans-3d" transform="translate(57.519531 0)"/>
      <use xlink:href="#DejaVuSans-30" transform="translate(141.308594 0)"/>
      <use xlink:href="#DejaVuSans-2e" transform="translate(204.931641 0)"/>
      <use xlink:href="#DejaVuSans-35" transform="translate(236.71875 0)"/>
      <use xlink:href="#DejaVuSans-20" transform="translate(300.341797 0)"/>
      <use xlink:href="#DejaVuSans-74" transform="translate(332.128906 0)"/>
      <use xlink:href="#DejaVuSans-68" transform="translate(371.337891 0)"/>
      <use xlink:href="#DejaVuSans-72" transform="translate(434.716797 0)"/>
      <use xlink:href="#DejaVuSans-65" transform="translate(473.580078 0)"/>
      <use xlink:href="#DejaVuSans-73" transform="translate(535.103516 0)"/>
      <use xlink:href="#DejaVuSans-68" transform="translate(587.203125 0)"/>
      <use xlink:href="#DejaVuSans-6f" transform="translate(650.582031 0)"/>
      <use xlink:href="#DejaVuSans-6c" transform="translate(711.763672 0)"/>
      <use xlink:href="#DejaVuSans-64" transform="translate(739.546875 0)"/>
     </g>
    </g>
   </g>
  </g>
 </g>
 <defs>
  <clipPath id="pcd255e2363">
   <rect x="90" y="69.12" width="558" height="443.52"/>
  </clipPath>
 </defs>
</svg>
